<?xml version="1.0" standalone="no"?>
<!DOCTYPE svg PUBLIC "-//W3C//DTD SVG 1.1//EN" "http://www.w3.org/Graphics/SVG/1.1/DTD/svg11.dtd" >
<svg xmlns="http://www.w3.org/2000/svg" xmlns:xlink="http://www.w3.org/1999/xlink" version="1.1">
<metadata>
Created by FontForge 20170731 at Mon Mar 30 09:12:39 2020
 By Aleksey,,,
</metadata>
<defs>
<font id="CarlaSansRegular" horiz-adv-x="699" >
  <font-face 
    font-family="Carla Sans"
    font-weight="400"
    font-stretch="normal"
    units-per-em="1000"
    panose-1="0 0 0 0 0 0 0 0 0 0"
    ascent="800"
    descent="-200"
    x-height="719"
    cap-height="721"
    bbox="-357 -329 1529 1204"
    underline-thickness="50"
    underline-position="-250"
    unicode-range="U+000A-F06B"
  />
<missing-glyph horiz-adv-x="527" 
d="M50 700h427v-700h-427v700zM78 680l185 -309l186 309h-371zM251 350l-180 300v-601zM264 329l-185 -308h370zM276 350l181 -303v605z" />
    <glyph glyph-name="Aa.liga" unicode="Aa" horiz-adv-x="1358" 
d="M998 5q119 0 218 56l19 -34q-107 -61 -236 -61q-225 0 -396 195h-410l-10 -26l-41 -115l-5 -12h-118l9 25l247 675l5 12h112q4 -14 9 -35q14 -49 32 -101.5t48 -121t65 -130t84 -122.5t102.5 -105.5t122.5 -72t143 -27.5zM209 205h358q-115 150 -201 432l-149 -407z
M1237 720h56v-479h-83l-1 54q-80 -73 -184 -73q-70 0 -133 34.5t-102 94t-39 128.5t39 129t102 94.5t133 34.5q103 0 183 -73zM1209 434q5 36 1 73q-2 24 -9 47q-14 46 -42 78.5t-67 48.5t-84 10q-52 -7 -91.5 -42t-57 -87t-11.5 -110q10 -88 69 -141.5t139 -43.5
q61 8 101.5 54t51.5 113z" />
    <glyph glyph-name="Ai.liga" unicode="Ai" horiz-adv-x="1246" 
d="M1051 723v-557h-109v515v42h93h16zM1216 61l19 -34q-107 -61 -236 -61q-225 0 -396 194h-410l-10 -26l-41 -114l-5 -13h-118l9 26l247 675l5 12h112q4 -14 9 -35q14 -49 32 -101.5t48 -121t65 -130t84 -123t102.5 -105.5t122.5 -71.5t143 -27.5q119 0 218 56zM209 204
h358q-115 151 -201 432l-149 -407z" />
    <glyph glyph-name="Au.liga" unicode="Au" horiz-adv-x="1368" 
d="M1270 721h43v-310q0 -94 -71 -160.5t-171 -66.5h-28q-66 0 -126.5 30t-98.5 83t-38 114v268l1 42h109v-310q0 -47 17.5 -85t53 -61t82.5 -23h49q73 0 125 49.5t52 119.5v268zM998 5q119 0 218 56l19 -34q-107 -61 -236 -61q-225 0 -396 194h-410l-10 -26l-41 -114l-5 -13
h-118l9 26l247 675l5 12h112q4 -15 9 -35q14 -49 32 -101.5t48 -121t65 -130t84 -123t102.5 -105.5t122.5 -71.5t143 -27.5zM209 204h358q-115 151 -201 432l-149 -407z" />
    <glyph glyph-name="Ae.liga" unicode="Ae" horiz-adv-x="1340" 
d="M1297 428h-94h-342q9 -80 56.5 -133t116.5 -53q110 0 179 104l43 -37q-90 -111 -221 -111q-97 0 -175.5 67t-91.5 163q-2 18 -2 32v13q4 67 43 124.5t99.5 90.5t126.5 33q101 0 179.5 -73t83.5 -176l0.5 -5t0.5 -7q0 -15 -2 -32zM860 473l345 -1q-3 57 -24.5 103.5
t-60 74t-86.5 27.5t-87.5 -27t-62 -74t-24.5 -103zM998 5q119 0 218 56l20 -34q-108 -61 -237 -61q-225 0 -396 194h-410l-10 -26l-41 -114l-5 -13h-118l9 26l247 675l5 12h112q4 -16 9 -35q14 -49 32 -101.5t48 -121t65 -130t84 -123t102.5 -105.5t122.5 -71.5t143 -27.5z
M209 204h358q-115 151 -201 432l-149 -407z" />
    <glyph glyph-name="Ao.liga" unicode="Ao" horiz-adv-x="1359" 
d="M1038 732q54 0 105.5 -20.5t89.5 -55t61.5 -82.5t23.5 -100q0 -69 -39.5 -129t-104 -94t-137 -34t-138.5 34t-106.5 94t-40.5 129t40.5 129t106.5 94.5t139 34.5zM1100 270q75 22 105.5 98t3.5 163q-26 86 -91.5 128.5t-141.5 19.5t-108.5 -99.5t-6.5 -161.5
q26 -86 94 -129t145 -19zM998 5q119 0 218 56l19 -34q-107 -61 -236 -61q-225 0 -396 194h-410l-10 -26l-41 -114l-5 -13h-118l9 26l247 675l5 12h112q4 -15 9 -35q14 -49 32 -101.5t48 -121t65 -130t84 -123t102.5 -105.5t122.5 -71.5t143 -27.5zM209 204h358
q-115 151 -201 432l-149 -407z" />
    <glyph glyph-name="Ac.liga" unicode="Ac" horiz-adv-x="1293" 
d="M1030 254q62 1 100.5 29.5t72.5 83.5l45 -26q-17 -29 -42 -53t-54.5 -41t-63 -26.5t-68.5 -9.5q-44 0 -87.5 15t-79 43t-60.5 65q-42 63 -42 134t42 134q38 56 99 89.5t128 33.5q69 0 130.5 -35.5t97.5 -95.5l-45 -26q-34 56 -72.5 84.5t-100.5 29.5q-57 1 -101 -32
t-66 -88q-18 -44 -18 -94t18 -95q22 -55 66 -87.5t101 -31.5zM998 5q119 0 219 56l19 -34q-108 -61 -237 -61q-225 0 -396 194h-410l-10 -26l-41 -114l-5 -13h-118l9 26l247 675l5 12h112q4 -15 9 -35q14 -49 32 -101.5t48 -121t65 -130t84 -123t102.5 -105.5t122.5 -71.5
t143 -27.5zM209 204h358q-115 151 -201 432l-149 -407z" />
    <glyph glyph-name="CA.liga" unicode="CA" horiz-adv-x="1423" 
d="M493 47q57 9 107 40l32 -33q-92 -57 -200 -57q-102 0 -191.5 49.5t-143 135t-53.5 185.5q0 74 31.5 142.5t84.5 118t124 79t148 29.5q122 0 221 -72l-44 -45q-51 41 -113 59t-126 8q-81 -13 -136.5 -66.5t-76 -132.5t-3.5 -167q26 -134 121.5 -213t217.5 -60zM1394 33
l11 -25h-122l-5 12l-36 91l-29 73q-5 -2 -5 -3q-63 -20 -140 -21q-5 -1 -12 -1q-87 0 -176 32h-0.5h-1.5q-8 3 -18 8l-26 -64l-47 -115l-4 -12h-48l10 25l74 182q-8 3 -9 4q-23 10 -64 30q-35 17 -52.5 25t-50 21t-54 17.5t-53.5 8.5t-59.5 0.5t-62 -12t-70.5 -24.5l-24 38
q42 18 83 28.5t73.5 14t70 -1t62.5 -10t61 -19.5t55.5 -23t55.5 -26q36 -18 54 -26h1q0 -1 1 -1l169 419l18 42h95l5 -12l183 -461zM1193 221q1 0 6 3l-164 413l-154 -385l-4 -11q96 -38 194 -38q66 0 122 18z" />
    <glyph glyph-name="CH.liga" unicode="CH" horiz-adv-x="1491" 
d="M1395 724h15v-717h-109v282q0 2 -1 3.5t-3 2t-4 0.5q-36 -12 -52.5 -17t-48.5 -10.5t-64 -5.5h-6q-41 1 -80.5 6.5t-62 11t-63.5 16.5q-9 3 -14 4q-3 1 -5.5 -0.5t-2.5 -4.5v-288h-109v310q0 4 -5 5q-41 12 -65.5 17.5t-61.5 9.5t-68.5 0t-75 -15.5t-92.5 -31.5l-28 40
q65 27 118.5 40.5t101 13.5t83 -5.5t84.5 -18.5q4 -1 6.5 0.5t2.5 4.5v347h109v-369q0 -4 4 -5q8 -2 29.5 -8.5t30.5 -9t28 -7.5t31.5 -7t30.5 -5t36.5 -4t38.5 -1q34 -1 70.5 6t54 13t53.5 20v335l1 42h93zM493 53q57 9 107 40l32 -33q-92 -56 -200 -56q-102 0 -191.5 49
t-143 134.5t-53.5 185t53.5 185t143 135t191.5 49.5q122 0 221 -71l-44 -46q-51 41 -113 59t-126 8q-81 -12 -136.5 -66t-76 -133t-3.5 -167q26 -134 121.5 -213t217.5 -60z" />
    <glyph glyph-name="EA.liga" unicode="EA" horiz-adv-x="1336" 
d="M1307 35l11 -25h-119l-6 12l-55 136l-2 3l-376 -1l-2 -4l-34 -84q-2 -2 -5 -4q-17 -2 -44 -2q-1 2 -2.5 4t-3.5 4l246 608l17 40h96l6 -12zM784 218l329 1l-3 8l-173 388l-151 -389zM724 20q83 8 158 47l21 -35q-25 -12 -51 -23q-60 -22 -121 -29q-29 -3 -59 -3
q-68 0 -149 16h-1q-122 25 -180 25h-11q-29 0 -75.5 -6t-79.5 -11l-32 -6l-64 -10v694v43h68h410l-36 -58h-335v-288h360l-36 -57h-324v-270q92 12 144 12h1q54 0 104 -8q10 -2 99 -20q53 -10 95 -14q26 -2 49 -2t45 3z" />
    <glyph glyph-name="CF.liga" unicode="CF" horiz-adv-x="1294" 
d="M1264 677h-348v-283q0 -3 2.5 -4.5t6.5 -0.5q8 2 29 8t30.5 8.5t28 7t32 6.5t33 4t39.5 3l2 -46q-21 -1 -40.5 -3.5t-34 -5t-32.5 -7t-29 -8t-30.5 -9.5t-31.5 -9q-5 -1 -5 -6v-324h-111v303q0 2 -1.5 3.5t-3.5 2t-4 -0.5q-6 -1 -18.5 -4.5t-18 -5t-16 -4t-17 -4
t-16.5 -3t-18.5 -2t-19 -1t-21.5 -0.5q-114 0 -245 54l28 41q61 -26 111 -38t95.5 -10.5t77 7.5t82.5 21q5 1 5 5v308v41l97 -1h414zM493 53q57 9 107 40l32 -33q-92 -56 -200 -56q-102 0 -191.5 49t-143 134.5t-53.5 185t53.5 185t143 135t191.5 49.5q122 0 221 -71
l-44 -46q-51 41 -113 59t-125 8q-82 -12 -137.5 -66t-76 -133t-3.5 -167q26 -134 121.5 -213t217.5 -60z" />
    <glyph glyph-name="CE.liga" unicode="CE" horiz-adv-x="1308" 
d="M902 64h390l-45 -58h-453v306q0 3 -2.5 4.5t-5.5 1t-18.5 -5t-19 -5t-16 -4t-18 -4t-16.5 -2.5t-19 -2.5t-18.5 -1t-22.5 -0.5q-114 0 -244 54l27 42q48 -20 91 -30t73 -13t68.5 2t60 10t63.5 17q8 3 13 4h1t2 -1h0.5t0.5 1v300v43l498 -1l-45 -44h-345l2 -273
q0 -3 2.5 -5t5.5 -1q94 26 192 30l-36 -47q-31 -2 -53 -5t-33 -6t-33.5 -10.5t-39.5 -13.5q-5 -1 -5 -5zM493 53q57 9 107 40l32 -33q-92 -56 -200 -56q-102 0 -191.5 49t-143 134.5t-53.5 185t53.5 185t143 135t191.5 49.5q122 0 221 -71l-44 -46q-51 41 -113 59t-125 8
q-82 -12 -137.5 -66t-76 -133t-3.5 -167q26 -134 121.5 -213t217.5 -60z" />
    <glyph glyph-name="Cb.liga" unicode="Cb" horiz-adv-x="1418" 
d="M1228 374q61 -21 105.5 -70t44.5 -107q0 -77 -67 -133t-151 -56h-314v333q0 4 -4 5q-51 15 -83 21t-78 7.5t-96 -11t-112 -37.5l-27 39q130 55 245 55q11 0 21.5 -1t18.5 -1.5t19.5 -2.5t16.5 -2.5t17.5 -3.5t16 -4t19 -5t18.5 -5q7 -2 8 5v283v6.5v14v15.5v6h228
q90 0 160 -59t70 -139q0 -65 -79 -140q-4 -3 -3 -7t6 -6zM954 679v-305h120q59 0 91 43t32 110q0 42 -13.5 76t-41.5 55t-68 21h-120zM1160 58q54 0 83 39t29 99.5t-29 100t-83 39.5h-206v-278h206zM428 64q110 0 193 71l46 -40q-102 -88 -239 -88q-99 0 -188 47.5t-143 131
t-54 179.5q0 73 32 139.5t85 114.5t123.5 76.5t144.5 28.5q76 0 145 -29.5t120 -83.5l-50 -36q-42 44 -98 67.5t-117 23.5t-113 -23.5t-87.5 -64.5t-56 -96t-20.5 -117q0 -127 77.5 -214t199.5 -87z" />
    <glyph glyph-name="Eh.liga" unicode="Eh" horiz-adv-x="1390" 
d="M1200 724h110v-714h-110v282h-402v-213q-7 -2 -25.5 -3.5t-40 -3t-26.5 -1.5q-3 -1 -8 -1h-7v654h107v-375h402v375zM724 22q83 8 158 48l21 -35q-25 -13 -51 -23q-30 -11 -60 -18.5t-61 -10.5q-29 -3 -59 -3q-68 0 -149 15q0 1 -1 1q-122 25 -180 25h-11
q-29 -1 -75.5 -6.5t-79.5 -11.5l-32 -5l-64 -10v694v43h68h410l-36 -58h-335v-288h360l-36 -58h-324v-269q92 12 144 12h1q54 0 104 -8q10 -2 99 -20q53 -11 95 -14q26 -2 49 -2t45 2z" />
    <glyph glyph-name="En.liga" unicode="En" horiz-adv-x="1346" 
d="M1202 725h64v-713h-79l-434 540v-476l-30 -5h-8h-7q-4 -1 -10 -1h-8v614v41h67l2 -3l443 -552v555zM724 22q83 8 158 48l21 -35q-25 -13 -51 -23q-30 -11 -60 -18.5t-61 -10.5q-29 -3 -59 -3q-68 0 -149 15q0 1 -1 1q-122 25 -180 25h-11q-29 -1 -75.5 -6.5t-79.5 -11.5
l-32 -5l-64 -10v694v43h68h410l-36 -58h-335v-288h360l-36 -58h-324v-269q92 12 144 12h1q54 0 104 -8q10 -2 99 -20q53 -11 95 -14q26 -2 49 -2t45 2z" />
    <glyph glyph-name="GA.liga" unicode="GA" horiz-adv-x="1538" 
d="M1245 721l273 -713h-114l-69 167q-2 6 -8 4q-24 -8 -44 -11.5t-39.5 -5t-51.5 -2.5h-12q-87 0 -176 31q-6 2 -9 -3l-67 -180h-63l72 204q2 5 -3 7q-23 10 -64 30q-44 21 -68 32q-7 3 -9 -4q-25 -102 -101 -176l1 -1q-94 -92 -226 -104h-4h-4q-17 -1 -25 -1h-1
q-73 0 -140 27t-119 78v1q-131 128 -131 264q0 100 55 186t145 135.5t191 49.5q77 0 147 -30.5t123 -86.5l-50 -36q-29 30 -64 51.5t-75 32.5t-81 11q-82 0 -147.5 -49t-99.5 -126t-34 -164q0 -85 34.5 -150t98.5 -100.5t147 -36.5q72 1 134 37.5t96.5 97.5t31.5 130
q-108 21 -227 -31l-29 51q42 19 83 29t73.5 14t70 -1t62.5 -10t61 -19t55.5 -23t55.5 -27q34 -16 55 -26q6 -3 9 4l159 404l15 38zM1310 237q7 2 4 7l-146 380l-146 -371q-2 -6 4 -8q85 -29 164 -27q65 1 120 19z" />
    <glyph glyph-name="GH.liga" unicode="GH" horiz-adv-x="1603" 
d="M1413 726l110 -2v-716h-109l-1 266q-5 -1 -9 -3q-49 -17 -86.5 -22t-91.5 -5q-56 0 -100 7t-107 24l-8 2l1 -269h-109v296q-5 1 -9 2q-58 16 -94 24q-2 -57 -34.5 -124t-71.5 -105l1 -1q-94 -92 -225 -104h-4.5h-3.5q-17 -1 -26 -1h-1h-1h-2h-1h-1h-1q-73 0 -140 27
t-119 78l1 1q-57 55 -92.5 123t-35.5 141q0 100 54 186t143 135.5t190 49.5h1.5h2h1h1.5q77 0 147.5 -30.5t122.5 -86.5l-50 -36l-1 1l-1 1l-4 -2q-43 45 -99.5 69.5t-117.5 25.5q-81 -1 -145.5 -50t-98.5 -126t-34 -163q0 -19 3 -42q16 -90 70 -153.5t136 -83.5q1 0 4 -1
t5 -1q1 0 3.5 -0.5t3.5 -0.5q26 -4 53 -5q4 1 6 1h12q1 0 3.5 0.5t4.5 0.5t8 1q98 15 167 102.5t64 189.5q-133 12 -245 -42l-32 51q52 25 105 37.5t93.5 15.5t94.5 -5t87.5 -16t92.5 -25l9 -2l-1 325v39h98h12v-392q2 0 4 -1q43 -11 58.5 -15t51 -12t53.5 -9t49.5 -2t56 4
t57 13.5t66.5 22.5l4 2l2 347z" />
    <glyph glyph-name="GG.liga" unicode="GG" horiz-adv-x="1541" 
d="M1097 353h387v-328h-107l-0.5 1t-1.5 3.5t-2.5 5t-3.5 6t-3.5 5.5t-4 5t-4.5 4t-4.5 2t-3.5 -1q-44 -24 -78.5 -35t-79.5 -11q-132 0 -235.5 83t-126.5 211q-4 4 -9 4h-112v-283h-105l-0.5 1t-2 3.5t-2.5 5t-3 6t-3.5 5.5t-4 5t-4.5 4t-4.5 2t-4.5 -1q-43 -24 -78.5 -35
t-80.5 -11q-99 0 -183.5 48t-135 133.5t-50.5 188t50.5 188t135 133.5t183.5 48q77 0 147 -30.5t122 -86.5l-49 -37q-43 46 -100.5 71t-119.5 25q-120 0 -190 -87.5t-70 -224t70 -224t190 -87.5q53 0 94 18.5t86 58.5q6 5 6 13v150h-141l-24 45h387q-1 25 -1 26q0 78 30 147
t79.5 117.5t117.5 77t142 28.5q77 0 147 -30.5t122 -86.5l-49 -37q-44 46 -101 71t-119 25q-120 0 -191 -87.5t-71 -224t71 -224t191 -87.5q53 0 93.5 18.5t85.5 58.5q6 5 6 13v150h-246z" />
    <glyph glyph-name="HH.liga" unicode="HH" horiz-adv-x="1573" 
d="M1385 719h108v-715h-108v283v6h-373v-6v-97q0 -49 -34.5 -91t-89 -63t-110.5 -14q-73 8 -129 59t-56 114v98h-404v-289h-109v716h109h401v6h95h15v-6h204v6h92h-1h17v-6v-363v-6h373v368l-373 1zM590 351v333v36h-401v-369h401zM904 195v488v37h-204v-530q0 -52 30.5 -84
t84.5 -28q45 4 67 36.5t22 80.5z" />
    <glyph glyph-name="Ha.liga" unicode="Ha" horiz-adv-x="1469" 
d="M1375 82l34 -35q-106 -61 -229 -61q-76 0 -183 23q-92 20 -151 20q-120 0 -188 -22l-63 -21v306h-406v-281h-109v671v43h93h16v-388h406v347v41h95h15v-665q3 1 7 2q65 12 134 12q66 0 166 -21q99 -22 168 -22q103 0 195 51zM1124 222q-70 0 -133 34.5t-102 94t-39 128.5
q0 52 23 100t61 82.5t88 55t102 20.5q104 0 183 -73l29 56h56v-479h-82l-2 54q-79 -73 -184 -73zM1107 691q-79 -11 -124.5 -80.5t-35.5 -158.5q10 -88 69 -141.5t139 -43.5q61 8 101.5 54t51.5 113q6 36 1 73q-2 24 -9 47q-21 69 -73 107.5t-120 29.5z" />
    <glyph glyph-name="Hi.liga" unicode="Hi" horiz-adv-x="1199" 
d="M1164 79l21 -34q-98 -67 -195 -72q-32 -2 -124 14t-143 13q-76 -4 -127 -17v1h-1v306h-406v-281h-109v671v43h93h16v-388h406v347v41h95h15v-679h5t6.5 0.5t6.5 0.5q55 5 103 -2.5t88.5 -17t71.5 -8.5q57 3 97.5 19t80.5 43zM1051 728v-558h-110v515v43h94h16z" />
    <glyph glyph-name="Hu.liga" unicode="Hu" horiz-adv-x="1463" 
d="M1375 82l34 -35q-106 -61 -229 -61q-76 0 -183 23q-92 20 -151 20q-120 0 -188 -22l-63 -21v306h-406v-281h-109v671v43h93h16v-388h406v347v41h95h15v-665q4 1 7 2q66 12 134 12q66 0 166 -21q99 -22 168 -22q104 0 195 51zM1124 190q-66 0 -126.5 30.5t-98.5 83.5
t-38 114v267v43h110v-310q0 -36 10.5 -66.5t29.5 -53.5t48 -36.5t65 -13.5h28q36 0 69 13.5t57 36t38 54t14 66.5v267v43h64v-310q0 -95 -71 -161.5t-171 -66.5h-28z" />
    <glyph glyph-name="He.liga" unicode="He" horiz-adv-x="1451" 
d="M1375 82l34 -35q-106 -61 -229 -61q-76 0 -183 23q-92 20 -151 20q-120 0 -188 -22l-63 -21v306h-406v-281h-109v671v43h93h16v-388h406v347v41h95h15v-665q4 1 7 2q66 12 134 12q66 0 166 -21q99 -22 168 -22q104 0 195 51zM1128 204q-97 0 -175.5 67t-91.5 163
q-2 18 -2 32v13q4 67 43 125t99.5 90.5t126.5 32.5q101 0 179.5 -73t83.5 -176l0.5 -5t0.5 -7q0 -15 -2 -32h-94h-342q9 -80 56.5 -133t116.5 -53q110 0 179 105l43 -38q-90 -111 -221 -111zM1127 684q-73 0 -121.5 -59t-52.5 -146l345 -1q-4 88 -51 147t-120 59z" />
    <glyph glyph-name="Ho.liga" unicode="Ho" horiz-adv-x="1447" 
d="M1375 82l34 -35q-106 -61 -229 -61q-76 0 -183 23q-92 20 -151 20q-120 0 -188 -22l-63 -21v306h-406v-281h-109v671v43h93h16v-388h406v347v41h95h15v-665q3 1 7 2q66 12 134 12q66 0 166 -21q99 -22 168 -22q104 0 195 51zM1099.5 223q-72.5 0 -138.5 34t-107 94
t-41 129t41 129t107 94.5t138.5 34.5t137 -34.5t104 -94t39.5 -129t-39.5 -129t-104 -94t-137 -34.5zM1037.5 685q-76.5 -23 -109 -99t-6.5 -162q17 -56 54.5 -95.5t84.5 -53.5t100 1q76 23 106 98.5t4 162.5q-26 86 -91.5 128.5t-142 19.5z" />
    <glyph glyph-name="Hc.liga" unicode="Hc" horiz-adv-x="1443" 
d="M1375 82l34 -35q-106 -61 -229 -61q-76 0 -183 23q-92 20 -151 20q-120 0 -188 -22l-63 -21v306h-406v-281h-109v671v43h93h16v-388h406v347v41h95h15v-665q4 1 7 2q66 12 134 12q66 0 166 -21q99 -22 168 -22q104 0 195 51zM1141 217q-67 0 -128.5 33.5t-99.5 89.5
q-42 63 -42 134t42 134q25 37 61 64.5t79 43t88 15.5q69 0 130.5 -35.5t96.5 -94.5l-45 -26q-34 55 -72 83.5t-101 29.5q-56 1 -100 -32t-67 -87q-18 -45 -18 -95t18 -95q23 -54 67 -87t100 -32q63 1 101 29.5t72 83.5l45 -26q-23 -38 -58.5 -67.5t-79 -46t-89.5 -16.5z" />
    <glyph glyph-name="Hg.liga" unicode="Hg" horiz-adv-x="1454" 
d="M1134 203q-124 0 -199 73t-75 181.5t75 182t199 73.5q81 0 141 -33t93 -89l-83 -26q-21 48 -60 75.5t-92 27.5q-40 0 -73.5 -16.5t-56 -45t-35 -67t-12.5 -81.5q0 -90 48.5 -150.5t128.5 -60.5q67 0 111.5 43.5t57.5 114.5h-171v43h270q1 -12 0 -15q-4 -100 -77 -165
t-190 -65zM1375 82l34 -35q-106 -61 -229 -61q-76 0 -183 23q-92 20 -151 20q-120 0 -188 -22l-63 -21v306h-406v-281h-109v671v43h93h16v-388h406v347v41h95h15v-665q4 1 7 2q66 12 134 12q66 0 166 -21q99 -22 168 -22q104 0 195 51z" />
    <glyph glyph-name="Ki.liga" unicode="Ki" horiz-adv-x="1032" 
d="M845 725v-558h-110v515l1 42h93zM993 116l26 -27q-42 -40 -89 -62q-61 -29 -130 -33q-10 -1 -19 -1q-55 0 -103 9.5t-83 22.5t-67.5 35.5t-52.5 41.5t-41.5 47.5t-32 45t-25.5 43.5q-20 34 -71 155l-114 -122l-0.5 -1.5t-1.5 -2.5l1 -260h-110v716h93h16v-403l346 373
l28 30h8h15h17h7l-28 -31l-205 -221q-3 -2 -1 -6q43 -107 79 -179q30 -62 55 -95q32 -44 77 -79q43 -32 100 -52.5t110 -20.5h12q103 3 184 77z" />
    <glyph glyph-name="Kg.liga" unicode="Kg" horiz-adv-x="1233" 
d="M891 203q-124 0 -199 73t-75 181.5t75 182t199 73.5q81 0 141 -33t93 -89l-83 -26q-21 48 -60 75.5t-92 27.5q-80 0 -128.5 -60.5t-48.5 -150t48.5 -150t128.5 -60.5q67 0 111.5 43.5t57.5 114.5h-171v43h270q1 -12 0 -15q-4 -100 -77 -165t-190 -65zM1175 127l23 -37
q-51 -39 -109 -62q-75 -29 -162 -33h-24q-60 0 -114 6t-97.5 19t-79.5 27t-67 35.5t-53 38t-45 41.5t-35 39.5t-29 37.5q-30 39 -90 143l-5 -5l-97 -105l-0.5 -1.5t-1.5 -1.5l1 -260h-110v716h93v-1h16l1 -363q8 7 12 12l297 321l28 30h13.5h27h30.5h12l-28 -31l-217 -234
q56 -104 101 -174q25 -40 73 -89q43 -47 104 -83q123 -73 268 -71h15q140 5 249 85z" />
    <glyph glyph-name="KA.liga" unicode="KA" horiz-adv-x="1418" 
d="M1048 721q76 0 145 -39t112.5 -106.5t43.5 -145.5v-422h-111v19v257v6h-439v-6v-179q-20 -3 -58 6q-8 2 -16.5 4.5t-14.5 5t-11 5t-8 3.5l-2 2v299q0 78 43 145.5t112 106.5t146 39h58zM799 347h439v6v77v4.5v3.5q-3 94 -65.5 159.5t-149.5 65.5h-9q-87 0 -149.5 -65.5
t-65.5 -159.5v-3.5v-4.5v-77v-6zM797 40q104 3 185 77l37 -31q-42 -40 -89 -62q-61 -29 -130 -33q-10 -1 -19 -1q-43 0 -82 6t-69.5 14.5t-59 23t-49 28t-41.5 33.5t-34 35t-28 37t-23 35t-19 33q-20 34 -71 155l-114 -122l-0.5 -1.5t-1.5 -2.5l1 -260h-110v716h93h16
l1 -364l12 12l297 322l28 30h13.5h27h30.5h12l-28 -31l-205 -221q-3 -3 -1 -6q43 -106 78 -179q31 -62 56 -95q32 -45 77 -79q91 -69 198 -69h12z" />
    <glyph glyph-name="KU.liga" unicode="KU" horiz-adv-x="1297" 
d="M1193 723h43v-310q0 -94 -70.5 -160.5t-170.5 -66.5h-28q-66 0 -126.5 30t-98.5 83t-38 114v268v42h110v-310q0 -73 41 -121t112 -48h48q36 0 69 13.5t57 36t38 54t14 65.5v268v42zM926 38q140 5 249 85l22 -37q-50 -40 -108 -62q-75 -29 -162 -33q-12 -1 -24 -1
q-68 0 -129 9.5t-106 22.5t-86.5 35.5t-68 41.5t-55 47.5t-42 45t-33.5 43.5q-30 39 -90 143l-5 -5l-97 -105l-0.5 -1.5t-1.5 -2.5l1 -260h-110v716h93h16l1 -364l12 12l297 322l28 30h14h27h30h12l-28 -31l-217 -234q56 -104 101 -175q25 -39 73 -89q43 -46 104 -82
q123 -73 268 -72q8 0 15 1z" />
    <glyph glyph-name="Ka.liga" unicode="Ka" horiz-adv-x="1268" 
d="M926 206q-69 0 -132.5 34t-102.5 94t-39 129t39 129t102.5 94.5t132.5 34.5q104 0 183 -73l30 56h56v-479h-83l-1 54q-80 -73 -185 -73zM909 675q-79 -11 -124.5 -80.5t-35.5 -158.5q10 -88 69.5 -141.5t138.5 -43.5q61 8 101.5 54t51.5 112q6 37 2 74q-3 23 -10 47
q-21 69 -73 107t-120 30zM1175 123l22 -37q-50 -40 -108 -62q-75 -29 -162 -33q-12 -1 -24 -1q-54 0 -103 6t-87.5 14.5t-75.5 23t-63.5 28t-53.5 33.5t-44 35t-37 37t-30.5 35t-25.5 33q-30 38 -90 143l-5 -5v-1v1l-97 -105l-0.5 -1.5t-1.5 -2.5l1 -260h-110v716h93h16
l1 -364l12 12l297 322l28 30h14h27h30h12l-28 -31l-217 -234q56 -104 101 -175q25 -39 73 -89q43 -46 104 -82q123 -73 268 -72q8 0 15 1q140 5 249 85z" />
    <glyph glyph-name="KO.liga" unicode="KO" horiz-adv-x="1264" 
d="M933.5 206q-72.5 0 -138.5 34t-107 94t-41 129t41 129t107 94.5t138.5 34.5t137 -34.5t104 -94.5t39.5 -129t-39.5 -128.5t-104 -94t-137 -34.5zM871.5 668q-76.5 -23 -108.5 -99t-6 -162q25 -86 93.5 -129t144.5 -19q76 23 106 98.5t4 162.5q-26 86 -91.5 128.5
t-142 19.5zM926 38q140 5 249 85l23 -37q-51 -39 -109 -62q-75 -29 -162 -33q-12 -1 -24 -1q-68 0 -129 9.5t-106 22.5t-86.5 35.5t-68 41.5t-54.5 47.5t-42 45t-34 43.5q-30 39 -90 143l-5 -5l-97 -105l-0.5 -1.5t-1.5 -2.5l1 -260h-110v716h93h16l1 -364l12 12l297 322
l28 30h13.5h27h30.5h12l-28 -31l-217 -234q56 -104 101 -175q25 -40 72 -89q44 -46 105 -82q123 -73 268 -72q8 0 15 1z" />
    <glyph glyph-name="Ke.liga" unicode="Ke" horiz-adv-x="1238" 
d="M909 197q-97 0 -176 67t-91 164q-3 17 -3 31q0 2 0.5 4t0.5 5v4q6 102 86.5 175.5t182.5 73.5q101 0 179.5 -73t83.5 -176q0 -2 0.5 -6.5t0.5 -6.5q0 -14 -3 -32h-93l-342 1q9 -81 56.5 -134t116.5 -53q110 0 179 105l43 -38q-90 -111 -221 -111zM908 677
q-37 0 -68.5 -16t-54 -43.5t-36.5 -65.5t-16 -80h345q-3 87 -50 146t-120 59zM1175 123l23 -37q-51 -40 -109 -62q-75 -29 -162 -33q-12 -1 -24 -1q-68 0 -129 9.5t-106 22.5t-86.5 35.5t-68 41.5t-54.5 47.5t-42 45t-34 43.5q-30 39 -90 143l-5 -5l-97 -105l-0.5 -1.5
t-1.5 -2.5l1 -260h-110v716h93h16l1 -364l12 12l297 322l28 30h14h27h30h12l-28 -31l-217 -234q56 -104 101 -175q25 -39 73 -89q43 -46 104 -82q123 -73 268 -72q8 0 15 1q140 5 249 85z" />
    <glyph glyph-name="Kc.liga" unicode="Kc" horiz-adv-x="1225" 
d="M1175 127l23 -37q-51 -40 -109 -62q-75 -29 -162 -33q-12 -1 -24 -1q-60 0 -114 6.5t-97.5 19.5t-79.5 27t-67 35t-53 38t-45 42t-35 39.5t-29 37.5q-30 39 -90 143q-5 -5 -5 -6l-97 -104q0 -1 -0.5 -2t-1.5 -2l1 -260h-110v716h93h16l1 -364l12 12l297 322l28 30h13.5
h27h30.5h12l-28 -32l-217 -233q56 -104 101 -175q25 -40 72 -89q44 -46 105 -82q123 -73 268 -72q8 0 15 1q140 5 249 85zM899 212q-67 0 -128.5 33.5t-98.5 89.5q-43 63 -43 134t43 134q37 56 98.5 89.5t128.5 33.5q69 0 130.5 -35.5t97.5 -94.5l-46 -26q-34 55 -72 83.5
t-101 29.5q-56 1 -100 -32t-67 -87q-18 -45 -18 -95t18 -95q23 -54 67 -87t100 -32q63 1 101 29.5t72 83.5l46 -26q-36 -59 -97.5 -94.5t-130.5 -35.5z" />
    <glyph glyph-name="La.liga" unicode="La" horiz-adv-x="1066" 
d="M187 725v-670h511l-29 -44h-590v714h108zM1038 38l10 -25h-118l-5 13l-45 114l-10 26h-424l210 519l16 41h96l5 -12zM511 210h342l-9 25l-161 408l-169 -426z" />
    <glyph glyph-name="LA.liga" unicode="LA" horiz-adv-x="1166" 
d="M761 79q0 1 3 2l34 -27q-37 -25 -79 -41q-36 -13 -72 -18q-26 -4 -54 -4q-19 0 -39 2q-39 3 -89 14q-3 1 -24 6q-83 20 -129 20h-8q-50 0 -121.5 -7.5t-102.5 -19.5v32v645v42h108l1 -660q54 12 115 13h7q55 0 169 -29q45 -11 80 -13q20 -2 39 -2q21 0 39 2q63 8 123 43z
M1138 38l10 -25h-118l-5 13l-45 114l-11 26h-376l-11 -26l-14 -35l-5 -12h-48l11 25l229 567l16 41h97l4 -12zM611 210h342l-10 25l-160 408l-170 -426z" />
    <glyph glyph-name="lA.liga" unicode="lA" horiz-adv-x="1187" 
d="M1160 32l10 -26h-118l-5 13l-64 162h-3q-1 -1 -2 -1q-62 -20 -141 -22h-12q-86 0 -176 32q-9 3 -20 7l-71 -178l-5 -12h-48l1 1h-426v676v42h73h36v-660h340l60 148q-9 3 -10 4q-22 10 -63 30q-44 21 -67.5 31.5t-60.5 23t-71.5 16.5t-70.5 1v49q41 3 80 -2t80 -19.5
t66 -25.5t70 -33q36 -17 54 -25q0 -1 11 -5l170 419l16 41h96l5 -12zM961 225q1 0 3 1h1l-160 410l-158 -394q13 -5 14 -5l6 -3q83 -29 173 -26q72 1 121 17z" />
    <glyph glyph-name="LH.liga" unicode="LH" horiz-adv-x="1355" 
d="M188 726v-660h372l-39 -58h-442v676v42h72h37zM1260 724h15v-717h-109v291q-5 -2 -9 -3q-29 -10 -39.5 -13t-34.5 -9t-45 -8.5t-45 -2.5h-6q-18 0 -34.5 1.5t-29 2.5t-29 4t-25 4.5t-26 6t-23 6t-25.5 7t-25 7.5l-8 2v-296h-108v314q-2 1 -5 2q-51 14 -82.5 20t-77.5 7.5
t-96 -10.5t-111 -38l-28 39q44 18 83 30t73.5 17t63.5 6.5t60 -2t55 -8.5t57 -14l8 -2v356h108v-374q2 -1 4 -1q10 -3 29.5 -9t30 -9t27.5 -7.5t30.5 -6.5t30.5 -5t35.5 -4t38.5 -2q33 0 66.5 6t52.5 12.5t51 18.5q2 1 3 1t2 0.5l3 1.5v336v42h94z" />
    <glyph glyph-name="la.liga" unicode="la" horiz-adv-x="1234" 
d="M863 721q76 0 145.5 -39t112.5 -106.5t43 -145.5v-422h-111v19v257v6h-438v-6v-179q-21 -3 -59 6q-6 2 -11.5 3.5t-10.5 3.5l-10 4t-8.5 3.5t-6 2.5t-4.5 2l-1 1v299q0 78 43 145.5t112.5 106.5t145.5 39h58zM1053 347v6v77v5v3q-3 94 -65.5 159.5t-149.5 65.5h-8
q-87 0 -149.5 -65.5t-65.5 -159.5v-3v-5v-77v-6h438zM762 79q1 1 3 2l34 -27q-37 -25 -79 -41q-36 -13 -72 -18q-26 -4 -54 -4q-19 0 -39 2q-39 3 -89 14q-3 1 -24 6q-83 20 -129 20h-8q-118 -1 -224 -45v50v645l1 42h107l1 -660q54 12 115 13h7q55 0 169 -29q45 -11 80 -13
q20 -2 39 -2q21 0 39 2q63 8 123 43z" />
    <glyph glyph-name="LL.liga" unicode="LL" horiz-adv-x="833" 
d="M390 231l-37 12l-8 3v438v42h92h16v-458q56 -25 129 -25q84 0 157 49l39 -32q-91 -61 -196 -61q-65 0 -156 24q-26 6 -36 8zM773 82l38 -34q-96 -61 -206 -61q-68 0 -163 23q-80 20 -132 20q-31 0 -88.5 -5.5t-99.5 -10.5l-42 -5v675v42h94h16v-656v-6q68 12 120 12
q60 0 149 -22q87 -22 146 -22q89 0 168 50z" />
    <glyph glyph-name="ll.liga" unicode="ll" horiz-adv-x="796" 
d="M187 726v-669h585l-28 -45h-665v714h108zM772 218l-28 -44h-400v552h107v-508h321z" />
    <glyph glyph-name="Lu.liga" unicode="Lu" horiz-adv-x="950" 
d="M869 108l29 -46q-128 -73 -253 -73q-67 0 -171 22q-78 17 -140 19q-45 2 -127 -10.5t-127 -26.5v691v42h94h16v-658q82 16 144 16q56 0 151 -20q99 -21 160 -21q108 0 224 65zM606 186q-66 0 -126.5 30t-98.5 83t-38 114v268v42h110v-310q0 -73 41 -121t112 -48h28
q48 0 89 22.5t65 61.5t24 85v268v42h64v-310q0 -61 -32.5 -113.5t-88 -83t-121.5 -30.5h-28z" />
    <glyph glyph-name="Lo.liga" unicode="Lo" horiz-adv-x="948" 
d="M869 108l29 -46q-128 -73 -253 -73q-67 0 -171 22q-78 17 -140 19q-45 2 -127 -10.5t-127 -26.5v691v42h94h16v-658q82 16 144 16q56 0 151 -20q99 -21 160 -21q108 0 224 65zM614.5 206q-72.5 0 -138.5 34t-106.5 94t-40.5 129t40.5 129t106.5 94.5t139 34.5
t137.5 -34.5t103.5 -94.5t39 -129t-39 -128.5t-104 -94t-137.5 -34.5zM553 668q-76 -23 -108.5 -99t-6.5 -162t94 -129t145 -19q76 23 106 98.5t3 162.5q-26 86 -91.5 128.5t-141.5 19.5z" />
    <glyph glyph-name="Le.liga" unicode="Le" horiz-adv-x="942" 
d="M869 108l29 -46q-128 -73 -253 -73q-67 0 -171 22q-78 17 -140 19q-45 2 -127 -10.5t-127 -26.5v691v42h94h16v-658q82 16 144 16q56 0 151 -20q99 -21 160 -21q108 0 224 65zM621 197q-96 0 -175 67t-92 164q-2 17 -2 31v4t0.5 5t0.5 4q5 102 86 175.5t182 73.5
q102 0 180 -73t83 -176q1 -2 1 -4.5v-4.5v-4q0 -15 -2 -32h-93l-343 1q9 -81 56.5 -134t116.5 -53q110 0 179 105l44 -38q-90 -111 -222 -111zM620 677q-73 0 -121.5 -59t-52.5 -146h345q-4 87 -51 146t-120 59z" />
    <glyph glyph-name="Lc.liga" unicode="Lc" horiz-adv-x="925" 
d="M869 108l29 -46q-128 -73 -253 -73q-67 0 -171 22q-78 17 -140 19q-45 2 -127 -10.5t-127 -26.5v691v42h94h16v-658q82 16 144 16q56 0 151 -20q99 -21 160 -21q108 0 224 65zM602 212q-45 0 -88 15.5t-78.5 43t-60.5 64.5q-42 63 -42 134t42 134q37 56 98.5 89.5
t128.5 33.5q69 0 130.5 -35.5t97.5 -94.5l-46 -26q-33 55 -71.5 83.5t-100.5 29.5q-57 1 -101 -32t-66 -87q-18 -45 -18 -95t18 -95q22 -54 66 -87t101 -32q62 1 100.5 29.5t71.5 83.5l46 -26q-36 -59 -97.5 -94.5t-130.5 -35.5z" />
    <glyph glyph-name="Li.liga" unicode="Li" horiz-adv-x="706" 
d="M666 83l26 -36q-80 -61 -173 -61q-57 0 -137 23q-69 20 -113.5 20t-98.5 -8t-89 -20h-1v683v41h109v-663q33 12 79 12q51 0 125 -21q75 -22 126 -22q78 0 147 52zM558 726v-558h-110v515v43h93h17z" />
    <glyph glyph-name="li.liga" unicode="li" horiz-adv-x="716" 
d="M188 56h518l-29 -44h-597v714h108v-670zM558 726v-553h-110v510v43h93h17z" />
    <glyph glyph-name="Lg.liga" unicode="Lg" horiz-adv-x="962" 
d="M665 31q104 0 195 52l34 -36q-106 -61 -229 -61q-76 0 -183 23q-92 20 -151 20q-62 0 -139.5 -8.5t-110.5 -19.5l-1 683v41h109v-663q80 12 142 12q67 0 166 -21q99 -22 168 -22zM916 460v-15q-4 -99 -77 -164.5t-190 -65.5q-124 0 -199 73.5t-75 181.5q0 42 12 80.5
t35.5 70t56.5 55t76.5 36.5t93.5 13q80 0 140.5 -32.5t93.5 -89.5l-83 -25q-14 31 -35.5 54t-51.5 36t-65 13q-54 0 -94.5 -28.5t-62 -76t-21.5 -106.5q0 -89 49 -149.5t129 -60.5q67 0 111.5 43.5t57.5 113.5h-171v44z" />
    <glyph glyph-name="Ld.liga" unicode="Ld" horiz-adv-x="940" 
d="M860 83l34 -36q-106 -61 -229 -61q-76 0 -183 23q-92 20 -151 20q-62 0 -139.5 -8.5t-110.5 -19.5l-1 683v41h109v-663q80 12 142 12q67 0 166 -21q99 -22 168 -22q104 0 195 52zM572 176h-181v508v41h69h112q139 0 223.5 -73.5t84.5 -201.5q0 -122 -102 -208
q-78 -66 -206 -66zM501 681v-461h71q198 0 198 230.5t-198 230.5h-71z" />
    <glyph glyph-name="Lr.liga" unicode="Lr" horiz-adv-x="931" 
d="M860 83l34 -36q-106 -61 -229 -61q-76 0 -183 23q-92 20 -151 20q-62 0 -139.5 -8.5t-110.5 -19.5l-1 683v41h109v-663q80 12 142 12q67 0 166 -21q99 -22 168 -22q104 0 195 52zM423 176v17v490v42h70h115q95 0 171.5 -69.5t76.5 -156.5v-8q0 -97 -98 -157q-9 -6 -4 -15
l82 -143h-126l-73 121l-29 1h-75v-122h-110zM533 679v-335h75q43 0 75 22t47 58.5t15 82.5v9q0 34 -9 63.5t-26 52t-43 35t-59 12.5h-75z" />
    <glyph glyph-name="Lk.liga" unicode="Lk" horiz-adv-x="914" 
d="M860 83l34 -36q-106 -61 -229 -61q-76 0 -183 23q-92 20 -151 20q-62 0 -139.5 -8.5t-110.5 -19.5l-1 683v41h109v-663q80 12 142 12q67 0 166 -21q99 -22 168 -22q104 0 195 52zM496 379v-202h-110v505v7.5t0.5 14t0.5 15.5t-1 6h110l-1 -284l207 222l56 60l60 2
l-228 -245l265 -303h-138l-194 232z" />
    <glyph glyph-name="Lm.liga" unicode="Lm" horiz-adv-x="997" 
d="M665 31q104 0 195 52l34 -36q-106 -61 -229 -61q-76 0 -183 23q-92 20 -151 20q-62 0 -139.5 -8.5t-110.5 -19.5l-1 683v41h109v-663q80 12 142 12q67 0 166 -21q99 -22 168 -22zM438 539l-28 -362h-43l38 506l3 42h42h13l191 -348l189 346h54l41 -546h-109l-30 369
l-185 -326l-176 320v-1z" />
    <glyph glyph-name="Ln.liga" unicode="Ln" horiz-adv-x="939" 
d="M860 83l34 -36q-106 -61 -229 -61q-76 0 -183 23q-92 20 -151 20q-62 0 -139.5 -8.5t-110.5 -19.5l-1 683v41h109v-663q80 12 142 12q67 0 166 -21q99 -22 168 -22q104 0 195 52zM429 560v-383h-43v548h48h5l361 -386q0 -1 1 -0.5t1 1.5v345l1 40h43v-548h-55l-359 384
h-2t-1 -1z" />
    <glyph glyph-name="Lp.liga" unicode="Lp" horiz-adv-x="926" 
d="M860 83l34 -36q-106 -61 -229 -61q-76 0 -183 23q-92 20 -151 20q-62 0 -139.5 -8.5t-110.5 -19.5l-1 683v41h109v-663q80 12 142 12q67 0 166 -21q99 -22 168 -22q104 0 195 52zM426 174v509v42h182q96 0 170 -62t74 -147v-9q0 -56 -34.5 -104.5t-90.5 -76.5t-119 -28
h-73v-124h-109zM535 681v-339h73q65 0 101.5 46.5t36.5 118.5v10q0 34 -9.5 63.5t-26.5 52t-43.5 35.5t-58.5 13h-73z" />
    <glyph glyph-name="Lt.liga" unicode="Lt" horiz-adv-x="910" 
d="M860 83l34 -36q-106 -61 -229 -61q-76 0 -183 23q-92 20 -151 20q-62 0 -139.5 -8.5t-110.5 -19.5l-1 683v41h109v-663q80 12 142 12q67 0 166 -21q99 -22 168 -22q104 0 195 52zM553 681h-145l-23 44h465l-18 -44h-172v-506h-107v506z" />
    <glyph glyph-name="Lv.liga" unicode="Lv" horiz-adv-x="917" 
d="M860 83l34 -36q-106 -61 -229 -61q-76 0 -183 23q-92 20 -151 20q-62 0 -139.5 -8.5t-110.5 -19.5l-1 683v41h109v-663q80 12 142 12q67 0 166 -21q99 -22 168 -22q104 0 195 52zM553 177l-193 505l-16 43h115l181 -478l175 478h54l-209 -548h-107z" />
    <glyph glyph-name="Lx.liga" unicode="Lx" horiz-adv-x="916" 
d="M860 83l34 -36q-106 -61 -229 -61q-76 0 -183 23q-92 20 -151 20q-62 0 -139.5 -8.5t-110.5 -19.5l-1 683v41h109v-663q80 12 142 12q67 0 166 -21q99 -22 168 -22q104 0 195 52zM411 177l168 250l-172 295h129l111 -193l60 91l69 102h51l-69 -102l-88 -132l179 -311
h-124l-123 210l-140 -210h-51z" />
    <glyph glyph-name="Ly.liga" unicode="Ly" horiz-adv-x="910" 
d="M860 83l34 -36q-106 -61 -229 -61q-76 0 -183 23q-92 20 -151 20q-62 0 -139.5 -8.5t-110.5 -19.5l-1 683v41h109v-663q80 12 142 12q67 0 166 -21q99 -22 168 -22q104 0 195 52zM570 407l-159 276l-24 42h73h52l139 -246l145 246h46q-11 -20 -30 -53t-58.5 -102.5
t-65.5 -116t-25 -46.5v-232h-93v232z" />
    <glyph glyph-name="Lz.liga" unicode="Lz" horiz-adv-x="920" 
d="M860 83l34 -36q-106 -61 -229 -61q-76 0 -183 23q-92 20 -151 20q-62 0 -139.5 -8.5t-110.5 -19.5l-1 683v41h109v-663q80 12 142 12q67 0 166 -21q99 -22 168 -22q104 0 195 52zM848 220l-24 -44h-416v58l315 447h-315l24 44h404v-59l-315 -446h327z" />
    <glyph glyph-name="Na.liga" unicode="Na" horiz-adv-x="1509" 
d="M1383 703h56v-479h-83l-1 54q-80 -73 -185 -73q-69 0 -132.5 34t-102.5 94t-39 129t39 129t102.5 94.5t132.5 34.5q104 0 184 -73zM1354 416q6 37 2 74q-3 23 -10 47q-21 69 -73 107t-119 30q-79 -11 -124.5 -80.5t-35.5 -158.5q10 -88 69 -141.5t138 -43.5q61 8 102 54
t51 112zM1390 77q-2 0 34 -33q-106 -61 -229 -61q-76 0 -183 23q-92 20 -152 20q-73 0 -126 -8q-13 -2 -40 -9l-8 -2q-11 -3 -45 -13l-11 12l-506 544v-522v-19h-44v713h47l503 -539l20 -21v560h29h-1h16v-668l8 2q65 12 158 12q67 0 167 -21q99 -22 168 -22q104 0 195 52z
" />
    <glyph glyph-name="Nu.liga" unicode="Nu" horiz-adv-x="1479" 
d="M1390 77q-2 0 34 -33q-106 -61 -229 -61q-76 0 -183 23q-92 20 -152 20q-73 0 -126 -8q-12 -2 -40 -9l-8 -2q-11 -3 -45 -13l-11 12l-506 544v-522v-19h-44v713h47l503 -539l20 -21v560h29h-1h16v-668l8 2q65 12 158 12q67 0 167 -21q99 -22 168 -22q104 0 195 52z
M1140 184q-49 0 -97 18.5t-84.5 48.5t-59 72.5t-22.5 88.5v268l1 42h109v-310q0 -73 41 -121.5t112 -48.5h28q37 0 69.5 13.5t56.5 36.5t38 54t14 66v267v43h64v-310q0 -94 -71 -161t-170 -67h-29z" />
    <glyph glyph-name="Ne.liga" unicode="Ne" horiz-adv-x="1456" 
d="M1116 204q-97 0 -175.5 67t-91.5 163q-3 18 -3 32l1 13q4 67 43 125t99.5 90.5t126.5 32.5t125.5 -33t97 -90.5t40.5 -125.5l0.5 -5t0.5 -7q0 -15 -3 -32h-93h-342q9 -80 56.5 -133t116.5 -53q110 0 179 105l43 -38q-90 -111 -221 -111zM1115 684q-73 0 -122 -59
t-52 -146l345 -1q-3 58 -24.5 104t-60 74t-86.5 28zM1390 77q-2 0 34 -33q-106 -61 -229 -61q-76 0 -183 23q-92 20 -152 20q-73 0 -126 -8q-13 -2 -40 -9l-8 -2q-11 -3 -45 -13l-11 12l-506 544v-522v-19h-44v713h47l503 -539l20 -21v560h29h-1h16v-668l8 2q65 12 158 12
q67 0 167 -21q99 -22 168 -22q104 0 195 52z" />
    <glyph glyph-name="No.liga" unicode="No" horiz-adv-x="1456" 
d="M1096 200q-54 0 -106.5 20.5t-92 55t-63.5 82.5t-24 100q0 69 40.5 128.5t106.5 94t138.5 34.5t137.5 -34.5t104 -94t39 -129t-39 -129t-104 -94t-137 -34.5zM1034 662q-76 -23 -108.5 -99t-6.5 -162q26 -85 94 -128t145 -20q75 23 105.5 99t3.5 162q-26 86 -91.5 128.5
t-141.5 19.5zM1390 77q-2 0 34 -33q-106 -61 -229 -61q-76 0 -183 23q-92 20 -152 20q-73 0 -126 -8q-13 -2 -40 -9l-8 -2q-11 -3 -45 -13l-11 12l-506 544v-522v-19h-44v713h47l503 -539l20 -21v560h29h-1h16v-668l8 2q65 12 158 12q67 0 167 -21q99 -22 168 -22
q104 0 195 52z" />
    <glyph glyph-name="Nc.liga" unicode="Nc" horiz-adv-x="1444" 
d="M1101 210q-44 0 -87.5 15.5t-79 43.5t-60.5 65q-42 63 -42 134t42 133q38 57 99 90.5t128 33.5q35 0 68.5 -9.5t63 -26.5t54 -41.5t42.5 -53.5l-45 -26q-34 55 -72.5 84t-100.5 30q-57 1 -101 -32t-66 -88q-18 -44 -18 -94t18 -95q22 -55 66 -88t101 -32q62 2 100.5 30.5
t72.5 83.5l45 -26q-36 -59 -97.5 -95t-130.5 -36zM1390 77q-2 0 34 -33q-106 -61 -229 -61q-76 0 -183 23q-92 20 -152 20q-73 0 -126 -8q-13 -2 -40 -9l-8 -2q-10 -3 -45 -13l-11 12l-506 544v-522v-19h-44v713h47l503 -539l20 -21v560h29h-1h16v-668l2 1q4 0 6 1
q65 12 158 12q67 0 167 -21q99 -22 168 -22q104 0 195 52z" />
    <glyph glyph-name="Ng.liga" unicode="Ng" horiz-adv-x="1460" 
d="M1122 211q-124 0 -199 73.5t-75 182t75 181.5t199 73q81 0 141 -32.5t93 -89.5l-83 -25q-21 48 -60 75.5t-92 27.5q-80 0 -128.5 -60.5t-48.5 -150.5q0 -34 7.5 -66t23 -58t37 -45.5t49.5 -30t60 -10.5q67 0 111.5 43.5t57.5 113.5l-170 1v43l270 -1v-15
q-5 -99 -78 -164.5t-190 -65.5zM1390 77q-2 0 34 -33q-106 -61 -229 -61q-76 0 -183 23q-92 20 -152 20q-73 0 -126 -8q-13 -2 -40 -9l-8 -2q-10 -3 -45 -13l-11 12l-506 544v-522v-19h-44v713h47l503 -539l20 -21v560h29h-1h16v-668l2 1q4 0 6 1q65 12 158 12q67 0 167 -21
q99 -22 168 -22q104 0 195 52z" />
    <glyph glyph-name="NN.liga" unicode="NN" horiz-adv-x="1343" 
d="M1220 724h44v-714h-66l-504 542l-1 -522v-20h-66l-504 542v-522v-20h-44v714h47l523 -561v561h47l524 -561v561z" />
    <glyph glyph-name="Qo.liga" unicode="Qo" horiz-adv-x="1462" 
d="M1135 210q-72 0 -138 34.5t-107 94.5t-41 129t41 128.5t107 94t138.5 34.5t137 -34.5t104 -94t39.5 -128.5q0 -52 -23.5 -100t-62 -82.5t-89.5 -55t-106 -20.5zM1073 672q-76 -23 -108.5 -99t-5.5 -162q25 -85 93.5 -128t144.5 -20t106 98.5t4 162.5q-17 56 -53 95.5
t-82 53.5t-99 -1zM1143 63q47 2 109.5 19t108.5 38l6 -35q-125 -67 -272 -69q-111 -2 -187.5 21t-199.5 93l-15 9q-47 -64 -122 -98t-162 -34q-70 0 -136.5 28.5t-116.5 77t-80.5 116t-30.5 141.5q0 97 51.5 181.5t135 133t177 48.5t176.5 -48.5t133.5 -133t50.5 -181.5
q0 -63 -35 -154q-2 -5 2 -7q24 -13 67 -38l21 -12q36 -22 55.5 -32.5t54 -26t62 -22.5t66 -12t81.5 -3zM644 258q17 52 17 112q0 89 -30.5 163t-89 118t-133 44t-133.5 -44t-90 -118t-31 -163.5t31 -163.5t90 -118t134 -44q63 0 109 32.5t85 94.5q2 4 -31 19.5t-89 27.5
t-103 3l-14 60q56 13 106 11.5t84.5 -10.5t78.5 -28q7 -3 9 4z" />
    <glyph glyph-name="Qu.liga" unicode="Qu" horiz-adv-x="1481" 
d="M1378 715h43v-310q0 -94 -71 -161t-170 -67h-29q-66 0 -126.5 30.5t-98 83.5t-37.5 114v268v42h109v-310q0 -48 17.5 -86t53 -61t82.5 -23h49q36 0 69 13.5t56.5 36t38 54t14.5 66.5v267v43zM1143 64q32 1 73.5 10t78.5 21t66 25l6 -34q-125 -68 -272 -70
q-111 -1 -187.5 21.5t-199.5 93.5l-15 9q-47 -65 -122 -99t-162 -34q-94 0 -177.5 48.5t-135 133t-51.5 182t51.5 181.5t135 132.5t177 48.5t176.5 -48.5t133.5 -132.5t50.5 -182q0 -63 -35 -154q-2 -4 2 -7q24 -12 67 -38l21 -12q46 -27 71 -40t66.5 -29.5t85 -22.5
t96.5 -3zM644 258q17 52 17 112q0 90 -30.5 163.5t-89 117.5t-133 44t-133.5 -43.5t-90 -117.5t-31 -164q0 -67 18.5 -126.5t51 -103.5t80.5 -69.5t105 -25.5q63 0 109 32.5t85 94.5q2 3 -31 19t-89 27.5t-103 2.5l-14 60q56 14 106 12t84.5 -10.5t78.5 -27.5q6 -4 9 3z" />
    <glyph glyph-name="Qe.liga" unicode="Qe" horiz-adv-x="1464" 
d="M1418 456h-93h-343q5 -39 19.5 -73.5t36.5 -59.5t52.5 -39t64.5 -14q110 0 179 104l44 -38q-90 -110 -222 -110q-96 0 -175 67t-92 163q-2 17 -2 31q0 1 1 14q5 102 86 175t182 73q102 0 180 -73t84 -176v-5.5v-7.5q0 -14 -2 -31zM981 501l345 -1q-2 57 -23.5 103.5
t-60 74t-87.5 27.5q-73 0 -121.5 -58.5t-52.5 -145.5zM1143 64q24 1 54.5 6.5t59.5 13.5t55.5 17.5t48.5 18.5l6 -34q-125 -68 -272 -70q-111 -1 -187.5 21.5t-199.5 93.5l-15 9q-47 -65 -122 -99t-162 -34q-94 0 -177.5 48.5t-135 133t-51.5 182t51.5 181.5t135 132.5
t177 48.5t176.5 -48.5t133.5 -132.5t50.5 -182q0 -63 -35 -154q-2 -4 2 -7q23 -12 67 -38l21 -12q46 -27 71 -40t66.5 -29.5t85 -22.5t96.5 -3zM644 258q17 52 17 112q0 90 -30.5 163.5t-89 117.5t-133 44t-133.5 -43.5t-90 -117.5t-31 -164t31 -163.5t90 -117.5t134 -44
q63 0 109 32.5t85 94.5q2 3 -31 19t-89 27.5t-103 2.5l-14 60q56 14 106 12t84.5 -10.5t78.5 -27.5q6 -3 9 3z" />
    <glyph glyph-name="Qc.liga" unicode="Qc" horiz-adv-x="1447" 
d="M1185 250q43 1 76.5 17t54 38.5t42.5 58.5l45 -26q-36 -59 -97.5 -95t-130.5 -36q-44 0 -87.5 15.5t-79 43.5t-60.5 65q-42 63 -42 134t42 134q25 36 60.5 64t79 43.5t87.5 15.5q69 0 130.5 -36t97.5 -95l-45 -26q-34 55 -72.5 84t-100.5 30q-57 1 -101 -32t-66 -88
q-18 -44 -18 -94t18 -95q22 -55 66 -88t101 -32zM1143 64q24 1 54.5 6.5t59.5 13.5t55.5 17.5t48.5 18.5l6 -34q-33 -18 -61.5 -30t-87 -25.5t-123.5 -14.5q-111 -1 -187.5 21.5t-199.5 93.5l-15 9q-47 -65 -122 -99t-162 -34q-94 0 -177.5 48.5t-135 133t-51.5 182
t51.5 181.5t135 132.5t177 48.5t176.5 -48.5t133.5 -132.5t50.5 -182q0 -63 -35 -154q-2 -4 2 -7q23 -12 67 -38l21 -12q46 -27 71 -40t66.5 -29.5t85 -22.5t96.5 -3zM644 258q17 52 17 112q0 90 -30.5 163.5t-89 117.5t-133 44t-133.5 -43.5t-90 -117.5t-31 -164t31 -163.5
t90 -117.5t134 -44q63 0 109 32.5t85 94.5q2 3 -31 19t-89 27.5t-103 2.5l-14 60q56 14 106 12t84.5 -10.5t78.5 -27.5q6 -3 9 3z" />
    <glyph glyph-name="Qa.liga" unicode="Qa" horiz-adv-x="1467" 
d="M1395 681v-478h-82l-2 54q-79 -74 -184 -74q-70 0 -133 34.5t-102 94.5t-39 129q0 51 23 99t61 82.5t88 55t102 20.5q104 0 183 -72l29 55h56zM1311 395q6 37 1 73q-2 24 -9 47q-14 46 -41.5 78.5t-67 48.5t-84.5 10q-79 -10 -124.5 -80t-35.5 -159q10 -88 69 -141.5
t139 -43.5q41 6 73.5 29.5t52.5 58.5t27 79zM1143 34q47 2 109.5 19t108.5 38l6 -34q-125 -68 -272 -70q-111 -1 -187.5 21.5t-199.5 93.5l-15 9q-31 -44 -76.5 -74t-98 -44.5t-109.5 -14.5q-70 0 -136.5 29t-116.5 77.5t-80.5 116t-30.5 140.5q0 98 51.5 182t135 132.5
t177 48.5t176.5 -48.5t133.5 -132.5t50.5 -182q0 -63 -35 -154q-2 -4 2 -7q24 -12 67 -38l21 -12q36 -21 55.5 -32t54 -26.5t62 -22.5t66 -11.5t81.5 -3.5zM644 229q17 52 17 112q0 90 -30.5 163.5t-89 117.5t-133 44t-133.5 -44t-90 -117.5t-31 -163.5t31 -163.5t90 -117.5
t134 -44q63 0 109 32t85 95q2 3 -31 19t-89 27.5t-103 2.5l-14 60q56 13 106 11.5t84.5 -10t78.5 -28.5q7 -3 9 4z" />
    <glyph glyph-name="Qi.liga" unicode="Qi" horiz-adv-x="1270" 
d="M1081 707v-558h-110v515l1 43h93h16zM1250 91l6 -34q-32 -19 -57 -31t-79 -25.5t-114 -13.5q-161 0 -313 124q-31 -44 -76.5 -74t-98 -44.5t-109.5 -14.5q-94 0 -177.5 48.5t-135 133t-51.5 182t51.5 181.5t135 132.5t177 48.5t176.5 -48.5t133.5 -132.5t50.5 -182
q0 -63 -35 -154q-2 -4 2 -7q3 -1 38.5 -28t73.5 -52t95.5 -46t106.5 -20q91 3 200 57zM644 229q17 52 17 112q0 90 -30.5 163.5t-89 117.5t-133 44t-133.5 -44t-90 -117.5t-31 -163.5q0 -67 18.5 -126.5t51 -103.5t80.5 -69.5t105 -25.5q63 0 109 32t85 95q2 3 -31 19
t-89 27.5t-103 2.5l-14 60q56 13 106 11.5t84.5 -10t78.5 -28.5q6 -3 9 4z" />
    <glyph glyph-name="Qg.liga" unicode="Qg" horiz-adv-x="1473" 
d="M1432 427v-15q-3 -65 -36 -117t-93.5 -82.5t-138.5 -30.5q-124 0 -199 73t-75 181.5t75 182t199 73.5q81 0 141 -33t93 -89l-83 -26q-21 48 -60 75.5t-92 27.5q-80 0 -128.5 -60.5t-48.5 -150t48.5 -150t128.5 -60.5q45 0 81 20.5t58 56t30 81.5h-170v43h270zM1143 34
q47 2 109.5 19t108.5 38l6 -34q-125 -68 -272 -70q-111 -1 -187.5 21.5t-199.5 93.5l-15 9q-47 -65 -122 -99t-162 -34q-70 0 -136.5 29t-116.5 77.5t-80.5 116t-30.5 140.5q0 98 51.5 182t135 132.5t177 48.5t176.5 -48.5t133.5 -132.5t50.5 -182q0 -63 -35 -154
q-2 -4 2 -7q24 -12 67 -38l21 -12q46 -27 71 -40t66.5 -29.5t85 -22.5t96.5 -4zM644 229q17 52 17 112q0 90 -30.5 163.5t-89 117.5t-133 44t-133.5 -44t-90 -117.5t-31 -163.5t31 -163.5t90 -117.5t134 -44q63 0 109 32t85 95q2 3 -31 19t-89 27.5t-103 2.5l-14 60
q56 13 106 11.5t84.5 -10t78.5 -28.5q7 -3 9 4z" />
    <glyph glyph-name="Ri.liga" unicode="Ri" horiz-adv-x="1133" 
d="M941 723v-558h-110v515v43h94h16zM1085 114l36 -33q-129 -90 -291 -90q-184 0 -307 58.5t-182 149.5l-11 -1h-143v-6v-180h-107v671v42l70 -1h180q79 0 149.5 -34.5t113.5 -95t43 -130.5v-5q0 -52 -27.5 -100.5t-70.5 -83.5t-95 -56q42 -63 140.5 -112.5t192.5 -63.5
q32 -4 65 -4q135 0 244 75zM330 240q90 0 142.5 62.5t52.5 156.5v5q0 61 -22.5 110.5t-67.5 79t-105 29.5h-143v-443h143z" />
    <glyph glyph-name="Ra.liga" unicode="Ra" horiz-adv-x="1442" 
d="M841 34q135 0 244 76l36 -34q-129 -90 -291 -90q-184 0 -307 58.5t-182 149.5h-11h-143v-6v-181h-107v672v41h70h180q79 0 149.5 -35t113.5 -95.5t43 -130.5v-4q0 -52 -27.5 -101t-70.5 -84t-95 -55q42 -64 140.5 -113.5t192.5 -62.5q32 -5 65 -5zM330 235
q90 0 142.5 62.5t52.5 156.5v5q0 62 -22.5 111t-67.5 79t-105 30h-143v-444h143zM1072 718q76 0 145.5 -39t112.5 -106.5t43 -145.5v-422h-111v19v257v5h-438v-5v-180q-21 -2 -59 7q-8 2 -16 4.5t-14.5 5t-11.5 5l-7 3.5l-3 2v299q0 78 43 145.5t112.5 106.5t145.5 39h58z
M824 344h438v6v77v4v4q-2 61 -31 113t-78 82t-106 30h-8q-87 0 -149.5 -65.5t-65.5 -159.5v-3.5v-4.5v-77v-6z" />
    <glyph glyph-name="RA.liga" unicode="RA" horiz-adv-x="1365" 
d="M1337 34l11 -26h-117l-6 13l-55 135l-1 4h-369l-1 -4l-28 -66q-5 -12 -20 -11q-12 1 -26 3q-6 2 -10.5 6t-6 9t0.5 11l233 573l17 40h93l5 -13zM824 218h320l-3 8l-163 384l-151 -384zM841 34q135 0 244 76l36 -34q-129 -90 -291 -90q-184 0 -307 58.5t-182 149.5h-11
h-143v-6v-181h-107v672v41h70h180q79 0 149.5 -35t113.5 -95.5t43 -130.5v-4q0 -52 -27.5 -101t-70.5 -84t-95 -55q28 -43 85.5 -81t122.5 -62.5t125 -32.5q32 -5 65 -5zM330 235q90 0 142.5 62.5t52.5 156.5v5q0 62 -22.5 111t-67.5 79t-105 30h-143v-444h143z" />
    <glyph glyph-name="RN.liga" unicode="RN" horiz-adv-x="1434" 
d="M841 34q135 0 244 76l36 -34q-129 -90 -291 -90q-184 0 -307 58.5t-182 149.5h-11h-143v-6v-181h-107v672v41h70h180q79 0 149.5 -35t113.5 -95.5t43 -130.5v-4q0 -52 -27.5 -101t-70.5 -84t-95 -55q42 -64 140.5 -113.5t192.5 -62.5q32 -5 65 -5zM330 235
q90 0 142.5 62.5t52.5 156.5v5q0 62 -22.5 111t-67.5 79t-105 30h-143v-444h143zM1311 721h43v-714h-66l-504 542v-405v-19h-44v596h47l524 -561v561z" />
    <glyph glyph-name="RM.liga" unicode="RM" horiz-adv-x="1565" 
d="M1391 721h94v-714l-97 1v617l-301 -547l-316 482v-451h-44v612h78l319 -484zM841 34q75 0 146 25l28 -39q-89 -34 -185 -34q-184 0 -307 58.5t-182 149.5h-11h-143v-6v-181h-107v672v41h70h180q79 0 149.5 -35t113.5 -95.5t43 -130.5v-4q0 -52 -27.5 -101t-70.5 -84
t-95 -55q42 -64 140.5 -113.5t192.5 -62.5q32 -5 65 -5zM330 235q90 0 142.5 62.5t52.5 156.5v5q0 62 -22.5 111t-67.5 79t-105 30h-143v-444h143z" />
    <glyph glyph-name="Ro.liga" unicode="Ro" horiz-adv-x="1375" 
d="M1045.5 210q-72.5 0 -138.5 34.5t-107 94.5t-41 129t41 128.5t107 94t138.5 34.5t137 -34.5t103.5 -94t39 -129t-39 -129t-103.5 -94t-137 -34.5zM983 672q-76 -23 -108.5 -99t-6.5 -162q26 -85 94.5 -128t144.5 -20t106 99t4 162t-92 128.5t-142 19.5zM1287 88
q1 1 3 -0.5t5 -4t6.5 -6t6.5 -7t5.5 -6.5t4.5 -4.5l2 -1.5q-103 -56 -227 -76q-70 -10 -155.5 -12.5t-154.5 7.5q-133 22 -246 82q-105 56 -177 137h-30h-142v-186h-108v671v42h69v-1h181q78 0 148.5 -34.5t114 -95t43.5 -130.5v-5q0 -70 -48.5 -131.5t-119.5 -96.5
q67 -72 158 -122q103 -55 225 -76q108 -20 224 -5.5t212 62.5zM330 238q90 0 143.5 62.5t53.5 156.5v5q0 94 -53.5 156.5t-143.5 62.5h-142v-7v-430v-6h142z" />
    <glyph glyph-name="Rg.liga" unicode="Rg" horiz-adv-x="1368" 
d="M1052 198q-124 0 -199 73.5t-75 182t75 181.5t199 73q81 0 141 -32.5t93 -89.5l-83 -25q-21 48 -60 75.5t-92 27.5q-80 0 -128.5 -60.5t-48.5 -150t48.5 -150t128.5 -60.5q45 0 81 20.5t57.5 55.5t30.5 81l-170 1v43l269 -1q1 -11 0 -15q-4 -99 -77 -164.5t-190 -65.5z
M1287 88q4 2 33 -30q-103 -56 -227 -76q-70 -10 -155.5 -12.5t-154.5 7.5q-133 22 -246 82q-105 56 -177 137h-30h-142v-186h-108v671v42h69v-1h181q78 0 148.5 -34.5t114 -95t43.5 -130.5v-5q0 -70 -48.5 -131.5t-119.5 -96.5q67 -72 157 -122q103 -55 226 -76
q108 -20 224 -5.5t212 62.5zM330 238q90 0 143.5 62.5t53.5 156.5v5q0 94 -53.5 156.5t-143.5 62.5h-142v-7v-430v-6h142z" />
    <glyph glyph-name="RU.liga" unicode="RU" horiz-adv-x="1376" 
d="M1039 186q-66 0 -127 30.5t-98.5 83.5t-37.5 114v267v43h110v-310q0 -73 40.5 -121.5t112.5 -48.5h48q36 0 69 13.5t57 36t38 54t14 66.5v267v43h43v-310q0 -95 -70.5 -161.5t-170.5 -66.5h-28zM1287 88q1 1 3 -0.5t5 -4t6.5 -6t6.5 -7t5.5 -6.5t4.5 -4.5l2 -1.5
q-103 -56 -227 -76q-70 -10 -155.5 -12.5t-154.5 7.5q-133 22 -246 82q-105 56 -177 137h-30h-142v-186h-108v671v42h69v-1h181q78 0 148.5 -34.5t114 -95t43.5 -130.5v-5q0 -70 -48.5 -131.5t-119.5 -96.5q67 -73 158 -122q103 -55 225 -76q108 -20 224 -5.5t212 62.5z
M330 238q90 0 143.5 62.5t53.5 156.5v5q0 94 -53.5 156.5t-143.5 62.5h-142v-7v-430v-6h142z" />
    <glyph glyph-name="Re.liga" unicode="Re" horiz-adv-x="1361" 
d="M1038 206q-97 0 -175.5 67.5t-91.5 163.5q-2 17 -2 31v4.5t0.5 5t0.5 3.5q5 103 86 176t182 73q102 0 180 -73t83 -176q0 -1 0.5 -5.5t0.5 -7.5q0 -14 -2 -32h-93l-343 1q9 -81 56.5 -134t116.5 -53q110 0 179 105l44 -38q-90 -111 -222 -111zM1037 686q-73 0 -121.5 -59
t-52.5 -146h345q-4 88 -51 146.5t-120 58.5zM1287 88q1 1 3 -0.5t5 -4t6.5 -6t6.5 -7t5.5 -6.5t4.5 -4.5l2 -1.5q-103 -56 -227 -76q-70 -10 -155.5 -12.5t-154.5 7.5q-133 22 -246 82q-105 56 -177 137h-30h-142v-186h-108v671v42h69v-1h181q78 0 148.5 -34.5t114 -95
t43.5 -130.5v-5q0 -70 -48.5 -131.5t-119.5 -96.5q67 -72 158 -122q103 -55 225 -76q108 -20 224 -5.5t212 62.5zM330 238q90 0 143.5 62.5t53.5 156.5v5q0 94 -53.5 156.5t-143.5 62.5h-142v-7v-430v-6h142z" />
    <glyph glyph-name="ra.liga" unicode="ra" horiz-adv-x="1368" 
d="M1008 184q-70 0 -133 34.5t-102.5 94.5t-39.5 129t39.5 128.5t102.5 94t133 34.5q103 0 183 -72l29 55h56v-478h-83l-1 54q-80 -74 -184 -74zM991 653q-79 -10 -124.5 -80t-35.5 -159q10 -88 69 -141.5t138 -42.5q62 8 102.5 53.5t50.5 112.5q6 36 2 73q-3 24 -10 48
q-21 69 -73 107t-119 29zM1288 88q1 1 3 -0.5t5 -4t6.5 -6t6.5 -7t5.5 -6.5t4.5 -4.5l2 -1.5q-103 -56 -227 -76q-70 -10 -155.5 -12.5t-154.5 7.5q-133 22 -246 82q-105 56 -177 137h-30h-142v-186h-108v671v42h69v-1h181q78 0 148.5 -34.5t114 -95t43.5 -130.5v-5
q0 -70 -48.5 -131.5t-119.5 -96.5q67 -73 158 -122q103 -55 225 -76q108 -20 224 -5.5t212 62.5zM331 238q90 0 143.5 62.5t53.5 156.5v5q0 94 -53.5 156.5t-143.5 62.5h-142v-7v-430v-6h142z" />
    <glyph glyph-name="Zo.liga" unicode="Zo" horiz-adv-x="1271" 
d="M940.5 208q-72.5 0 -138.5 34.5t-106.5 94t-40.5 129t40.5 129t106.5 94t138.5 34.5t137 -34.5t104 -94t39.5 -129t-39.5 -129t-104 -94t-137 -34.5zM879 670q-76 -23 -108.5 -99t-6.5 -162q26 -85 94 -128t145 -20q75 23 105 98.5t4 162.5q-26 86 -91.5 128.5
t-141.5 19.5zM1209 50l14 -38q-132 -66 -280 -66q-95 0 -191.5 14.5t-188.5 33t-152 23.5q-76 7 -173 -0.5t-155 -17.5l-59 -11v74l421 598l7 9h-365l-37 46h521v-67l-419 -593q10 2 27 5t67 10.5t98 11.5t110.5 3.5t112.5 -8.5q49 -8 185.5 -47t208.5 -39q131 0 248 59z
" />
    <glyph glyph-name="Zg.liga" unicode="Zg" horiz-adv-x="1254" 
d="M913 209q-124 0 -199.5 73.5t-75.5 181.5q0 53 19.5 99.5t54 81t87 54.5t114.5 20q80 0 140 -32.5t93 -89.5l-82 -25q-21 48 -60.5 75.5t-91.5 27.5q-81 0 -129.5 -60.5t-48.5 -150.5q0 -58 21 -105.5t62 -76t95 -28.5q44 0 80 20.5t58 55.5t30 81h-170v44l270 -1v-15
q-4 -99 -77.5 -164.5t-189.5 -65.5zM1209 49l14 -38q-132 -66 -280 -66q-95 0 -191.5 14.5t-188.5 33.5t-152 24q-76 6 -173 -1.5t-155 -17.5l-59 -10v73l421 598l7 9h-365l-37 46h521v-67l-419 -593q10 2 27 5.5t67 10.5t98 11t110.5 3.5t112.5 -8.5q49 -8 185.5 -47
t208.5 -39q131 0 248 59z" />
    <glyph glyph-name="Zu.liga" unicode="Zu" horiz-adv-x="1289" 
d="M1182 713h43v-310q0 -94 -70.5 -161t-170.5 -67h-28q-66 0 -127 30.5t-98.5 83.5t-37.5 114v268v42h110v-310q0 -48 17.5 -86t52.5 -61t83 -23h48q48 0 89 23t65 62t24 85v267v43zM961 -10q131 0 248 59l14 -38q-132 -66 -280 -66q-95 0 -191.5 14.5t-188.5 33.5t-152 24
q-76 6 -173 -1.5t-155 -17.5l-59 -10v73l421 598l7 9h-365l-37 46h521v-67l-419 -593q10 2 27 5.5t67 10.5t98 11t110.5 3.5t112.5 -8.5q49 -8 185.5 -47t208.5 -39z" />
    <glyph glyph-name="Ze.liga" unicode="Ze" horiz-adv-x="1258" 
d="M929 198q-97 0 -175.5 67t-91.5 163q-3 18 -3 32l1 13q4 67 43 124.5t99.5 90.5t126.5 33t125.5 -33t96.5 -90.5t41 -125.5v-3.5t0.5 -5t0.5 -3.5q0 -15 -3 -32h-93h-342q9 -80 56.5 -133t116.5 -53q110 0 179 104l43 -37q-90 -111 -221 -111zM928 677q-73 0 -122 -58.5
t-53 -145.5l346 -1q-4 88 -51 146.5t-120 58.5zM1209 49l14 -38q-132 -66 -280 -66q-95 0 -191.5 15t-188.5 33.5t-152 23.5q-76 6 -173 -1t-155 -18l-59 -10v73l421 598l7 9h-365l-37 46h521v-67l-419 -593q10 2 27 5.5t67 11t98 11.5t110.5 3.5t112.5 -9.5
q49 -8 185.5 -47t208.5 -39q131 0 248 59z" />
    <glyph glyph-name="Za.liga" unicode="Za" horiz-adv-x="1271" 
d="M915 208q-69 0 -132.5 34.5t-102.5 94t-39 128.5t39 129t102.5 94.5t132.5 34.5q104 0 184 -73l29 56h56v-479h-83l-1 54q-80 -73 -185 -73zM899 677q-79 -11 -124.5 -80.5t-35.5 -158.5q10 -88 69 -141.5t138 -43.5q61 8 102 54t51 113q6 36 2 73q-3 23 -10 47
q-21 69 -73 107.5t-119 29.5zM1209 49l14 -38q-132 -66 -280 -66q-95 0 -191.5 15t-188.5 33.5t-152 23.5q-76 6 -173 -1t-155 -18l-59 -10v73l421 598l7 9h-365l-37 46h521v-67l-419 -593q10 2 27 5.5t67 11t98 11.5t110.5 3.5t112.5 -9.5q49 -8 185.5 -47t208.5 -39
q131 0 248 59z" />
    <glyph glyph-name="Zc.liga" unicode="Zc" horiz-adv-x="1255" 
d="M955 205q-67 0 -128.5 34t-99.5 90q-42 62 -42 133.5t42 133.5q38 56 99.5 90t128.5 34q69 0 130.5 -36t96.5 -95l-45 -26q-34 55 -72 84t-101 30q-56 1 -100 -32t-67 -88q-18 -44 -18 -94.5t18 -94.5q23 -55 67 -88t100 -32q43 1 76.5 17t54 38.5t42.5 58.5l45 -26
q-35 -59 -96.5 -95t-130.5 -36zM1209 49l14 -38q-132 -66 -280 -66q-95 0 -191.5 14.5t-188.5 33.5t-152 24q-76 6 -173 -1.5t-155 -17.5l-59 -10v73l421 598l7 9h-365l-37 46h521v-67l-419 -593q10 2 27 5.5t67 10.5t98 11t110.5 3.5t112.5 -8.5q49 -8 185.5 -47t208.5 -39
q131 0 248 59z" />
    <glyph glyph-name="Zi.liga" unicode="Zi" horiz-adv-x="1079" 
d="M886 723v-558h-110v515v43h94h16zM1056 60l12 -38q-114 -66 -243 -66q-83 0 -167.5 14.5t-164.5 33t-132 23.5q-66 7 -150.5 -0.5t-135.5 -17.5l-51 -11v74l421 598l7 9h-365l-37 46h521v-67l-419 -593q8 2 21.5 5t54.5 10.5t80.5 11.5t92.5 3.5t96 -8.5q42 -8 161 -47
t182 -39q114 0 216 59z" />
    <glyph glyph-name="Zd.liga" unicode="Zd" horiz-adv-x="1294" 
d="M936 172h-181v509l-1 41h69h112q140 0 224.5 -73.5t84.5 -201.5q0 -123 -102 -209q-78 -66 -206 -66zM865 678v-461h70q198 0 198 230.5t-198 230.5h-70zM961 1q131 0 248 59l14 -38q-132 -66 -280 -66q-95 0 -191.5 14.5t-188.5 33t-152 23.5q-76 7 -173 -0.5
t-155 -17.5l-59 -11v74l421 598l7 9h-365l-37 46h521v-67l-419 -593q10 2 27 5t67 10.5t98 11.5t110.5 3.5t112.5 -8.5q49 -8 185.5 -47t208.5 -39z" />
    <glyph glyph-name="Zk.liga" unicode="Zk" horiz-adv-x="1249" 
d="M853 377v-202h-110v505q1 3 1 7.5v14v15.5t-1 5v1h110v-284l206 222l56 60l61 1l-229 -245l266 -302h-139l-193 231zM1209 60l14 -38q-132 -66 -280 -66q-95 0 -191.5 14.5t-188.5 33t-152 23.5q-76 7 -173 -0.5t-155 -17.5l-59 -11v74l421 598l7 9h-365l-37 46h521v-67
l-419 -593q10 2 27 5t67 10.5t98 11.5t110.5 3.5t112.5 -8.5q49 -8 185.5 -47t208.5 -39q131 0 248 59z" />
    <glyph glyph-name="Zn.liga" unicode="Zn" horiz-adv-x="1267" 
d="M756 557v-385h-43v549h48l369 -387v346v41h43v-549h-54zM1209 60l14 -38q-132 -66 -280 -66q-95 0 -191.5 14.5t-188.5 33t-152 23.5q-76 7 -173 -0.5t-155 -17.5l-59 -11v74l421 598l7 9h-365l-37 46h521v-67l-419 -593q10 2 27 5t67 10.5t98 11.5t110.5 3.5t112.5 -8.5
q49 -8 185.5 -47t208.5 -39q131 0 248 59z" />
    <glyph glyph-name="Zp.liga" unicode="Zp" horiz-adv-x="1265" 
d="M898 174h-109v509v42h182q97 0 171 -62t74 -147v-9q0 -85 -74 -147t-171 -62h-73v-124zM898 681v-339h73q65 0 101.5 46.5t36.5 118.5v10q0 71 -36.5 117.5t-101.5 46.5h-73zM1209 60l14 -38q-132 -66 -280 -66q-95 0 -191.5 14.5t-188.5 33t-152 23.5q-76 7 -173 -0.5
t-155 -17.5l-59 -11v74l421 598l7 9h-365l-37 46h521v-67l-419 -593q10 2 27 5t67 10.5t98 11.5t110.5 3.5t112.5 -8.5q49 -8 185.5 -47t208.5 -39q131 0 248 59z" />
    <glyph glyph-name="Zr.liga" unicode="Zr" horiz-adv-x="1251" 
d="M728 173v17v490v42h69h115q24 0 47.5 -5t45 -14t42 -22t37.5 -28.5t31 -34t24 -38t15.5 -41t5.5 -42.5v-9q0 -97 -97 -157q-10 -6 -4 -14l82 -144h-127l-72 122h-30h-74v-122h-110zM838 677v-336h74q44 0 75.5 22t47 58.5t15.5 82.5v10q0 70 -36.5 116.5t-101.5 46.5h-74
zM1209 60l14 -38q-132 -66 -280 -66q-95 0 -191.5 14.5t-188.5 33t-152 23.5q-76 7 -173 -0.5t-155 -17.5l-59 -11v74l421 598l7 9h-365l-37 46h521v-67l-419 -593q10 2 27 5t67 10.5t98 11.5t110.5 3.5t112.5 -8.5q49 -8 185.5 -47t208.5 -39q131 0 248 59z" />
    <glyph glyph-name="Zt.liga" unicode="Zt" horiz-adv-x="1241" 
d="M911 679h-145l-23 44h465l-19 -44h-172v-506h-106v506zM1209 60l14 -38q-132 -66 -280 -66q-95 0 -191.5 14.5t-188.5 33t-152 23.5q-76 7 -173 -0.5t-155 -17.5l-59 -11v74l421 598l7 9h-365l-37 46h521v-67l-419 -593q10 2 27 5t67 10.5t98 11.5t110.5 3.5t112.5 -8.5
q49 -8 185.5 -47t208.5 -39q131 0 248 59z" />
    <glyph glyph-name="Zv.liga" unicode="Zv" horiz-adv-x="1259" 
d="M923 175l-193 505l-16 43h115l181 -478l175 478h54l-209 -548h-107zM961 1q131 0 248 59l14 -38q-132 -66 -280 -66q-95 0 -191.5 14.5t-188.5 33t-152 23.5q-76 7 -173 -0.5t-155 -17.5l-59 -11v74l421 598l7 9h-365l-37 46h521v-67l-419 -593q10 2 27 5t67 10.5
t98 11.5t110.5 3.5t112.5 -8.5q49 -8 185.5 -47t208.5 -39z" />
    <glyph glyph-name="Zx.liga" unicode="Zx" horiz-adv-x="1236" 
d="M694 175l168 250l-172 295h129l111 -193l60 91l69 102h51l-69 -102l-88 -132l179 -311h-124l-123 209l-140 -209h-51zM1209 60l14 -38q-132 -66 -280 -66q-95 0 -191.5 14.5t-188.5 33t-152 23.5q-76 7 -173 -0.5t-155 -17.5l-59 -11v74l421 598l7 9h-365l-37 46h521v-67
l-419 -593q10 2 27 5t67 10.5t98 11.5t110.5 3.5t112.5 -8.5q49 -8 185.5 -47t208.5 -39q131 0 248 59z" />
    <glyph glyph-name="Zy.liga" unicode="Zy" horiz-adv-x="1238" 
d="M904 402l-160 276l-24 43h74h52l139 -246l145 246h46q-5 -9 -14 -24.5t-32.5 -57t-44.5 -78.5t-42.5 -75t-34 -61l-12.5 -23v-232h-92v232zM1209 60l14 -38q-132 -66 -280 -66q-95 0 -191.5 14.5t-188.5 33t-152 23.5q-76 7 -173 -0.5t-155 -17.5l-59 -11v74l421 598l7 9
h-365l-37 46h521v-67l-419 -593q10 2 27 5t67 10.5t98 11.5t110.5 3.5t112.5 -8.5q49 -8 185.5 -47t208.5 -39q131 0 248 59z" />
    <glyph glyph-name="Zz.liga" unicode="Zz" horiz-adv-x="1243" 
d="M1155 209l-24 -44h-416v58l315 447h-315l24 44h404v-58l-315 -447h327zM1209 60l14 -38q-132 -66 -280 -66q-95 0 -191.5 14.5t-188.5 33t-152 23.5q-76 7 -173 -0.5t-155 -17.5l-59 -11v74l421 598l7 9h-365l-37 46h521v-67l-419 -593q10 2 27 5t67 10.5t98 11.5
t110.5 3.5t112.5 -8.5q49 -8 185.5 -47t208.5 -39q131 0 248 59z" />
    <glyph glyph-name="laa.liga" unicode="laa" horiz-adv-x="976" 
d="M646 43q108 0 224 65l29 -46q-128 -73 -253 -73q-67 0 -171 22q-78 17 -140 19q-45 2 -127 -10.5t-127 -26.5v691v42h94h16v-658q82 16 144 16q56 0 151 -20q99 -21 160 -21zM847 704h56v-479h-83l-1 54q-80 -73 -185 -73q-69 0 -132.5 34t-102.5 94t-39 129t39 129
t102.5 94.5t132.5 34.5q104 0 183 -73zM818 417q6 37 2 74q-3 23 -10 47q-21 69 -73 107t-120 30q-52 -7 -91 -42t-57 -87t-12 -110q10 -88 69.5 -141.5t138.5 -43.5q61 8 101.5 54t51.5 112z" />
    <glyph glyph-name=".notdef" horiz-adv-x="527" 
d="M50 700h427v-700h-427v700zM78 680l185 -309l186 309h-371zM251 350l-180 300v-601zM264 329l-185 -308h370zM276 350l181 -303v605z" />
    <glyph glyph-name=".null" horiz-adv-x="0" 
 />
    <glyph glyph-name=".null" horiz-adv-x="0" 
 />
    <glyph glyph-name="nonmarkingreturn" horiz-adv-x="333" 
 />
    <glyph glyph-name="LF" unicode="&#xa;" horiz-adv-x="0" 
 />
    <glyph glyph-name="controlCR" unicode="&#xd;" horiz-adv-x="0" 
 />
    <glyph glyph-name="space" unicode=" " horiz-adv-x="463" 
 />
    <glyph glyph-name="exclam" unicode="!" horiz-adv-x="255" 
d="M127.5 -68q-20.5 0 -35.5 13.5t-15 32t15 31.5t35 13q10 0 19.5 -3.5t16 -9.5t10.5 -14t4 -18q0 -18 -14.5 -31.5t-35 -13.5zM74 668h107v-578h-107v578z" />
    <glyph glyph-name="quotedbl" unicode="&#x22;" horiz-adv-x="340" 
d="M45 640h63l-4 -231h-55zM231 640h63l-3 -231h-56z" />
    <glyph glyph-name="numbersign" unicode="#" horiz-adv-x="734" 
d="M685 383v-58h-154l-42 -230h145v-58h-156l-27 -148h-59l27 148h-170l-28 -148h-59l28 148h-143v58h153l43 230h-146v58h156l32 173h59l-32 -173h171l32 173h59l-32 -173h143zM430 95l42 230h-170l-43 -230h171z" />
    <glyph glyph-name="dollar" unicode="$" horiz-adv-x="602" 
d="M375 641q-10 2 -18 -3.5t-8 -14.5v-233q0 -12 12 -17q37 -15 63 -29.5t52 -36t39.5 -50.5t13.5 -65q0 -68 -46.5 -112.5t-117.5 -58.5q-16 -3 -16 -18v-80q0 -5 -2.5 -9t-7.5 -6.5t-10 -2.5h-24q-8 0 -14 5t-6 13v76q0 7 -5 12.5t-13 6.5q-77 8 -131.5 50t-76.5 110
q-3 7 1.5 14t13.5 9l23 4q8 2 14.5 -1.5t8.5 -10.5q34 -99 142 -116q9 -2 16 3.5t7 14.5v233q0 12 -12 17q-33 13 -55.5 23t-50 27t-43.5 34.5t-27.5 43t-11.5 55.5q0 25 10.5 52t31 53.5t57 46t83.5 25.5q8 0 13 5.5t5 11.5v86q0 8 6 13.5t14 5.5h24q8 0 14 -5.5t6 -13.5
v-88q0 -15 17 -18q117 -20 173 -119q4 -7 1 -14.5t-11 -11.5l-21 -8q-18 -6 -26 9q-36 63 -107 83zM285 432v195q0 9 -7.5 14.5t-17.5 3.5q-30 -6 -52.5 -20.5t-33 -29.5t-17 -32t-7.5 -24.5t-1 -10.5q0 -26 13 -46.5t35.5 -35t58.5 -30.5q10 -5 19.5 0.5t9.5 15.5zM379 300
q-10 6 -20 0.5t-10 -15.5v-184q0 -9 8.5 -14.5t18.5 -2.5q40 13 65 40.5t25 67.5q0 25 -10.5 44.5t-29 34.5t-47.5 29z" />
    <glyph glyph-name="percent" unicode="%" horiz-adv-x="822" 
d="M193 407h-1q-64 0 -104 40.5t-40 104.5q0 74 42 109.5t102 35.5h1q21 0 41.5 -5t39 -16t32.5 -27t22.5 -41t8.5 -56q0 -64 -40.5 -104.5t-103.5 -40.5zM112 552q0 -40 22 -63.5t58 -24.5q37 1 59 24.5t22 63.5q0 87 -81 87q-80 0 -80 -87zM629 314q27 0 52 -8t46 -24.5
t33.5 -45.5t12.5 -67q0 -42 -18 -75t-51 -51.5t-75 -18.5h-1q-63 0 -103.5 40.5t-40.5 104.5q0 74 42.5 109.5t101.5 35.5h1zM629 81q36 0 58 24t22 64q0 87 -80 87q-81 0 -81 -87q0 -26 10 -46t28 -31t43 -11zM574 813l59 -23l-392 -849l-59 22z" />
    <glyph glyph-name="ampersand" unicode="&#x26;" horiz-adv-x="801" 
d="M741 -58q27 -50 25 -103q0 -27 -8 -53q-9 -27 -25 -50q-17 -25 -43 -41q-12 -8 -28 -14q-17 -6 -31 -8q-5 -1 -16 -2h-15q-17 1 -33 5q-32 9 -54.5 32t-28.5 53q-6 31 10 59q7 15 20 25q14 11 31 16q15 4 33 4q14 -1 30 -4l-8 -38l-22 2q-10 0 -18 -3q-17 -5 -24 -20
q-8 -16 -4 -33.5t18 -30t32 -17.5q10 -2 20 -2h10q8 1 10 2q39 6 63 42q23 33 23 76q-1 41 -22 79q-20 35 -57 65q-28 23 -80 52q-18 11 -30 17q-25 -26 -55 -45q-25 -15 -54 -25q-30 -10 -59 -13q-30 -3 -59 -1q-31 2 -59 10q-59 15 -105 52q-48 40 -66 93q-19 57 2 113
q9 25 27 50q17 22 39 42q25 21 58 40q-4 11 -5 13q-20 52 -25 98q-2 16 -2 27l-0.5 2.5t0.5 4.5v7q0 7 1 14q4 26 15 53q12 27 30 49q9 11 21 21.5t25 18.5q27 16 61 22q17 3 32 3q16 1 33 -2q69 -10 110 -62q19 -25 26 -55t-1 -60q-6 -28 -23 -54q-15 -23 -38 -43
q-37 -33 -95 -60q-23 -11 -50 -21l-12 -4l-10 -4q5 -10 8 -15q8 -13 17 -26v15h451v-58h-139l-1 -2v-2q-3 -12 -6 -25q-7 -24 -16 -48q-12 -32 -29 -60l-9 -15q11 -6 16 -9q2 -1 3.5 -2t4 -2.5t3.5 -1.5q55 -33 88 -60q22 -18 39 -38q18 -21 30 -45zM227 516v-3v-1v-5
q0 -9 1 -21q5 -39 22 -84q0 -1 0.5 -2.5t0.5 -2.5q4 2 12 5l12 4q24 9 45 18q47 22 76 48q34 31 42 63q8 36 -14 64q-22 30 -62 36q-10 2 -19 1q-9 0 -20 -1q-11 -2 -18 -5q-9 -3 -17 -8q-32 -18 -49 -58q-8 -19 -11 -38q-1 -5 -1 -10zM423 61l33 23q-10 8 -22 15
q-10 6 -18 10q-12 7 -23 13l-11 8l-12 7q-42 30 -80 71q-34 37 -62 82q-3 6 -9 16q-21 -13 -37.5 -27t-28.5 -30q-13 -18 -19 -34q-14 -36 -1 -73q11 -35 45 -63q32 -26 76 -38q19 -5 44 -7q22 -2 44 1q45 4 81 26zM543 239q1 5 -2.5 9t-9.5 4h-191q5 -6 8 -10
q30 -33 64 -57l9 -6l10 -7l21 -12l42 -25q9 10 16 23q10 17 18 39q9 20 15 42z" />
    <glyph glyph-name="quotesingle" unicode="'" horiz-adv-x="154" 
d="M45 604h63l-4 -232h-55z" />
    <glyph glyph-name="parenleft" unicode="(" horiz-adv-x="309" 
d="M314 751q9 -14 -6 -24q-42 -27 -73 -61q-36 -39 -61 -91q-42 -93 -44 -213q-2 -60 6 -109q8 -57 27 -105q37 -96 117 -166q13 -11 2 -24l-2 -3q-5 -6 -13.5 -7t-15.5 3q-97 68 -144 178q-46 107 -40 235q2 67 14 117q1 7 8 30l4 14l5 14l5 15l6 14q10 22 13 28
q29 56 75 100q40 38 89 63q7 4 15.5 2t12.5 -9v-1z" />
    <glyph glyph-name="parenright" unicode=")" horiz-adv-x="309" 
d="M242 364q6 -128 -40 -235q-47 -110 -145 -178q-6 -4 -14.5 -3t-13.5 7l-2 3q-12 13 2 24q80 69 117 166q18 48 27 105q8 49 6 109q-3 120 -45 213q-24 52 -60 91q-31 34 -73 61q-15 10 -6 24v1q4 7 12 9t16 -2q49 -25 89 -63q45 -44 75 -100q3 -6 13 -28q0 -2 1.5 -4.5
t2.5 -5t2 -4.5l5 -14l5 -15l4 -14q6 -24 8 -29q11 -51 14 -118z" />
    <glyph glyph-name="asterisk" unicode="*" horiz-adv-x="445" 
d="M402 592q3 -7 -0.5 -14t-11.5 -10l-95 -32q-9 -3 -12 -11.5t2 -15.5l62 -83q5 -6 3.5 -13.5t-8.5 -11.5l-19 -12q-7 -5 -15.5 -3.5t-12.5 8.5l-55 73q-6 8 -16.5 8t-16.5 -8l-58 -74q-4 -6 -12.5 -7.5t-15.5 3.5l-19 12q-7 4 -8.5 11.5t3.5 13.5l60 77q6 8 3 16t-11 12
l-96 37q-7 3 -10.5 10t0.5 14l9 19q3 7 11 10t15 0l83 -32q10 -4 19 1t9 15l2 101q0 5 3 9.5t7.5 6.5t10.5 2h23q8 0 14 -5.5t6 -13.5l-2 -95q0 -9 8.5 -14.5t18.5 -2.5l88 29q5 2 10 1t9.5 -4t6.5 -8z" />
    <glyph glyph-name="plus" unicode="+" horiz-adv-x="565" 
d="M311 340h214v-58h-214v-153h-63v153h-208v58h208v154h63v-154z" />
    <glyph glyph-name="comma" unicode="," horiz-adv-x="142" 
d="M54 67h66l-1 -4l-66 -141h-66l1 4z" />
    <glyph glyph-name="hyphen" unicode="-" horiz-adv-x="312" 
d="M290 282h-268v58h268v-58z" />
    <glyph glyph-name="period" unicode="." horiz-adv-x="154" 
d="M77 96q10 0 19 -3.5t16 -9.5t10.5 -14t3.5 -18q0 -18 -14.5 -31.5t-35 -13.5t-35 13.5t-14.5 32t14.5 31.5t35.5 13z" />
    <glyph glyph-name="slash" unicode="/" horiz-adv-x="447" 
d="M395 725q11 0 17 -8.5t2 -17.5l-313 -676q-5 -11 -18 -11h-26q-11 0 -17 8t-1 17l312 676q5 12 19 12h25z" />
    <glyph glyph-name="zero" unicode="0" horiz-adv-x="728" 
d="M565 643q100 -122 100 -279q0 -140 -100 -268q-38 -49 -90 -75t-112 -27h-1q-124 1 -202 102q-98 125 -98 268q0 160 98 279q75 90 202 91h1q127 -1 202 -91zM363 52q95 0 144.5 84t49.5 228q0 153 -46.5 232.5t-147.5 79.5t-146.5 -79t-45.5 -233q0 -145 48.5 -228.5
t143.5 -83.5z" />
    <glyph glyph-name="one" unicode="1" horiz-adv-x="386" 
d="M36 644l271 90v-724h-110v621l-138 -41z" />
    <glyph glyph-name="two" unicode="2" horiz-adv-x="635" 
d="M201 153q-13 -30 -30 -83h375v-58h-492v29q1 57 36 134q12 26 42.5 54.5t56 45.5t74.5 47t64 40q92 60 110 94q20 39 17.5 81t-26.5 76q-43 62 -121 62q-20 0 -44 -9.5t-47 -27t-40 -48.5t-20 -69l-64 3q4 49 26 89.5t53.5 66t67 39t68.5 13.5q65 0 134.5 -24t98.5 -64
q32 -46 35.5 -103t-22.5 -109q-9 -17 -40.5 -36t-78 -42.5t-70.5 -38.5q-126 -82 -163 -162z" />
    <glyph glyph-name="three" unicode="3" horiz-adv-x="576" 
d="M403 361q45 -31 74.5 -77.5t29.5 -92.5q0 -78 -73 -135t-165 -57q-73 0 -135.5 47.5t-80.5 136.5l63 9q13 -66 56.5 -100.5t95.5 -34.5q61 0 94 38.5t33 95.5q0 17 -0.5 30t-3.5 29t-7.5 27.5t-13 23.5t-20 19.5t-29 13t-38.5 6.5h-22v58h22q113 5 113 145
q0 137 -128 137q-49 0 -91 -39q-37 -34 -41 -84l-64 1q5 73 59 123q28 26 65 41.5t72 15.5q104 0 171.5 -59.5t67.5 -135.5q0 -25 -14 -55.5t-38 -58t-53 -49.5q-5 -4 -4.5 -10t5.5 -9z" />
    <glyph glyph-name="four" unicode="4" horiz-adv-x="628" 
d="M496 722v-472h79v-58h-79v-182h-107v182h-344v71l316 451l6 8h129zM114 250h275l-1 395l-9 -13z" />
    <glyph glyph-name="five" unicode="5" horiz-adv-x="591" 
d="M279 494q101 0 177 -72t76 -174q0 -104 -77 -179.5t-176 -75.5q-74 0 -134.5 46t-86.5 119l61 16q20 -55 64 -89t96 -34q69 0 106.5 55.5t37.5 141.5q0 83 -37 135.5t-107 52.5q-31 0 -62 -12.5t-46 -25.5l-15 -12l-3 -4l-3 -6h-37h-42l7 23l86 323h16h303l-23 -57h-230
h-17l-48 -185q-2 -5 3 -8.5t10 -0.5q50 23 101 23z" />
    <glyph glyph-name="six" unicode="6" horiz-adv-x="586" 
d="M301 480q97 0 163.5 -67.5t66.5 -165.5q0 -100 -67.5 -170.5t-162.5 -70.5q-97 0 -168.5 66.5t-71.5 164.5v2v1q0 99 51.5 231t125.5 252h74q-85 -126 -133 -259q-1 -4 1 -7.5t5.5 -4t7.5 0.5q50 27 108 27zM301 64q69 0 117.5 53.5t48.5 129.5q0 48 -22 88.5t-60 63.5
t-84 23q-67 0 -101 -48.5t-34 -126.5q0 -80 34.5 -131.5t100.5 -51.5z" />
    <glyph glyph-name="seven" unicode="7" horiz-adv-x="528" 
d="M48 722h442v-109q-8 -5 -21 -15t-46.5 -45.5t-59.5 -77.5q-45 -76 -78.5 -195.5t-35.5 -266.5h-64q1 92 15.5 176.5t37 148.5t47.5 117t53.5 91.5t48 61t36.5 37.5q4 3 4 8t-4 8t-9 3h-390z" />
    <glyph glyph-name="eight" unicode="8" horiz-adv-x="597" 
d="M442 373q27 -18 46.5 -42.5t30.5 -54.5t11 -63q0 -85 -65 -145.5t-157 -60.5q-61 0 -117 27.5t-91.5 75.5t-35.5 103q0 46 31.5 87.5t78.5 72.5q2 2 2.5 3.5t-0.5 4t-2.5 4.5t-4.5 4.5t-5 4.5t-5 4.5t-5 3.5q-71 58 -71 148q0 78 68.5 133.5t156.5 55.5q86 0 145 -55
t59 -134q0 -90 -72 -148q-7 -6 -6.5 -14.5t8.5 -14.5zM308 681q-58 0 -87 -36t-29 -95q0 -39 12.5 -69.5t39.5 -49t64 -18.5q58 0 99 40t41 97q0 56 -40 93.5t-100 37.5zM308 65q65 0 111.5 43.5t46.5 104.5q0 60 -45.5 101t-112.5 41q-43 0 -74 -19t-46 -50.5t-15 -72.5
t15.5 -74.5t46.5 -53.5t73 -20z" />
    <glyph glyph-name="nine" unicode="9" horiz-adv-x="603" 
d="M544 490v-3q0 -98 -57 -225.5t-140 -253.5h-69q32 47 68.5 117t60.5 129q5 11 -5 19.5t-23 3.5q-42 -17 -90 -17q-49 0 -92.5 18t-75 48.5t-50 73.5t-18.5 90q0 98 69.5 168t166.5 70q65 0 123.5 -32t95 -87t36.5 -119zM289 318q70 0 107.5 48t37.5 124q0 78 -38 129
t-107 51q-71 0 -121.5 -53t-50.5 -127q0 -72 50 -122t122 -50z" />
    <glyph glyph-name="colon" unicode=":" horiz-adv-x="160" 
d="M79.5 250q-20.5 0 -35 13t-14.5 32t14.5 32t35 13t35 -13t14.5 -32t-14.5 -32t-35 -13zM79.5 -68q-20.5 0 -35 13.5t-14.5 32t14.5 31.5t35 13t35 -13t14.5 -31.5t-14.5 -32t-35 -13.5z" />
    <glyph glyph-name="semicolon" unicode=";" horiz-adv-x="154" 
d="M77.5 340q13.5 0 25 -6t18 -16.5t6.5 -22.5q0 -19 -14.5 -32t-35 -13t-35 13t-14.5 32q0 12 6.5 22.5t18 16.5t25 6zM-28 -151l66 141h66q-1 -3 -1 -4l-66 -140h-66z" />
    <glyph glyph-name="less" unicode="&#x3c;" horiz-adv-x="324" 
d="M272 184q6 -5 6 -12.5t-5 -13.5l-17 -15q-5 -6 -13.5 -6t-14.5 5l-183 157q-6 5 -6 13t6 14l183 153q6 5 14.5 4.5t14.5 -5.5l15 -16q6 -5 5.5 -12.5t-6.5 -12.5l-132 -112q-7 -5 -7 -13t6 -14z" />
    <glyph glyph-name="equal" unicode="=" horiz-adv-x="549" 
d="M517 330h-485v58h485v-58zM517 122h-485v57h485v-57z" />
    <glyph glyph-name="greater" unicode="&#x3e;" horiz-adv-x="324" 
d="M278 326q6 -6 6 -14t-6 -13l-183 -157q-6 -5 -14.5 -5t-13.5 6l-16 15q-6 6 -6 13.5t6 12.5l134 114q6 6 6 14t-6 13l-133 112q-6 5 -6.5 12.5t5.5 12.5l15 16q6 5 14.5 5.5t14.5 -4.5z" />
    <glyph glyph-name="question" unicode="?" horiz-adv-x="568" 
d="M250.5 22q20.5 0 35 -13t14.5 -31.5t-14.5 -32t-34.5 -13.5q-14 0 -25.5 6t-18 16.5t-6.5 22.5q0 19 14.5 32t35 13zM448 596q68 -65 68 -162q0 -17 -5 -33.5t-11 -29.5t-19 -28.5t-22 -25t-27 -24.5t-26.5 -21t-28.5 -21t-25 -19q-18 -13 -27 -20t-22.5 -18.5t-19.5 -20
t-6 -14.5v-93h-64v93q0 16 7 31t23.5 31t29 26t38.5 29q99 74 99 158q0 76 -37.5 122.5t-108.5 46.5q-53 0 -103 -38.5t-59 -84.5l-64 5q11 69 79 122.5t147 53.5q50 0 101 -17.5t83 -47.5z" />
    <glyph glyph-name="at" unicode="@" horiz-adv-x="957" 
d="M788 505q53 -45 81.5 -104.5t28.5 -125.5q0 -90 -43 -165q-13 -22 -34 -38.5t-47 -25.5t-54 -9q-43 0 -78.5 19t-55.5 51q-2 3 -4 7q-1 3 -2 3t-6 -4q-46 -30 -103 -30h-3q-48 0 -88.5 21.5t-64 58t-23.5 79.5v2q0 66 51.5 112.5t124.5 46.5h3q44 0 83 -19q9 -2 10.5 0
t1.5 13v3v23h80v-245q0 -36 18.5 -59.5t53.5 -24.5q26 0 47.5 11.5t33.5 31.5q35 62 35 138q0 111 -90 188q-52 45 -125.5 67t-155.5 18h-1q-89 0 -168 -42t-125.5 -112t-46.5 -149v-4q0 -80 43.5 -148t118.5 -107.5t164 -39.5h8q87 0 161 38l34 -49q-91 -47 -195 -47h-8
q-106 0 -196 47.5t-142 128.5t-52 177v4q0 46 14 91.5t41.5 87t65.5 75.5q57 50 131 78t151 28q94 5 179.5 -21t147.5 -79zM585 242v2q0 50 -29 84t-77 34h-3q-33 0 -60.5 -15.5t-43.5 -43t-16 -59.5v-2q0 -49 35 -83.5t85 -34.5h3q24 0 44.5 9.5t33.5 25.5t20.5 37.5
t7.5 45.5z" />
    <glyph glyph-name="A" unicode="A" 
d="M672 33l9 -25h-118l-5 12l-44 115l-11 26h-376l-11 -26l-46 -115l-5 -12h-48l10 25l262 646l16 41h96l5 -12zM145 205h341l-9 25l-160 407l-170 -425z" />
    <glyph glyph-name="B" unicode="B" horiz-adv-x="722" 
d="M532 374q62 -21 106.5 -70t44.5 -108q0 -76 -67 -132t-152 -56h-385v717h300q89 0 159 -59t70 -140q0 -65 -79 -139l-9 -9q10 -3 12 -4zM190 681v-294v-6h189q58 0 89.5 42.5t31.5 107.5t-31.5 107.5t-89.5 42.5h-189zM433 47q57 0 99 43.5t42 104t-42 104t-99 43.5h-243
v-295h243z" />
    <glyph glyph-name="C" unicode="C" horiz-adv-x="676" 
d="M494 47q57 9 106 40l32 -33q-92 -57 -200 -57q-102 0 -191.5 49.5t-143 135t-53.5 185t53.5 185t143 135t191.5 49.5q122 0 221 -72l-44 -45q-51 41 -113 59t-125 8q-81 -13 -137 -66.5t-76.5 -132.5t-3.5 -167q26 -134 121.5 -213t218.5 -60z" />
    <glyph glyph-name="D" unicode="D" horiz-adv-x="733" 
d="M298 722q176 0 282 -95.5t106 -261.5q0 -162 -126 -272q-99 -85 -262 -85h-219v671v3.5t-0.5 8t-0.5 10.5v10.5t0.5 8l0.5 2.5h219zM298 47q279 0 279 318q0 79 -18.5 138.5t-46.5 93t-67 53.5t-73.5 26.5t-73.5 6.5h-113v-636h113z" />
    <glyph glyph-name="E" unicode="E" horiz-adv-x="604" 
d="M186 271v-217h385l-35 -46h-457v713h25h476l-44 -44h-350v-205v-34h380l-35 -44h-345v-54h-1v-69h1z" />
    <glyph glyph-name="F" unicode="F" horiz-adv-x="591" 
d="M564 679h-382v-32v-285h228q-2 -3 -5.5 -7.5t-10.5 -14.5t-12 -16l-5 -6h-195v-310h-103v715h23h518z" />
    <glyph glyph-name="G" unicode="G" horiz-adv-x="759" 
d="M434 362h267v-350h-109v23v38q-30 -35 -77 -55.5t-105 -20.5q-96 0 -179 45.5t-133.5 127.5t-50.5 181q0 88 29.5 162t80 122t116 74.5t137.5 26.5q75 0 142.5 -33t115.5 -92l-50 -39q-50 64 -120.5 95t-144.5 19t-122 -63t-65.5 -121t-8.5 -151q9 -88 53 -162t113 -114
t143 -28q44 7 80 34t46 56v181h-138z" />
    <glyph glyph-name="H" unicode="H" horiz-adv-x="780" 
d="M686 722h15v-714h-109v295h-403v-295h-110v672v42h94h16v-375h403v18v316l-1 41h95z" />
    <glyph glyph-name="I" unicode="I" horiz-adv-x="267" 
d="M148 721h40v-713h-109v671v42h69z" />
    <glyph glyph-name="J" unicode="J" horiz-adv-x="525" 
d="M347 722h107v-474q0 -73 -33.5 -129.5t-91.5 -87t-130 -30.5q-55 0 -104 21.5t-83 59.5l40 32q60 -69 147 -69q24 0 43.5 4.5t34 10.5t26 18t18.5 21t12.5 24.5t8 24.5t4 26t1.5 23v21.5v15.5v488z" />
    <glyph glyph-name="K" unicode="K" horiz-adv-x="704" 
d="M321 411l373 -403h-147l-285 308l-13 15l-61 -69v-254h-109v670v43h70h39v-388l333 357l28 31h32h-1h30l-28 -30z" />
    <glyph glyph-name="L" unicode="L" horiz-adv-x="561" 
d="M187 722v-670h368q-38 -43 -39 -44h-437v671v43h68h40z" />
    <glyph glyph-name="M" unicode="M" horiz-adv-x="916" 
d="M742 721h95v-713h-98v617l-300 -546l-316 482v-553h-44v713h78l318 -484z" />
    <glyph glyph-name="N" unicode="N" horiz-adv-x="772" 
d="M649 721h44v-713h-66l-504 541v-522v-19h-44v713h47l523 -560v560z" />
    <glyph glyph-name="O" unicode="O" horiz-adv-x="818" 
d="M408 736q94 0 178.5 -49.5t135.5 -135t51 -184.5t-51 -185t-135.5 -135t-178.5 -49q-71 0 -137.5 29t-116 78.5t-79.5 118t-30 143t30 143.5t79.5 118t116 78.5t137.5 29.5zM465 47q74 13 125.5 68.5t70.5 136t3 168.5q-24 133 -111.5 209t-201.5 57q-74 -12 -124.5 -66
t-68.5 -132.5t-2 -167.5q24 -134 110 -213t199 -60z" />
    <glyph glyph-name="P" unicode="P" horiz-adv-x="709" 
d="M359 723q80 0 152 -35.5t116 -97.5t44 -134v-7q0 -54 -26 -104t-69 -85.5t-100 -56.5t-117 -21h-170v-174h-110v715h280zM562 448v9q0 94 -55 157.5t-148 63.5h-170v-20v-411v-20h170q93 0 148 63.5t55 157.5z" />
    <glyph glyph-name="Q" unicode="Q" horiz-adv-x="828" 
d="M781 60l3 -57q-9 0 -35.5 3t-73 17t-68.5 36q-89 -71 -199 -71q-70 0 -136 29.5t-115.5 79.5t-80 119.5t-30.5 145t30.5 145.5t80 119.5t115.5 79.5t136 30q93 0 174 -50t129.5 -136.5t48.5 -187.5q0 -126 -96 -247q-6 -7 -4 -15t9 -13q45 -26 112 -27zM608 159
q25 42 35 82.5t10 97.5q0 94 -29 174t-85.5 131t-130.5 51t-133 -51t-90 -132t-31 -174q0 -138 70 -223.5t184 -85.5q81 0 149 52q12 9 6 23l-3 6q-49 126 -134 136l5 60q114 -12 177 -147z" />
    <glyph glyph-name="R" unicode="R" horiz-adv-x="720" 
d="M671 446q0 -49 -14 -92t-43 -78.5t-72 -58.5l-19 -10l113 -170l18 -29h-133l-6 9l-85 135q-18 28 -51 27h-19h-173v-19v-133v-19h-108v671v41h72h209q81 0 152.5 -35.5t115 -97.5t43.5 -133v-8zM360 214q93 0 147.5 66t54.5 165v9q0 65 -23.5 117t-70 83t-108.5 31h-173
v-471h173z" />
    <glyph glyph-name="S" unicode="S" horiz-adv-x="641" 
d="M354 402q38 -14 69 -28t65 -35t57 -44t38 -54t15 -66q0 -49 -24 -86t-64.5 -58t-87.5 -31.5t-99 -10.5q-106 0 -176 44t-91 128l69 14q32 -143 216 -143q67 0 114 37t47 95q0 19 -5.5 34t-20 28.5t-27 23t-40.5 21.5t-46 19t-56 20q-3 2 -5 2.5t-5 1.5t-5 2q-5 2 -14 5
q-31 11 -47 17t-44.5 18.5t-44.5 23t-36.5 27t-31 34t-18.5 40.5t-8 50q0 29 15.5 60.5t44.5 60.5t80.5 48t115.5 19q185 0 270 -131l-64 -24q-77 118 -204 118q-36 0 -65.5 -8.5t-47 -21.5t-30.5 -29.5t-17 -33t-6 -31t2 -24.5q3 -13 9.5 -24t13 -19.5t20.5 -17.5t23 -14.5
t30.5 -14t33 -13t40 -14.5t42.5 -15z" />
    <glyph glyph-name="T" unicode="T" horiz-adv-x="634" 
d="M-2 723h638l-15 -44h-250v-671h-108v671h-250z" />
    <glyph glyph-name="U" unicode="U" horiz-adv-x="748" 
d="M681 722l1 -429q0 -120 -87.5 -205t-210.5 -85q-81 0 -154.5 38.5t-118.5 106t-45 145.5l-1 389v2.5v6v7.5t0.5 8.5t0.5 8v5.5v2h107l1 -429q0 -99 58 -166t152 -67q61 0 109.5 18.5t80.5 50t48.5 74t16.5 90.5v387l-1 42h43z" />
    <glyph glyph-name="V" unicode="V" horiz-adv-x="673" 
d="M616 721h48l-273 -701l-5 -12h-100l-5 12l-256 657l-17 44h117h1v-1l245 -627l227 585z" />
    <glyph glyph-name="W" unicode="W" horiz-adv-x="1163" 
d="M1107 720h48l-10 -25l-262 -646l-16 -41h-96l-5 12l-186 432l-180 -403l-16 -41h-96l-5 12l-265 675l-10 25h118l247 -629l183 415l-91 214h118l272 -629l248 617z" />
    <glyph glyph-name="X" unicode="X" horiz-adv-x="674" 
d="M654 723v-1l-271 -335l271 -379h-133l-208 292l-237 -292h-56l266 329l-276 386h133l214 -299l242 299h55z" />
    <glyph glyph-name="Y" unicode="Y" horiz-adv-x="598" 
d="M584 724h20l-233 -373q-3 -4 -3 -9v-334h-109l2 281q0 5 -3 9l-239 386l-25 40h119h11l204 -334l187 299l21 35h48z" />
    <glyph glyph-name="Z" unicode="Z" horiz-adv-x="658" 
d="M633 719v-54l-479 -613h479l-25 -44h-584v53l481 614h-447l-34 44h609z" />
    <glyph glyph-name="bracketleft" unicode="[" horiz-adv-x="224" 
d="M164 731q-6 0 -10.5 -2.5t-7 -6.5t-2.5 -9v-747q0 -7 6 -12.5t14 -5.5h136q9 0 14.5 -5.5t5.5 -12.5v-21q0 -8 -5.5 -13.5t-14.5 -5.5h-200q-5 0 -10 2.5t-7.5 7t-2.5 9.5v861q0 5 2.5 9.5t7.5 7t10 2.5h200q6 0 10.5 -2.5t7 -7t2.5 -9.5v-21q0 -7 -5.5 -12.5t-14.5 -5.5
h-136z" />
    <glyph glyph-name="backslash" unicode="\" horiz-adv-x="447" 
d="M408 37q2 -6 0.5 -12t-7 -9.5t-12.5 -3.5h-25q-14 0 -19 11l-312 676q-5 9 1 17.5t17 8.5h26q13 0 18 -12z" />
    <glyph glyph-name="bracketright" unicode="]" horiz-adv-x="224" 
d="M123 789q9 0 14.5 -5.5t5.5 -13.5v-861q0 -8 -5.5 -13.5t-14.5 -5.5h-200q-8 0 -14 5.5t-6 13.5v21q0 7 6 12.5t14 5.5h136q9 0 15 5.5t6 12.5v747q0 7 -6 12.5t-15 5.5h-136q-8 0 -14 5.5t-6 12.5v21q0 8 6 13.5t14 5.5h200z" />
    <glyph glyph-name="asciicircum" unicode="^" horiz-adv-x="510" 
d="M470 297q4 -7 1.5 -14.5t-10.5 -10.5l-22 -10q-8 -4 -16 -1.5t-12 9.5l-138 254q-5 10 -18 10t-19 -10l-138 -254q-3 -7 -11.5 -9.5t-15.5 1.5l-22 10q-8 3 -11 10.5t1 14.5l185 339q5 11 18 11h25q13 0 19 -11z" />
    <glyph glyph-name="underscore" unicode="_" horiz-adv-x="1" 
d="M259 -206h-517v57h517v-57z" />
    <glyph glyph-name="grave" unicode="`" horiz-adv-x="169" 
d="M143 639q3 -7 -2 -13t-13 -6h-46q-10 0 -14 7l-87 138q-4 7 0.5 14.5t13.5 7.5h74q11 0 15 -10z" />
    <glyph glyph-name="a" unicode="a" horiz-adv-x="700" 
d="M672 33l9 -25h-118l-5 12l-44 115l-11 26h-376l-11 -26l-46 -115l-5 -12h-48l10 25l262 646l16 41h96l5 -12zM145 205h341l-9 25l-160 407l-170 -425z" />
    <glyph glyph-name="a" unicode="&#xe5;" horiz-adv-x="700" 
d="M672 33l9 -25h-118l-5 12l-44 115l-11 26h-376l-11 -26l-46 -115l-5 -12h-48l10 25l262 646l16 41h96l5 -12zM145 205h341l-9 25l-160 407l-170 -425z" />
    <glyph glyph-name="a" unicode="&#xe4;" horiz-adv-x="700" 
d="M672 33l9 -25h-118l-5 12l-44 115l-11 26h-376l-11 -26l-46 -115l-5 -12h-48l10 25l262 646l16 41h96l5 -12zM145 205h341l-9 25l-160 407l-170 -425z" />
    <glyph glyph-name="a" unicode="&#xe3;" horiz-adv-x="700" 
d="M672 33l9 -25h-118l-5 12l-44 115l-11 26h-376l-11 -26l-46 -115l-5 -12h-48l10 25l262 646l16 41h96l5 -12zM145 205h341l-9 25l-160 407l-170 -425z" />
    <glyph glyph-name="a" unicode="&#xe2;" horiz-adv-x="700" 
d="M672 33l9 -25h-118l-5 12l-44 115l-11 26h-376l-11 -26l-46 -115l-5 -12h-48l10 25l262 646l16 41h96l5 -12zM145 205h341l-9 25l-160 407l-170 -425z" />
    <glyph glyph-name="a" unicode="&#xe1;" horiz-adv-x="700" 
d="M672 33l9 -25h-118l-5 12l-44 115l-11 26h-376l-11 -26l-46 -115l-5 -12h-48l10 25l262 646l16 41h96l5 -12zM145 205h341l-9 25l-160 407l-170 -425z" />
    <glyph glyph-name="a" unicode="&#xe0;" horiz-adv-x="700" 
d="M672 33l9 -25h-118l-5 12l-44 115l-11 26h-376l-11 -26l-46 -115l-5 -12h-48l10 25l262 646l16 41h96l5 -12zM145 205h341l-9 25l-160 407l-170 -425z" />
    <glyph glyph-name="b" unicode="b" horiz-adv-x="723" 
d="M533 374q62 -21 106.5 -70t44.5 -108q0 -76 -67 -132t-152 -56h-385v717h300q89 0 159 -59t70 -140q0 -65 -79 -139l-9 -9q10 -3 12 -4zM191 681v-294v-6h189q59 0 90 42.5t31 107.5q0 31 -7.5 58t-22.5 47.5t-38 32.5t-53 12h-189zM434 47q57 0 99 43.5t42 104t-42 104
t-99 43.5h-243v-295h243z" />
    <glyph glyph-name="c" unicode="c" horiz-adv-x="678" 
d="M495 47q57 9 106 40l32 -33q-92 -57 -200 -57q-102 0 -191.5 49.5t-143 135t-53.5 185t53.5 185t143 135t191.5 49.5q122 0 221 -72l-44 -45q-34 27 -72.5 44t-80.5 23.5t-85 -0.5q-81 -13 -137 -66.5t-76.5 -132.5t-3.5 -167q26 -134 121.5 -213t218.5 -60z" />
    <glyph glyph-name="c" unicode="&#xe7;" horiz-adv-x="678" 
d="M495 47q57 9 106 40l32 -33q-92 -57 -200 -57q-102 0 -191.5 49.5t-143 135t-53.5 185t53.5 185t143 135t191.5 49.5q122 0 221 -72l-44 -45q-34 27 -72.5 44t-80.5 23.5t-85 -0.5q-81 -13 -137 -66.5t-76.5 -132.5t-3.5 -167q26 -134 121.5 -213t218.5 -60z" />
    <glyph glyph-name="d" unicode="d" horiz-adv-x="735" 
d="M299 722q176 0 282 -95.5t106 -261.5q0 -162 -126 -272q-99 -85 -262 -85h-219v671v3.5t-0.5 8t-0.5 10.5v10.5t0.5 8l0.5 2.5h219zM299 47q279 0 279 318q0 79 -18.5 138.5t-46.5 93t-67 53.5t-73.5 26.5t-73.5 6.5h-113v-636h113z" />
    <glyph glyph-name="e" unicode="e" horiz-adv-x="606" 
d="M187 271v-217h385l-35 -46h-457v713h25h476l-44 -44h-350v-205v-34h380l-35 -44h-345v-54h-1v-69h1z" />
    <glyph glyph-name="e" unicode="&#xeb;" horiz-adv-x="606" 
d="M187 271v-217h385l-35 -46h-457v713h25h476l-44 -44h-350v-205v-34h380l-35 -44h-345v-54h-1v-69h1z" />
    <glyph glyph-name="e" unicode="&#xea;" horiz-adv-x="606" 
d="M187 271v-217h385l-35 -46h-457v713h25h476l-44 -44h-350v-205v-34h380l-35 -44h-345v-54h-1v-69h1z" />
    <glyph glyph-name="e" unicode="&#xe9;" horiz-adv-x="606" 
d="M187 271v-217h385l-35 -46h-457v713h25h476l-44 -44h-350v-205v-34h380l-35 -44h-345v-54h-1v-69h1z" />
    <glyph glyph-name="e" unicode="&#xe8;" horiz-adv-x="606" 
d="M187 271v-217h385l-35 -46h-457v713h25h476l-44 -44h-350v-205v-34h380l-35 -44h-345v-54h-1v-69h1z" />
    <glyph glyph-name="f" unicode="f" horiz-adv-x="593" 
d="M565 679h-382v-32v-285h228q-2 -3 -5.5 -7.5t-10.5 -14.5t-12 -16l-5 -6h-195v-310h-103v715h23h518z" />
    <glyph glyph-name="g" unicode="g" horiz-adv-x="761" 
d="M435 362h267v-350h-109q1 13 0 23v38q-30 -35 -77 -55.5t-105 -20.5q-71 0 -137.5 27t-116 73.5t-79.5 113t-30 140.5q0 88 29.5 162t80 122t116 74.5t137.5 26.5q75 0 142.5 -33t115.5 -92l-50 -39q-50 64 -120.5 95t-144.5 19t-122 -63t-65.5 -121t-8.5 -151
q9 -88 53 -162t113 -114t143 -28q44 7 80 34t46 56v181h-138z" />
    <glyph glyph-name="h" unicode="h" horiz-adv-x="782" 
d="M687 722h15v-714h-109v295h-403v-295h-110v672v42h94h16v-375h403v18v316l-1 41h95z" />
    <glyph glyph-name="i" unicode="i" horiz-adv-x="269" 
d="M149 721h40v-713h-109v671v42h69z" />
    <glyph glyph-name="i" unicode="&#xef;" horiz-adv-x="269" 
d="M149 721h40v-713h-109v671v42h69z" />
    <glyph glyph-name="i" unicode="&#xee;" horiz-adv-x="269" 
d="M149 721h40v-713h-109v671v42h69z" />
    <glyph glyph-name="i" unicode="&#xed;" horiz-adv-x="269" 
d="M149 721h40v-713h-109v671v42h69z" />
    <glyph glyph-name="i" unicode="&#xec;" horiz-adv-x="269" 
d="M149 721h40v-713h-109v671v42h69z" />
    <glyph glyph-name="j" unicode="j" horiz-adv-x="526" 
d="M347 722h107v-474q0 -73 -33.5 -129.5t-91.5 -87t-130 -30.5q-55 0 -104 21.5t-83 59.5l40 32q60 -69 147 -69q24 0 43.5 4.5t34 10.5t26 18t18.5 21t12.5 24.5t8 24.5t4 26t1.5 23v21.5v15.5v488z" />
    <glyph glyph-name="k" unicode="k" horiz-adv-x="705" 
d="M322 411l373 -403h-147l-285 308l-13 15l-61 -69v-254h-109v670v43h70h39v-388l333 357l28 31h32h-1h30l-28 -30z" />
    <glyph glyph-name="l" unicode="l" horiz-adv-x="562" 
d="M188 722v-670h368q-38 -43 -39 -44h-437v671v43h68h40z" />
    <glyph glyph-name="m" unicode="m" horiz-adv-x="918" 
d="M743 721h95v-713h-98v617l-300 -546l-316 482v-553h-44v713h78l318 -484z" />
    <glyph glyph-name="n" unicode="n" horiz-adv-x="774" 
d="M650 721h44v-713h-66l-504 541v-522v-19h-44v713h47l523 -560v560z" />
    <glyph glyph-name="n" unicode="&#xf1;" horiz-adv-x="774" 
d="M650 721h44v-713h-66l-504 541v-522v-19h-44v713h47l523 -560v560z" />
    <glyph glyph-name="o" unicode="o" horiz-adv-x="820" 
d="M409 736q94 0 178.5 -49.5t135.5 -135t51 -184.5t-51 -185t-135.5 -135t-178.5 -49q-71 0 -137.5 29t-116 78.5t-79.5 118t-30 143t30 143.5t79.5 118t116 78.5t137.5 29.5zM466 47q74 13 125.5 68.5t70.5 136t3 168.5q-24 133 -111.5 209t-201.5 57q-74 -12 -124.5 -66
t-68.5 -132.5t-2 -167.5q24 -134 110 -213t199 -60z" />
    <glyph glyph-name="o" unicode="&#xf8;" horiz-adv-x="820" 
d="M409 736q94 0 178.5 -49.5t135.5 -135t51 -184.5t-51 -185t-135.5 -135t-178.5 -49q-71 0 -137.5 29t-116 78.5t-79.5 118t-30 143t30 143.5t79.5 118t116 78.5t137.5 29.5zM466 47q74 13 125.5 68.5t70.5 136t3 168.5q-24 133 -111.5 209t-201.5 57q-74 -12 -124.5 -66
t-68.5 -132.5t-2 -167.5q24 -134 110 -213t199 -60z" />
    <glyph glyph-name="o" unicode="&#xf6;" horiz-adv-x="820" 
d="M409 736q94 0 178.5 -49.5t135.5 -135t51 -184.5t-51 -185t-135.5 -135t-178.5 -49q-71 0 -137.5 29t-116 78.5t-79.5 118t-30 143t30 143.5t79.5 118t116 78.5t137.5 29.5zM466 47q74 13 125.5 68.5t70.5 136t3 168.5q-24 133 -111.5 209t-201.5 57q-74 -12 -124.5 -66
t-68.5 -132.5t-2 -167.5q24 -134 110 -213t199 -60z" />
    <glyph glyph-name="o" unicode="&#xf5;" horiz-adv-x="820" 
d="M409 736q94 0 178.5 -49.5t135.5 -135t51 -184.5t-51 -185t-135.5 -135t-178.5 -49q-71 0 -137.5 29t-116 78.5t-79.5 118t-30 143t30 143.5t79.5 118t116 78.5t137.5 29.5zM466 47q74 13 125.5 68.5t70.5 136t3 168.5q-24 133 -111.5 209t-201.5 57q-74 -12 -124.5 -66
t-68.5 -132.5t-2 -167.5q24 -134 110 -213t199 -60z" />
    <glyph glyph-name="o" unicode="&#xf4;" horiz-adv-x="820" 
d="M409 736q94 0 178.5 -49.5t135.5 -135t51 -184.5t-51 -185t-135.5 -135t-178.5 -49q-71 0 -137.5 29t-116 78.5t-79.5 118t-30 143t30 143.5t79.5 118t116 78.5t137.5 29.5zM466 47q74 13 125.5 68.5t70.5 136t3 168.5q-24 133 -111.5 209t-201.5 57q-74 -12 -124.5 -66
t-68.5 -132.5t-2 -167.5q24 -134 110 -213t199 -60z" />
    <glyph glyph-name="o" unicode="&#xf3;" horiz-adv-x="820" 
d="M409 736q94 0 178.5 -49.5t135.5 -135t51 -184.5t-51 -185t-135.5 -135t-178.5 -49q-71 0 -137.5 29t-116 78.5t-79.5 118t-30 143t30 143.5t79.5 118t116 78.5t137.5 29.5zM466 47q74 13 125.5 68.5t70.5 136t3 168.5q-24 133 -111.5 209t-201.5 57q-74 -12 -124.5 -66
t-68.5 -132.5t-2 -167.5q24 -134 110 -213t199 -60z" />
    <glyph glyph-name="o" unicode="&#xf2;" horiz-adv-x="820" 
d="M409 736q94 0 178.5 -49.5t135.5 -135t51 -184.5t-51 -185t-135.5 -135t-178.5 -49q-71 0 -137.5 29t-116 78.5t-79.5 118t-30 143t30 143.5t79.5 118t116 78.5t137.5 29.5zM466 47q74 13 125.5 68.5t70.5 136t3 168.5q-24 133 -111.5 209t-201.5 57q-74 -12 -124.5 -66
t-68.5 -132.5t-2 -167.5q24 -134 110 -213t199 -60z" />
    <glyph glyph-name="p" unicode="p" horiz-adv-x="711" 
d="M360 723q80 0 152 -35.5t116 -97.5t44 -134v-7q0 -54 -26 -104t-69 -85.5t-100 -56.5t-117 -21h-170v-174h-110v715h280zM563 448v9q0 94 -55 157.5t-148 63.5h-170v-20v-411v-20h170q93 0 148 63.5t55 157.5z" />
    <glyph glyph-name="q" unicode="q" horiz-adv-x="830" 
d="M782 60l3 -57q-9 0 -35.5 3t-73 17t-68.5 36q-89 -71 -199 -71q-70 0 -136 29.5t-115.5 79.5t-80 119.5t-30.5 145t30.5 145.5t80 119.5t115.5 79.5t136 30q93 0 174 -50t129.5 -136.5t48.5 -187.5q0 -126 -96 -247q-6 -7 -4 -15t9 -13q45 -26 112 -27zM609 159
q25 42 35 82.5t10 97.5q0 94 -29 174t-85.5 131t-130.5 51t-133 -51t-90 -132t-31 -174q0 -138 70 -223.5t184 -85.5q81 0 149 52q12 9 6 23l-3 6q-49 126 -134 136l5 60q114 -12 177 -147z" />
    <glyph glyph-name="r" unicode="r" horiz-adv-x="722" 
d="M672 446q0 -49 -14 -92t-43 -78.5t-72 -58.5l-19 -10l113 -170l19 -29h-134l-6 9l-85 135q-18 28 -51 27h-19h-173v-19v-133v-19h-108v671v41h72h209q81 0 152.5 -35.5t115 -97.5t43.5 -133v-8zM361 214q62 0 108.5 31.5t70 83.5t23.5 116v9q0 48 -13.5 90t-39 73.5
t-64 49.5t-85.5 18h-173v-471h173z" />
    <glyph glyph-name="s" unicode="s" horiz-adv-x="643" 
d="M355 402q38 -14 69 -28t65 -35t57 -44t38 -54t15 -66q0 -49 -24 -86t-64.5 -58t-87.5 -31.5t-99 -10.5q-106 0 -176 44t-91 128l69 14q32 -143 216 -143q67 0 114 37t47 95q0 19 -5.5 34t-20 28.5t-27 23t-40.5 21.5t-46 19t-56 20q-3 2 -5 2.5t-5 1.5t-5 2q-5 2 -14 5
q-31 11 -47 17t-44.5 18.5t-44.5 23t-36.5 27t-31 34t-18.5 40.5t-8 50q0 29 15.5 60.5t44.5 60.5t80.5 48t115.5 19q185 0 270 -131l-64 -24q-76 118 -204 118q-36 0 -65.5 -8.5t-47 -21.5t-30.5 -29.5t-17 -33t-6 -31t2 -24.5q3 -13 9.5 -24t13 -19.5t20.5 -17.5t23 -14.5
t30.5 -14t33 -13t40 -14.5t42.5 -15z" />
    <glyph glyph-name="t" unicode="t" horiz-adv-x="634" 
d="M-2 723h638l-15 -44h-250v-671h-108v671h-250z" />
    <glyph glyph-name="u" unicode="u" horiz-adv-x="750" 
d="M682 722l1 -429q0 -120 -87.5 -205t-210.5 -85q-81 0 -154.5 38.5t-118.5 106t-45 145.5l-1 389v2.5v6v7.5t0.5 8.5t0.5 8v5.5v2h107l1 -429q0 -64 25 -117t74 -84.5t111 -31.5q61 0 109.5 18.5t80.5 50t48.5 74t16.5 90.5v387l-1 42h43z" />
    <glyph glyph-name="u" unicode="&#xfc;" horiz-adv-x="750" 
d="M682 722l1 -429q0 -120 -87.5 -205t-210.5 -85q-81 0 -154.5 38.5t-118.5 106t-45 145.5l-1 389v2.5v6v7.5t0.5 8.5t0.5 8v5.5v2h107l1 -429q0 -64 25 -117t74 -84.5t111 -31.5q61 0 109.5 18.5t80.5 50t48.5 74t16.5 90.5v387l-1 42h43z" />
    <glyph glyph-name="u" unicode="&#xfb;" horiz-adv-x="750" 
d="M682 722l1 -429q0 -120 -87.5 -205t-210.5 -85q-81 0 -154.5 38.5t-118.5 106t-45 145.5l-1 389v2.5v6v7.5t0.5 8.5t0.5 8v5.5v2h107l1 -429q0 -64 25 -117t74 -84.5t111 -31.5q61 0 109.5 18.5t80.5 50t48.5 74t16.5 90.5v387l-1 42h43z" />
    <glyph glyph-name="u" unicode="&#xfa;" horiz-adv-x="750" 
d="M682 722l1 -429q0 -120 -87.5 -205t-210.5 -85q-81 0 -154.5 38.5t-118.5 106t-45 145.5l-1 389v2.5v6v7.5t0.5 8.5t0.5 8v5.5v2h107l1 -429q0 -64 25 -117t74 -84.5t111 -31.5q61 0 109.5 18.5t80.5 50t48.5 74t16.5 90.5v387l-1 42h43z" />
    <glyph glyph-name="u" unicode="&#xf9;" horiz-adv-x="750" 
d="M682 722l1 -429q0 -120 -87.5 -205t-210.5 -85q-81 0 -154.5 38.5t-118.5 106t-45 145.5l-1 389v2.5v6v7.5t0.5 8.5t0.5 8v5.5v2h107l1 -429q0 -64 25 -117t74 -84.5t111 -31.5q61 0 109.5 18.5t80.5 50t48.5 74t16.5 90.5v387l-1 42h43z" />
    <glyph glyph-name="v" unicode="v" horiz-adv-x="673" 
d="M616 721h48l-273 -701l-5 -12h-100l-5 12l-256 657l-17 44h117h1v-1l245 -627l227 585z" />
    <glyph glyph-name="w" unicode="w" horiz-adv-x="1164" 
d="M1107 720h48l-10 -25l-262 -646l-16 -41h-96l-5 12l-186 432l-180 -403l-16 -41h-96l-5 12l-265 675l-10 25h118l247 -629l183 415l-91 214h118l272 -629l248 617z" />
    <glyph glyph-name="x" unicode="x" horiz-adv-x="675" 
d="M655 723v-1l-271 -335l271 -379h-133l-208 292l-237 -292h-56l266 329l-276 386h133l214 -299l242 299h55z" />
    <glyph glyph-name="y" unicode="y" horiz-adv-x="598" 
d="M584 724h20l-233 -373q-3 -4 -3 -9v-334h-109l2 281q0 5 -3 9l-239 386l-25 40h119h11l204 -334l187 299l21 35h48z" />
    <glyph glyph-name="y" unicode="&#xff;" horiz-adv-x="598" 
d="M584 724h20l-233 -373q-3 -4 -3 -9v-334h-109l2 281q0 5 -3 9l-239 386l-25 40h119h11l204 -334l187 299l21 35h48z" />
    <glyph glyph-name="y" unicode="&#xfd;" horiz-adv-x="598" 
d="M584 724h20l-233 -373q-3 -4 -3 -9v-334h-109l2 281q0 5 -3 9l-239 386l-25 40h119h11l204 -334l187 299l21 35h48z" />
    <glyph glyph-name="z" unicode="z" horiz-adv-x="658" 
d="M633 719v-54l-479 -613h479l-25 -44h-584v53l481 614h-447l-34 44h609z" />
    <glyph glyph-name="braceleft" unicode="{" horiz-adv-x="304" 
d="M331 -61q6 -1 10.5 -3.5t7 -7t2.5 -9.5t-2.5 -9t-7 -7t-10.5 -3q-9 -1 -23 -1q-1 0 -3 -0.5t-4 -0.5h-3h-13q-9 1 -13 1q-12 3 -13 3q-55 13 -82 58q-13 22 -16 46q-1 10 -1 12v10v19q-1 6 -1 77q-1 6 0 77v39v2v1v4q0 1 -0.5 3.5t-0.5 3.5q-1 6 -3 13q-6 14 -16 24
q-11 12 -25 18q-14 7 -31 8q-1 0 -5 1l-16 1q-3 0 -5.5 1l-5 2t-4.5 3t-3.5 4.5t-2 5t-0.5 5.5q0 5 3 9.5t7.5 7.5t10.5 3l16 1q4 1 5 1q17 1 31 8q14 6 25 18q11 10 16 24q2 7 3 13q0 1 0.5 3.5t0.5 3.5v3v2v2v39q-1 71 0 77q0 70 1 77v19v10q0 4 1 12q3 24 16 46
q27 45 82 58q5 1 13 2q4 1 13 2h13q2 0 10 -1q16 -1 23 -1q9 -1 14.5 -6.5t5.5 -13t-5.5 -13t-14.5 -5.5q-9 -1 -23 -2h-4.5h-5.5l-8 -1l-8 -2l-8 -2q-31 -11 -46 -39q-7 -13 -8 -27v-7v-10l1 -19q0 -9 1 -77v-77q0 -9 -1 -39v-5v-6q-1 -2 -2 -13q-3 -12 -8 -23
q-11 -23 -31 -40q-6 -6 -16 -12q10 -7 16 -12q20 -18 31 -41q5 -11 8 -23q0 -1 0.5 -5.5t1.5 -6.5v-7v-5q0 -2 0.5 -16.5t0.5 -22.5v-77v-24t-0.5 -28.5t-0.5 -24.5l-1 -19v-10v-7q1 -14 8 -27q14 -28 46 -39l8 -2l8 -1l8 -1q1 -1 3 -1h4h3q13 -1 23 -1z" />
    <glyph glyph-name="braceright" unicode="}" horiz-adv-x="304" 
d="M241 360q6 0 10.5 -3t7.5 -7.5t3 -9.5q0 -8 -6 -14t-15 -7l-16 -1q-4 0 -5 -1q-17 -1 -31 -8q-14 -6 -25 -17q-10 -11 -16 -25q-2 -6 -3 -13q0 -1 -0.5 -3.5t-0.5 -3.5v-3v-2v-2v-16.5v-22.5q1 -71 0 -77q0 -64 -1 -77v-29q0 -3 -1 -12q-3 -24 -16 -46q-27 -45 -82 -58
q-4 -1 -13 -2q-2 -1 -13 -2h-12q-3 0 -11 1q-10 0 -23 1q-6 0 -10.5 3t-7 7t-2.5 9q0 8 5.5 13.5t14.5 6.5q13 0 23 1l10 1l8 1l8 1l8 3q32 10 46 38q7 13 8 27v7l-1 29q0 10 -1 77v77q0 7 1 39v5l1 7l1 12q3 12 8 23q11 23 31 41q6 5 16 12q-10 6 -16 12q-20 17 -31 40
q-5 11 -8 23q0 2 -0.5 4.5t-0.5 4.5v4l-1 6v5q0 2 -0.5 16.5t-0.5 22.5v77q1 72 1 77l1 29v7q-1 15 -8 27q-14 28 -46 39l-8 2l-8 2l-8 1h-3h-4h-3q-15 1 -23 2q-9 0 -14.5 5.5t-5.5 13t5.5 13t14.5 6.5l23 1q1 0 4.5 0.5t5.5 0.5h13q8 -1 13 -1q10 -2 13 -3q55 -13 82 -58
q13 -22 16 -46q1 -11 1 -12v-29q1 -13 1 -77q1 -9 0 -77v-39v-2v-1v-4q0 -1 0.5 -3.5t0.5 -3.5q1 -7 3 -13q5 -14 15.5 -24.5t25.5 -17.5q14 -7 31 -8q1 0 5 -1z" />
    <glyph glyph-name="asciitilde" unicode="~" horiz-adv-x="620" 
d="M580 383q7 -4 8.5 -12t-4.5 -14q-21 -24 -44 -39.5t-42.5 -23t-43 -8t-39.5 1.5t-39.5 10t-35.5 13.5t-34 15.5q-70 34 -100 34q-67 0 -116 -77q-9 -15 -25 -8l-22 8q-8 4 -11 11.5t2 14.5q10 17 23.5 32.5t35 34t51 30t62.5 11.5q22 0 46.5 -6.5t40 -13.5t43.5 -20
q29 -14 43 -20t38 -12t40 -2.5t36.5 15t40.5 33.5q12 14 27 4z" />
    <glyph glyph-name="nonbreakingspace" unicode="&#xa0;" horiz-adv-x="463" 
 />
    <glyph glyph-name="cent" unicode="&#xa2;" horiz-adv-x="579" 
d="M518 121q7 -5 8 -13t-5 -14q-66 -70 -167 -81q-8 -1 -13 -6t-5 -12v-72q0 -7 -6 -12.5t-14 -5.5h-23q-9 0 -15 5.5t-6 12.5v77q0 14 -15 18q-88 19 -145.5 84.5t-57.5 149.5t57.5 149t145.5 85q15 3 15 18v53q0 5 3 9.5t7.5 7t10.5 2.5h23q8 0 14 -5.5t6 -13.5v-48
q0 -7 5 -12t13 -6q96 -11 161 -75q6 -5 5.5 -13t-7.5 -13l-18 -14q-15 -10 -27 2q-45 42 -108 54q-9 1 -16.5 -4.5t-7.5 -13.5v-324q0 -8 7.5 -14t16.5 -4q67 12 113 59q12 12 27 2zM272 99v306q0 10 -9 15t-19 2q-27 -10 -50.5 -27.5t-40.5 -39t-26 -48.5t-9 -55
q0 -57 35 -103t91 -67q10 -4 19 1.5t9 15.5z" />
    <glyph glyph-name="sterling" unicode="&#xa3;" horiz-adv-x="731" 
d="M677 161q9 -73 -30 -115q-35 -39 -100 -39q-26 0 -53 10.5t-48 25t-47 36.5q-10 9 -20 0q-74 -72 -167 -72q-70 0 -115 42.5t-47 96.5q-2 45 30 80t95 39q89 6 190 -77q5 -4 12 -2.5t10 7.5q37 73 19 125q-5 15 -16 29q-4 5 -11 5h-231q-5 0 -9.5 4t-4.5 9v32q0 5 4.5 9
t9.5 4h135q4 0 5 3.5t-2 5.5q-25 14 -42 26t-34.5 30t-26.5 41t-9 51q0 59 52 105t137 46q80 0 133 -49t57 -119q0 -5 -4 -9t-10 -4l-36 1q-13 0 -14 12q-4 46 -38 78q-35 32 -88 32q-56 0 -90.5 -28.5t-34.5 -64.5q0 -35 22.5 -57t76.5 -52q49 -27 71 -45q4 -3 10 -3h198
q2 0 4 -0.5t4 -2t3 -3t2 -3.5t1 -4v-32q0 -5 -4.5 -9t-9.5 -4h-136q-7 0 -11 -5t-2 -11v-1q14 -41 4 -91.5t-40 -99.5q-5 -9 3 -16q73 -63 113 -63q35 0 51 17q20 23 16 70q-1 11 11 14l35 6q6 1 11 -2.5t6 -8.5zM334 119q9 9 -1 18q-84 71 -144 71q-5 0 -9 -1
q-22 -1 -36.5 -8t-20.5 -17t-8 -18t-1 -16q1 -32 28 -57.5t70 -25.5q66 0 122 54z" />
    <glyph glyph-name="yen" unicode="&#xa5;" horiz-adv-x="633" 
d="M584 697l-195 -316q-6 -9 0 -18t17 -9h104q5 0 10 -2.5t7.5 -6.5t2.5 -9v-21q0 -8 -6 -13.5t-14 -5.5h-141q-6 0 -10.5 -2.5t-7.5 -6.5t-3 -9v-52q0 -8 6 -13.5t14 -5.5h142q8 0 14 -5t6 -13v-21q0 -8 -6 -13t-14 -5h-141q-9 0 -15 -5.5t-6 -13.5v-105q0 -7 -6 -12.5
t-14 -5.5h-23q-9 0 -15 5.5t-6 12.5v105q0 8 -5.5 13.5t-14.5 5.5h-141q-8 0 -14 5t-6 13v21q0 8 6 13t14 5h141q6 0 10.5 2.5t7 7t2.5 9.5v52q0 8 -5.5 13t-14.5 5h-141q-8 0 -14 5.5t-6 13.5v21q0 7 6 12.5t14 5.5h103q12 0 18 9t0 18l-195 316q-6 9 0 18t17 9h27
q12 0 18 -9l188 -304q5 -9 17 -9t18 9l188 304q6 9 18 9h26q12 0 18 -9t0 -18z" />
    <glyph glyph-name="dieresis" unicode="&#xa8;" horiz-adv-x="366" 
d="M117 746q7 0 12.5 -4.5t5.5 -11.5v-70q0 -7 -5.5 -11.5t-12.5 -4.5h-77q-5 0 -9 2t-6.5 6t-2.5 8v70q0 7 5 11.5t13 4.5h77zM326 746q4 0 8.5 -2t6.5 -6t3 -8v-70q0 -7 -5.5 -11.5t-12.5 -4.5h-78q-7 0 -12 5t-5 11v70q0 7 5 11.5t12 4.5h78z" />
    <glyph glyph-name="copyright" unicode="&#xa9;" horiz-adv-x="923" 
d="M461 515q-54 0 -92.5 -41t-38.5 -99t38.5 -99.5t93.5 -41.5q44 0 80 30q13 11 27 0l18 -13q6 -6 6.5 -14t-6.5 -14q-54 -46 -125 -46q-81 0 -138.5 58t-57.5 140q0 54 26.5 99.5t71.5 72t98 26.5q72 0 128 -48q6 -6 5.5 -14.5t-7.5 -13.5l-18 -13q-13 -10 -26 1
q-36 30 -83 30zM461 744q109 0 201.5 -49.5t146.5 -134.5t54 -185t-54 -185t-146.5 -134.5t-201 -49.5t-201 49.5t-146.5 134.5t-54 185q0 75 32 143.5t85.5 118t128 78.5t155.5 29zM461 63q69 0 131.5 25t108 66.5t72 99.5t26.5 121t-26.5 121t-72 99.5t-108 66.5
t-131.5 25q-91 0 -169 -42t-123 -114t-45 -156.5t45 -156t123 -113.5t169 -42z" />
    <glyph glyph-name="guillemotleft" unicode="&#xab;" horiz-adv-x="585" 
d="M141 239l120 -105q6 -6 6 -13.5t-6 -13.5l-17 -16q-6 -6 -14.5 -6t-14.5 6l-170 149q-6 5 -6 13t7 14l169 142q6 5 14.5 4.5t14.5 -5.5l17 -17q6 -5 5.5 -13t-6.5 -13l-119 -99q-6 -6 -6 -14t6 -13zM534 133q6 -5 6 -12.5t-6 -13.5l-17 -16q-6 -5 -14.5 -5.5t-14.5 5.5
l-170 149q-6 5 -6 13t7 14l169 142q6 5 14.5 4.5t14.5 -5.5l17 -17q6 -5 5.5 -13t-6.5 -13l-118 -99q-7 -6 -7 -14t6 -13z" />
    <glyph glyph-name="softhyphen" unicode="&#xad;" horiz-adv-x="0" 
 />
    <glyph glyph-name="registered" unicode="&#xae;" horiz-adv-x="923" 
d="M540 307l46 -66q4 -6 2.5 -13.5t-8.5 -11.5l-21 -11q-7 -4 -15 -2.5t-12 8.5l-52 75q-7 10 -20 9q-8 -1 -15 -1h-25q-8 0 -14 -5.5t-6 -12.5v-47q0 -8 -6 -13t-14 -5h-24q-4 0 -7.5 1t-6.5 3.5t-4.5 6t-1.5 7.5v305q0 7 6 12.5t14 5.5h86q59 0 102.5 -38t43.5 -92
t-45 -92q-11 -10 -3 -23zM443 352q32 0 55.5 19.5t25.5 47.5q2 31 -21.5 53t-57.5 22h-25q-8 0 -14 -5t-6 -13v-106q0 -5 2.5 -9.5t7.5 -6.5t10 -2h23zM461.5 744q108.5 0 201 -49.5t146.5 -134.5t54 -185t-54 -185t-146.5 -134.5t-201.5 -49.5q-81 0 -155.5 29t-128 78.5
t-85.5 118t-32 143.5q0 100 54 185t146.5 134.5t201 49.5zM461 63q92 0 170 42t123 113.5t45 156.5q0 63 -26.5 121t-72 99.5t-108 66.5t-131 25t-131 -25t-108 -66.5t-72 -99.5t-26.5 -121t26.5 -121t72 -99.5t108 -66.5t130.5 -25z" />
    <glyph glyph-name="degree" unicode="&#xb0;" horiz-adv-x="388" 
d="M194 755q63 0 108 -40.5t45 -97.5t-45 -97.5t-108 -40.5t-108 40.5t-45 97.5t45 97.5t108 40.5zM194 538q23 0 43 10.5t31.5 28.5t11.5 40q0 32 -25 55t-61 23t-61.5 -23t-25.5 -55.5t25.5 -55.5t61.5 -23z" />
    <glyph glyph-name="acute" unicode="&#xb4;" horiz-adv-x="169" 
d="M174 787q9 0 13.5 -7.5t0.5 -14.5l-87 -138q-5 -7 -14 -7h-46q-8 0 -13 6t-2 13l59 138q4 10 15 10h74z" />
    <glyph glyph-name="cedilla" unicode="&#xb8;" horiz-adv-x="95" 
d="M121 -47q26 -22 26 -57q0 -38 -31 -63q-42 -32 -133 -32q-18 0 -37 1q-9 1 -14.5 7t-4.5 14l3 15q1 8 7.5 12.5t14.5 3.5q37 -3 73 1.5t53 17.5q11 9 11 23q0 12 -7 18q-16 14 -55 11q-16 -1 -26 10.5t-5 25.5l25 57q2 4 7 4h45q4 0 6 -3t1 -6l-18 -37q37 -5 59 -23z" />
    <glyph glyph-name="guillemotright" unicode="&#xbb;" horiz-adv-x="585" 
d="M96 409l169 -142q7 -6 7 -14t-6 -14l-170 -148q-6 -6 -14.5 -6t-14.5 6l-17 16q-6 6 -6 13.5t6 12.5l120 106q6 5 6 13t-7 14l-118 99q-6 5 -6.5 13t5.5 13l17 17q6 5 14.5 5.5t14.5 -4.5zM539 267q6 -6 6 -14t-6 -13l-169 -149q-7 -6 -15.5 -6t-14.5 6l-17 16
q-6 6 -6 13.5t6 12.5l120 106q6 5 6 13t-6 14l-119 99q-6 5 -6.5 13t5.5 13l17 17q6 5 14.5 5.5t14.5 -4.5z" />
    <glyph glyph-name="Agrave" unicode="&#xc0;" 
d="M324 792l-87 138l-13 21h90l5 -9l58 -138l8 -19h-56zM672 33l9 -25h-118l-5 12l-44 114l-11 27h-376l-11 -27l-46 -114l-5 -12h-48l10 25l262 646l16 41h96l5 -12zM145 204h341l-9 25l-160 408l-170 -425z" />
    <glyph glyph-name="Aacute" unicode="&#xc1;" 
d="M370 792l-5 -7h-56l8 19l58 138l5 9h90l-13 -21zM672 33l9 -25h-118l-5 12l-44 114l-11 27h-376l-11 -27l-46 -114l-5 -12h-48l10 25l262 646l16 41h96l5 -12zM145 204h341l-9 25l-160 408l-170 -425z" />
    <glyph glyph-name="Acircumflex" unicode="&#xc2;" 
d="M204 760q-2 -3 -5 0l-45 39l192 178q2 2 5 0l183 -179l-45 -38q-3 -2 -6 0l-137 125zM672 33l9 -25h-118l-5 12l-44 114l-11 27h-376l-11 -27l-46 -114l-5 -12h-48l10 25l262 646l16 41h96l5 -12zM145 204h341l-9 25l-160 408l-170 -425z" />
    <glyph glyph-name="Atilde" unicode="&#xc3;" 
d="M239 882q-67 0 -116 -77l-57 27q8 12 17.5 24.5t26 28t34.5 27.5t43 20t52 8q21 0 46 -7t40.5 -13.5t42.5 -19.5q29 -14 43.5 -20t38 -12t39.5 -2.5t37 15t41 33.5l50 -35q-21 -24 -44 -39.5t-42.5 -23t-43 -8.5t-40 1t-39.5 10.5t-35.5 13.5t-34.5 16q-69 33 -99 33z
M672 33l9 -25h-118l-5 12l-44 114l-11 27h-376l-11 -27l-46 -114l-5 -12h-48l10 25l262 646l16 41h96l5 -12zM145 204h341l-9 25l-160 408l-170 -425z" />
    <glyph glyph-name="Adieresis" unicode="&#xc4;" 
d="M505 830h-85v76h85v-76zM296 830h-84v76h84v-76zM672 33l9 -25h-118l-5 12l-44 114l-11 27h-376l-11 -27l-46 -114l-5 -12h-48l10 25l262 646l16 41h96l5 -12zM145 204h341l-9 25l-160 408l-170 -425z" />
    <glyph glyph-name="Aring" unicode="&#xc5;" 
d="M348 752q-35 0 -64.5 15.5t-46.5 42.5t-17 58q0 48 37.5 81.5t90.5 33.5t90.5 -33.5t37.5 -81.5t-37.5 -82t-90.5 -34zM348 933q-30 0 -51.5 -19t-21.5 -46t21.5 -46.5t51.5 -19.5q19 0 36 9t26.5 24t9.5 33q0 27 -21 46t-51 19zM672 33l9 -25h-118l-5 12l-44 114l-11 27
h-376l-11 -27l-46 -114l-5 -12h-48l10 25l262 646l16 41h96l5 -12zM145 204h341l-9 25l-160 408l-170 -425z" />
    <glyph glyph-name="AE" unicode="&#xc6;" horiz-adv-x="913" 
d="M494 271v-217h386l-35 -46h-457v131h-253l-67 -131h-55l343 673l18 40h39h475l-43 -44h-351v-205v-34h381l-35 -44h-346v-54v-69zM388 212v420l-219 -420h219z" />
    <glyph glyph-name="Ccedilla" unicode="&#xc7;" horiz-adv-x="657" 
d="M417 6q-9 0 -25 1l-15 -30q37 -5 59 -24q26 -22 26 -56q0 -39 -31 -64q-42 -32 -133 -32q-6 0 -14 13.5t-13 26.5l-4 13q93 -7 126 19q11 9 11 24q0 12 -7 18q-5 4 -26.5 6.5t-40.5 3.5l-19 1v36l24 54q-120 29 -205.5 128t-85.5 223q0 97 52.5 181t138.5 132t182 48
q121 0 216 -75l-43 -42q-77 60 -173 60q-117 0 -190.5 -87.5t-73.5 -216t73.5 -216.5t190.5 -88q83 0 153 46l39 -46q-87 -57 -192 -57z" />
    <glyph glyph-name="Egrave" unicode="&#xc8;" horiz-adv-x="604" 
d="M325 798l-86 138l-13 22h90l4 -10l59 -138l8 -19h-56zM186 271v-217h385l-35 -46h-457v713h25h476l-44 -44h-350v-205v-34h380l-35 -44h-345v-54h-1v-69h1z" />
    <glyph glyph-name="Eacute" unicode="&#xc9;" horiz-adv-x="604" 
d="M336 793q-17 1 -66 3q-7 6 -4 14l59 138q4 10 15 10h74q9 0 13.5 -7.5t0.5 -14.5l-87 -138q-1 -2 -5 -5zM186 271v-217h385l-35 -46h-457v713h25h476l-44 -44h-350v-205v-34h380l-35 -44h-345v-54h-1v-69h1z" />
    <glyph glyph-name="Ecircumflex" unicode="&#xca;" horiz-adv-x="604" 
d="M162 806q-6 5 -6 6t6 7l165 153q6 5 15 5t15 -6l157 -153q5 -4 5 -12q-51 1 -83 0l-81 79q-6 5 -14.5 5.5t-14.5 -5.5l-98 -79h-66zM186 271v-217h385l-35 -46h-457v672v41h25h476l-44 -44h-350v-205v-34h380l-35 -44h-345v-54h-1v-69h1z" />
    <glyph glyph-name="Edieresis" unicode="&#xcb;" horiz-adv-x="604" 
d="M474 836h-85v76h85v-76zM265 836h-84v76h84v-76zM186 271v-217h385l-35 -46h-457v713h25h476l-44 -44h-350v-205v-34h380l-35 -44h-345v-54h-1v-69h1z" />
    <glyph glyph-name="Igrave" unicode="&#xcc;" horiz-adv-x="267" 
d="M114 787l-5 7l-87 138l-13 22h90l4 -9l59 -138l8 -20h-56zM148 723h40v-714h-109v671v43h69z" />
    <glyph glyph-name="Iacute" unicode="&#xcd;" horiz-adv-x="267" 
d="M180 954h90l-13 -22l-87 -138l-5 -7h-56l8 20l58 138zM148 723h40v-714h-109v671v43h69z" />
    <glyph glyph-name="Icircumflex" unicode="&#xce;" horiz-adv-x="267" 
d="M138 979l183 -178l-46 -38q-2 -3 -5 0l-137 125l-142 -126q-3 -2 -5 0l-45 39v1l191 177q3 3 6 0zM147 723h40v-714h-108v671v43h68z" />
    <glyph glyph-name="Idieresis" unicode="&#xcf;" horiz-adv-x="266" 
d="M74 832h-85v77h85v-77zM282 832h-84v77h84v-77zM147 723h40v-714h-109v671v43h69z" />
    <glyph glyph-name="Eth" unicode="&#xd0;" horiz-adv-x="798" 
d="M358 722q180 0 286.5 -95t106.5 -262q0 -166 -125 -272q-101 -85 -268 -85h-220v265h-111v73h111v376h220zM358 57q38 0 72.5 6t75 26t69 52t47.5 89.5t19 134.5t-19 134.5t-47.5 90t-69 52t-75 25.5t-72.5 6h-110v-328h61v-80h-61v-208h110z" />
    <glyph glyph-name="Ntilde" unicode="&#xd1;" horiz-adv-x="772" 
d="M283 877q-66 0 -116 -77l-56 27q10 16 23.5 31.5t35 34.5t51 30.5t62.5 11.5q22 0 46.5 -7t40 -13.5t43.5 -19.5q29 -14 43.5 -20t38 -12t39.5 -2.5t36.5 15t40.5 33.5l50 -35q-21 -24 -44 -39.5t-42.5 -23.5t-43 -8.5t-39.5 1.5t-39.5 10t-35.5 13.5t-34 16.5
q-70 33 -100 33zM649 721h44v-713h-66l-504 541v-522v-19h-44v713h47l523 -560v560z" />
    <glyph glyph-name="Ograve" unicode="&#xd2;" horiz-adv-x="819" 
d="M373 792l-86 138l-13 21h90l4 -9l58 -138l8 -19h-55zM409 725q94 0 178.5 -49.5t135.5 -135t51 -185t-51 -185t-135.5 -135t-178.5 -49.5q-71 0 -137.5 29.5t-116 79t-79.5 118t-30 143t30 143t79.5 118t116 79t137.5 29.5zM466 36q74 13 125.5 68.5t70.5 135.5t3 168
q-24 134 -111.5 210t-201.5 57q-74 -13 -124.5 -67t-68.5 -132.5t-2 -166.5q24 -135 110 -213.5t199 -59.5z" />
    <glyph glyph-name="Oacute" unicode="&#xd3;" horiz-adv-x="819" 
d="M418 792l-5 -7h-56l8 19l59 138l4 9h90l-13 -21zM409 725q94 0 178.5 -49.5t135.5 -135t51 -185t-51 -185t-135.5 -135t-178.5 -49.5q-71 0 -137.5 29.5t-116 79t-79.5 118t-30 143t30 143t79.5 118t116 79t137.5 29.5zM466 36q74 13 125.5 68.5t70.5 135.5t3 168
q-24 134 -111.5 210t-201.5 57q-74 -13 -124.5 -67t-68.5 -132.5t-2 -166.5q24 -135 110 -213.5t199 -59.5z" />
    <glyph glyph-name="Ocircumflex" unicode="&#xd4;" horiz-adv-x="819" 
d="M251 760q-3 -3 -5 0l-45 39l191 178q3 2 6 0l183 -179l-46 -38q-2 -2 -5 0l-137 125zM409 725q94 0 178.5 -49.5t135.5 -135t51 -185t-51 -185t-135.5 -135t-178.5 -49.5q-71 0 -137.5 29.5t-116 79t-79.5 118t-30 143t30 143t79.5 118t116 79t137.5 29.5zM466 36
q74 13 125.5 68.5t70.5 135.5t3 168q-24 134 -111.5 210t-201.5 57q-74 -13 -124.5 -67t-68.5 -132.5t-2 -166.5q24 -135 110 -213.5t199 -59.5z" />
    <glyph glyph-name="Otilde" unicode="&#xd5;" horiz-adv-x="819" 
d="M321 882q-67 0 -116 -77l-57 27q10 16 23.5 31.5t35 34.5t51.5 30.5t63 11.5q21 0 46 -7t40.5 -13.5t42.5 -19.5q29 -14 43.5 -20t38 -12t39.5 -2.5t36.5 15t40.5 33.5l51 -35q-22 -24 -44.5 -39.5t-42 -23t-43 -8.5t-40 1t-40 10.5t-35.5 13.5t-34 16q-69 33 -99 33z
M409 725q94 0 178.5 -49.5t135.5 -135t51 -185t-51 -185t-135.5 -135t-178.5 -49.5q-71 0 -137.5 29.5t-116 79t-79.5 118t-30 143t30 143t79.5 118t116 79t137.5 29.5zM466 36q74 13 125.5 68.5t70.5 135.5t3 168q-24 134 -111.5 210t-201.5 57q-74 -13 -124.5 -67
t-68.5 -132.5t-2 -166.5q24 -135 110 -213.5t199 -59.5z" />
    <glyph glyph-name="Odieresis" unicode="&#xd6;" horiz-adv-x="819" 
d="M365 830h-84v76h84v-76zM574 830h-85v76h85v-76zM409 725q94 0 178.5 -49.5t135.5 -135t51 -185t-51 -185t-135.5 -135t-178.5 -49.5q-71 0 -137.5 29.5t-116 79t-79.5 118t-30 143t30 143t79.5 118t116 79t137.5 29.5zM466 36q74 13 125.5 68.5t70.5 135.5t3 168
q-24 134 -111.5 210t-201.5 57q-74 -13 -124.5 -67t-68.5 -132.5t-2 -166.5q24 -135 110 -213.5t199 -59.5z" />
    <glyph glyph-name="multiply" unicode="&#xd7;" horiz-adv-x="511" 
d="M314 285l146 -134q6 -6 6 -13.5t-6 -12.5l-17 -15q-6 -5 -14.5 -5t-13.5 5l-145 133q-6 6 -14.5 6t-14.5 -6l-145 -133q-6 -5 -14 -5t-14 5l-17 15q-6 5 -6 12.5t6 13.5l146 134q6 5 6 12.5t-6 13.5l-146 134q-6 5 -6 12.5t6 13.5l17 14q6 6 14 6t14 -6l145 -133
q6 -5 14.5 -5t14.5 5l145 133q5 6 13.5 6t14.5 -6l17 -14q6 -6 6 -13.5t-6 -12.5l-146 -134q-6 -6 -6 -13.5t6 -12.5z" />
    <glyph glyph-name="Oslash" unicode="&#xd8;" horiz-adv-x="818" 
d="M626 647q68 -52 107.5 -128.5t39.5 -162.5q0 -100 -51 -185.5t-135.5 -135t-178.5 -49.5q-52 0 -103 17l-9 -18h-73l21 43q-89 48 -144 135.5t-55 191.5q0 75 30 143.5t79.5 118t116 79t137.5 29.5q84 0 162 -41l10 19h74zM274 89l268 538q-86 65 -191 48
q-74 -13 -124.5 -67t-68.5 -132.5t-2 -166.5q25 -143 118 -220zM465 36q74 13 125.5 68.5t70.5 135.5t3 168q-17 99 -73 169l-261 -524q64 -29 135 -17z" />
    <glyph glyph-name="Ugrave" unicode="&#xd9;" horiz-adv-x="748" 
d="M369 792l-86 138l-13 21h90l4 -9l59 -138l8 -19h-56zM681 722l1 -429q0 -120 -87.5 -205t-210.5 -85q-81 0 -154.5 38.5t-118.5 106t-45 145.5l-1 389v2.5v6v7.5t0.5 8.5t0.5 8v5.5v2h107l1 -429q0 -64 25 -117t74 -84.5t111 -31.5q61 0 109.5 18.5t80.5 50t48.5 74
t16.5 90.5v387l-1 42h43z" />
    <glyph glyph-name="Uacute" unicode="&#xda;" horiz-adv-x="748" 
d="M376 792l-5 -7h-56l8 19l59 138l4 9h90l-13 -21zM681 722l1 -429q0 -120 -87.5 -205t-210.5 -85q-81 0 -154.5 38.5t-118.5 106t-45 145.5l-1 389v2.5v6v7.5t0.5 8.5t0.5 8v5.5v2h107l1 -429q0 -64 25 -117t74 -84.5t111 -31.5q61 0 109.5 18.5t80 50t48.5 74t17 90.5
v387l-1 42h43z" />
    <glyph glyph-name="Ucircumflex" unicode="&#xdb;" horiz-adv-x="748" 
d="M264 760q-3 -3 -6 0l-44 39l191 178q3 2 6 0l183 -179l-46 -38q-2 -2 -5 0l-137 125zM681 722l1 -429q0 -120 -87.5 -205t-210.5 -85q-81 0 -154.5 38.5t-118.5 106t-45 145.5l-1 389v2.5v6v7.5t0.5 8.5t0.5 8v5.5v2h107l1 -429q0 -99 58 -166t152 -67q61 0 109.5 18.5
t80.5 50t48.5 74t16.5 90.5v387l-1 42h43z" />
    <glyph glyph-name="Udieresis" unicode="&#xdc;" horiz-adv-x="748" 
d="M522 830h-84v76h84v-76zM314 830h-85v76h85v-76zM681 722l1 -429q0 -120 -87.5 -205t-210.5 -85q-81 0 -154.5 38.5t-118.5 106t-45 145.5l-1 389v4v10t0.5 12t0.5 10v4h107l1 -429q0 -64 25 -117t74 -84.5t111 -31.5q61 0 109.5 18.5t80.5 50t48.5 74t16.5 90.5v387
l-1 42h43z" />
    <glyph glyph-name="Yacute" unicode="&#xdd;" horiz-adv-x="598" 
d="M362 796l-5 -7h-56l8 20l59 137l4 10h90l-13 -22zM584 724h20l-233 -373q-3 -4 -3 -9v-334h-109l2 281q0 5 -3 9l-239 386l-25 40h119h11l204 -334l187 299l21 35h48z" />
    <glyph glyph-name="Thorn" unicode="&#xde;" horiz-adv-x="661" 
d="M309 725q60 0 117.5 -21.5t100.5 -57t69.5 -85t26.5 -103.5v-9q0 -72 -44.5 -134t-117 -97.5t-152.5 -35.5h-122v-174h-108v891h108v-174h122zM517 450v7q0 57 -25 104.5t-73 76t-111 28.5h-121v-425h121q94 0 151.5 60t57.5 149z" />
    <glyph glyph-name="divide" unicode="&#xf7;" horiz-adv-x="531" 
d="M508 229h-485v58h485v-58zM265.5 395q-20.5 0 -35 13.5t-14.5 32t14.5 31.5t35 13t35 -13t14.5 -31.5t-14.5 -32t-35 -13.5zM265.5 31q-20.5 0 -35 13t-14.5 31.5t14.5 31.5t35 13t35 -13t14.5 -31.5t-14.5 -31.5t-35 -13z" />
    <glyph glyph-name="Ydieresis" unicode="&#x178;" horiz-adv-x="598" 
d="M462 834h-85v77h85v-77zM253 834h-84v77h84v-77zM584 724h20l-233 -373q-3 -4 -3 -9v-334h-109l2 281q0 5 -3 9l-239 386l-25 40h119h11l204 -334l187 299l21 35h48z" />
    <glyph glyph-name="dotaccent" unicode="&#x2d9;" horiz-adv-x="177" 
d="M148 605h-119v108h119v-108z" />
    <glyph glyph-name="quoteleft" unicode="&#x2018;" horiz-adv-x="218" 
d="M168 596q8 -3 11.5 -9.5t0.5 -13.5q-62 -146 -83 -195q-3 -7 -11 -10t-15 0q-3 1 -11 3.5t-10 3.5q-8 3 -11.5 10t0.5 14l90 192q4 7 11.5 10t15.5 0z" />
    <glyph glyph-name="quoteright" unicode="&#x2019;" horiz-adv-x="218" 
d="M168 596q8 -3 11.5 -9.5t0.5 -13.5l-83 -195q-3 -7 -11 -10t-15 0l-21 7q-8 3 -11.5 10t0.5 14l90 192q3 5 7 7.5t9 3.5t11 -1z" />
    <glyph glyph-name="quotesinglbase" unicode="&#x201a;" horiz-adv-x="137" 
d="M99 62q6 -2 9 -6t4 -9t-1 -10l-81 -184q-3 -7 -11 -10.5t-16 -0.5l-23 9q-8 2 -11.5 9.5t-0.5 14.5l82 184q2 5 6 8t9.5 4t10.5 -1z" />
    <glyph glyph-name="quoteleftreversed" unicode="&#x201b;" horiz-adv-x="246" 
d="M187 446q7 -4 10 -10.5t-1 -13.5l-14 -28q-4 -8 -12.5 -10.5t-15.5 1.5q-58 29 -78 60q-26 42 -29 88v5v26v81q0 8 6 13t15 5h103q8 0 14 -5t6 -13v-93q0 -8 -6 -13.5t-14 -5.5h-24q-10 0 -16.5 -7t-3.5 -16q4 -14 15 -32q8 -13 45 -32z" />
    <glyph glyph-name="quotedblleft" unicode="&#x201c;" horiz-adv-x="385" 
d="M168 596q8 -3 11.5 -9.5t0.5 -13.5l-83 -195q-3 -7 -11 -10t-15 0l-21 7q-8 3 -11.5 10t0.5 14l91 192q3 7 10.5 10t15.5 0zM335 596q8 -3 11 -9.5t0 -13.5l-82 -195q-3 -7 -11 -10t-16 0l-21 7q-8 3 -11 10t0 14l91 192q4 7 11.5 10t14.5 0z" />
    <glyph glyph-name="quotedblright" unicode="&#x201d;" horiz-adv-x="395" 
d="M168 595q8 -3 11.5 -10t-0.5 -14l-91 -192q-3 -7 -10.5 -10t-15.5 0l-12 5q-8 3 -11.5 9.5t-0.5 13.5l83 195q2 5 6.5 8t9.5 3.5t10 -1.5zM345 595q8 -3 11 -10t0 -14l-91 -192q-3 -7 -10.5 -10t-15.5 0l-13 5q-7 3 -10.5 9.5t-0.5 13.5l83 195q3 7 10.5 10t15.5 0z" />
    <glyph glyph-name="quotedblbase" unicode="&#x201e;" horiz-adv-x="334" 
d="M106 74q8 -3 11.5 -10t0.5 -14l-81 -185q-3 -7 -11 -10t-16 0l-23 8q-8 3 -11.5 10t-0.5 14l82 185q3 7 10.5 10t15.5 0zM295 74q7 -3 10.5 -10t0.5 -14l-81 -185q-3 -7 -11 -10t-16 0l-23 8q-8 3 -11.5 10t0.5 14l81 185q3 7 10.5 10t15.5 0z" />
    <glyph glyph-name="bullet" unicode="&#x2022;" horiz-adv-x="258" 
d="M128.5 364q38.5 0 65.5 -24.5t27 -59t-27 -59t-65.5 -24.5t-65.5 24.5t-27 59t27 59t65.5 24.5z" />
    <glyph glyph-name="ellipsis" unicode="&#x2026;" horiz-adv-x="751" 
d="M636 123q22 0 41 -10t30 -27t11 -38q0 -30 -24 -52t-58 -22t-58 22t-24 52.5t24 52.5t58 22zM114 123q34 0 58.5 -22t24.5 -52.5t-24.5 -52.5t-58.5 -22t-58 22t-24 52.5t24 52.5t58 22zM376 123q34 0 58 -22t24 -52.5t-24 -52.5t-58 -22t-58 22t-24 52.5t24 52.5t58 22z
" />
    <glyph glyph-name="guilsinglleft" unicode="&#x2039;" horiz-adv-x="311" 
d="M261 133q6 -5 6 -12.5t-6 -13.5l-17 -16q-6 -5 -14.5 -5.5t-14.5 5.5l-170 149q-6 5 -6 13t7 14l169 142q6 5 14.5 4.5t14.5 -5.5l17 -17q6 -5 5.5 -13t-6.5 -13l-119 -99q-6 -6 -6 -14t6 -13z" />
    <glyph glyph-name="guilsinglright" unicode="&#x203a;" horiz-adv-x="311" 
d="M265 267q7 -6 7 -14t-6 -14l-170 -148q-6 -6 -14.5 -6t-14.5 6l-17 16q-6 6 -6 13.5t6 12.5l120 106q6 5 6 13t-7 14l-118 99q-6 5 -6.5 13t5.5 13l17 17q6 5 14.5 5.5t14.5 -4.5z" />
    <glyph glyph-name="Euro" unicode="&#x20ac;" horiz-adv-x="721" 
d="M667 611q5 -6 3 -14t-9 -12l-21 -11q-16 -8 -26 5q-57 75 -161 75q-76 0 -127 -39t-74 -115q-1 -5 1 -10.5t7 -9t12 -3.5h137q9 0 15 -5.5t6 -12.5v-21q0 -5 -3 -9.5t-7.5 -6.5t-10.5 -2h-153q-8 0 -14 -5t-6 -13q-1 -18 -1 -37v-17q0 -5 3 -9t7.5 -6t9.5 -2h154
q9 0 15 -5.5t6 -13.5v-21q0 -4 -2 -7t-4.5 -5.5t-6.5 -4t-8 -1.5h-140q-10 0 -16 -7t-3 -16q23 -81 76 -127.5t127 -46.5q91 0 151 72q11 13 27 4l20 -12q7 -4 8.5 -12t-3.5 -14q-79 -95 -203 -96h-1q-123 1 -201 95q-50 59 -69 145q-3 15 -20 15h-91q-5 0 -10 2.5t-7.5 6.5
t-2.5 9v21q0 8 6 13.5t14 5.5h80q8 0 14 5.5t6 13v15.5q0 18 1 35q0 5 -2.5 9.5t-7.5 7.5t-10 3h-81q-5 0 -10 2t-7.5 6.5t-2.5 9.5v21q0 7 6 12.5t14 5.5h94q16 0 20 15q19 82 66 135q75 84 201 85h1q138 -1 214 -101z" />
    <glyph glyph-name="e.alt1" unicode="&#xf000;" horiz-adv-x="794" 
d="M676 328h-518q9 -120 73 -196.5t168 -76.5q81 0 152 42.5t101 112.5l64 -22q-40 -88 -122 -138.5t-195 -50.5q-108 0 -188.5 49.5t-120.5 131.5t-40 184t40 184t120.5 131.5t188.5 49.5q81 0 148 -28.5t110.5 -78.5t67 -116t23.5 -142q0 -17 -2 -36h-70zM158 373h482
q-5 140 -68 220t-173 80t-173.5 -80t-67.5 -220z" />
    <glyph glyph-name="a.alt1" unicode="&#xf001;" horiz-adv-x="743" 
d="M609 606q77 -90 64 -410l-4 -192l-104 -2l-1 59q0 -1 -2 -2.5t-3 -2.5q-27 -27 -58.5 -41.5t-63.5 -19.5t-80 -6h-13q-67 2 -131.5 25t-102.5 62q-71 73 -61 167q11 92 99 157.5t214 65.5q66 0 111 -17t83 -52l12 -11v19q-6 259 -220 263q-31 1 -60 -6.5t-50.5 -19.5
t-41.5 -28.5t-33.5 -31.5t-25.5 -32l-68 40q110 130 279 130q56 0 102 -12t85.5 -37t73.5 -65zM362 37q87 0 148.5 56t61.5 135.5t-61.5 136t-148.5 56.5t-148.5 -56.5t-61.5 -136t61.5 -135.5t148.5 -56z" />
    <glyph glyph-name="A.alt1" unicode="&#xf002;" horiz-adv-x="687" 
d="M369 723q65 0 126 -34t98 -90.5t37 -118.5v-294h-107v145h-360v-145h-107v294q0 62 37 118.5t98 90.5t126 34h52zM163 376h360v110q0 75 -53 134t-125 59h-4q-72 0 -124.5 -59t-52.5 -134zM56 52h574v-44h-574v44z" />
    <glyph glyph-name="U.alt1" unicode="&#xf003;" horiz-adv-x="681" 
d="M625 8h-570v44h570v-44zM518 723h107v-310q0 -46 -22 -88t-58.5 -72.5t-84 -48.5t-96.5 -18h-48q-49 0 -96.5 18t-84 48.5t-58.5 72.5t-22 88v310h107v-189l1 -126q0 -74 52 -126t125 -52t125.5 52t52.5 126v315z" />
    <glyph glyph-name="E.alt1" unicode="&#xf004;" horiz-adv-x="619" 
d="M548 421h-376v-191h408l-32 -44h-484v487v0v1v1v1v1v1v1v1v1v1v1v1v2v1v1v2v1v2v1v2v1v2v2v1v2v2v9h516l-32 -44h-376v-206h408zM580 8h-516v44h516v-44z" />
    <glyph glyph-name="O.alt1" unicode="&#xf005;" horiz-adv-x="658" 
d="M328.5 199q-74.5 0 -140.5 35t-106.5 96.5t-40.5 132.5t40.5 132.5t106.5 97t140.5 35.5t141 -35.5t107 -97t40.5 -132.5t-40.5 -132.5t-107 -96.5t-141 -35zM249 665q-75 -30 -101.5 -111t7.5 -164q33 -84 102 -121t144 -8q76 31 106.5 111.5t-2.5 163.5
q-33 84 -106.5 121.5t-149.5 7.5zM592 8h-526v44h526v-44z" />
    <glyph glyph-name="ampersand.alt1" unicode="&#xf006;" horiz-adv-x="1579" 
d="M1391 607q30 -7 55.5 -22.5t43.5 -37t28.5 -48t10.5 -54.5q0 -62 -45.5 -105.5t-106.5 -53.5q-39 -6 -75 -6q-71 0 -145 26q-6 3 -11 -1.5t-3 -10.5q16 -35 21 -73q3 -21 3 -44q0 -115 -71 -214q-74 -105 -204 -165t-280 -60q-91 0 -175.5 22t-153 62.5t-119.5 95
t-79.5 121.5t-28.5 138q0 124 80 228.5t216 160.5q6 2 6.5 7.5t-4.5 9.5q-65 45 -100.5 106.5t-35.5 129.5q0 71 40 136l24 40l-21 -9q-78 -35 -123.5 -53.5t-115.5 -38t-121 -19.5q-68 0 -120 15t-81 40t-43 53.5t-14 58.5q0 65 47 113.5t115 48.5q34 0 65 -12l-30 -78
q-20 8 -42 7q-44 -2 -66.5 -22t-18.5 -58q4 -47 50.5 -75t128.5 -28q31 0 62.5 4.5t72.5 17.5t61.5 20t75 28.5t67.5 26.5q65 25 102 38t95 30t107 24q48 9 95 9h4h4h1h2h3q109 -3 201 -46t145 -115t53 -156v-3q0 -79 -60 -136t-146 -59q-89 -1 -152.5 55t-63.5 136
q0 61 36 93l63 -45q-8 -7 -16 -29t-8 -37q0 -54 34 -90.5t91 -37.5q56 -1 88.5 44.5t32.5 104.5v4q0 106 -83.5 179t-219.5 75q-46 0 -96 -8q-108 -21 -166 -88t-58 -158q0 -164 148 -224q45 -17 122 -24q14 -1 24 -1l-2 -63q-39 0 -97 11q-83 15 -156 -19
q-52 -25 -88.5 -59.5t-56.5 -76.5t-29 -87t-9 -99q0 -64 19.5 -121.5t57 -103.5t90 -80t122 -53t147.5 -19q265 0 383 191q54 87 54 186q0 18 -2 37q-5 31 -15.5 60t-28.5 58.5t-48 48.5t-68 20q-47 0 -85 -13t-70 -42t-58 -75l-68 37q41 68 115.5 107.5t160.5 39.5h17
q24 -1 48 -6q70 -13 173 -58q4 -1 22 -9.5t23.5 -10.5t23 -9.5t25 -10t23.5 -8t25.5 -7t24 -4.5t25.5 -4t24.5 -1t25.5 2q48 6 80 37.5t30 71.5q-2 34 -33.5 62t-71.5 38z" />
    <glyph glyph-name="ampersand.alt2" unicode="&#xf007;" horiz-adv-x="1116" 
d="M1040 448q20 -29 25.5 -63.5t-10.5 -73t-54 -67.5q-20 -16 -49.5 -28.5t-57.5 -19t-53.5 -10t-40.5 -4.5l-16 -1q13 -16 24 -32q38 -51 38 -118q0 -47 -17.5 -92t-51.5 -85t-81 -70.5t-111.5 -48.5t-137.5 -18q-87 0 -162 30.5t-123.5 81t-77.5 112t-33 126.5
q-3 49 7 96.5t38.5 96t72.5 88.5t114 71.5t157 47.5q6 1 7.5 3.5t-1.5 8t-6.5 9.5t-9.5 10.5t-9 9.5q-59 70 -50 158q9 89 102.5 158t225.5 69q68 0 120.5 -14.5t82.5 -39.5t45 -55t15 -64q0 -60 -60.5 -110.5t-141.5 -50.5v70q46 0 69 26t23 64q0 21 -7.5 39.5t-24.5 35.5
t-48 26.5t-73 9.5q-49 0 -87.5 -14.5t-62.5 -39t-38 -54t-17 -62.5q-2 -23 0.5 -45.5t13 -48t28 -45.5t49 -36.5t73.5 -23.5l-7 -49h-1h-2v0q-4 0 -22.5 1.5t-55 1.5t-66.5 -3q-79 -9 -140 -34t-98 -59t-60 -77.5t-31 -85t-5 -85.5q3 -54 24.5 -105.5t58 -93t91.5 -67
t118.5 -25.5t115.5 24.5t83.5 62.5t48.5 80.5t17 83.5q0 52 -33 95t-79 47q-75 6 -121 -30q-23 -18 -29 -43t0.5 -45.5t19.5 -39.5l-70 -34q-19 28 -24 62.5t10.5 72.5t53.5 68q23 17 58.5 27t61 12t78 3t73.5 2q36 2 54.5 3t50 4.5t50.5 8t40 12.5t34 18q24 18 34 45.5
t7 52.5t-15 42z" />
    </font>
</defs>
</svg>
