<?xml version="1.0" standalone="no"?>
<!DOCTYPE svg PUBLIC "-//W3C//DTD SVG 1.1//EN" "http://www.w3.org/Graphics/SVG/1.1/DTD/svg11.dtd" >
<svg xmlns="http://www.w3.org/2000/svg" xmlns:xlink="http://www.w3.org/1999/xlink" version="1.1">
<metadata>
Created by FontForge 20170731 at Mon Mar 30 09:18:22 2020
 By Aleksey,,,
</metadata>
<defs>
<font id="CarlaSansSemibold" horiz-adv-x="840" >
  <font-face 
    font-family="Carla Sans Semibold"
    font-weight="600"
    font-stretch="normal"
    units-per-em="1000"
    panose-1="0 0 0 0 0 0 0 0 0 0"
    ascent="800"
    descent="-200"
    x-height="739"
    cap-height="741"
    bbox="-357 -329 1548 1224"
    underline-thickness="50"
    underline-position="-250"
    unicode-range="U+000A-F06B"
  />
<missing-glyph horiz-adv-x="527" 
d="M50 700h427v-700h-427v700zM78 680l185 -309l186 309h-371zM251 350l-180 300v-601zM264 329l-185 -308h370zM276 350l181 -303v605z" />
    <glyph glyph-name="Aa.liga" unicode="Aa" horiz-adv-x="1380" 
d="M1224 80l9 4l28 -51l-8 -4q-110 -62 -241 -62q-228 0 -401 194h-398l-8 -20l-49 -133h-138l14 38l254 694h127l1 -7q4 -15 9 -35q10 -34 22.5 -73.5t40.5 -108.5t60 -130.5t81.5 -130t103.5 -117.5t127.5 -81t152.5 -32q116 0 213 55zM560 224q-104 144 -182 393
l-143 -393h325zM1244 740h72v-498h-102l-1 43q-79 -63 -175 -63q-75 0 -140.5 37t-104.5 99t-39 131.5t39 131.5t104.5 99t140.5 37q100 0 180 -67zM1067 287q57 7 95.5 49.5t49.5 108.5q5 35 1 71q-2 23 -9 45q-19 62 -61.5 97t-98.5 35q-11 0 -22 -2q-73 -9 -117 -75
t-35 -153q11 -92 75 -143q54 -42 122 -33z" />
    <glyph glyph-name="Ai.liga" unicode="Ai" horiz-adv-x="1273" 
d="M1075 166h-129v577h129v-577zM1234 84l28 -51l-8 -5q-110 -62 -241 -62q-228 0 -401 195h-398l-8 -20l-49 -133h-138l14 38l254 694h127l1 -8l10 -35q9 -34 21.5 -73t40.5 -108.5t60 -131t81.5 -130t103.5 -117t127.5 -81t152.5 -32.5q116 0 213 55zM561 224
q-104 143 -182 392l-143 -392h325z" />
    <glyph glyph-name="Au.liga" unicode="Au" horiz-adv-x="1391" 
d="M1336 741v-320q0 -98 -73.5 -167.5t-177.5 -69.5h-28q-109 0 -191 71.5t-82 165.5v268l1 52h129v-320q0 -65 36.5 -112.5t106.5 -47.5h49q45 0 84 21.5t61 58.5t22 80l1 320h62zM1225 79l9 5l28 -51l-8 -5q-110 -62 -241 -62q-228 0 -401 195h-398l-8 -20l-49 -133h-138
l14 38l254 694h127l1 -8q4 -14 9 -35q10 -34 22.5 -73t40.5 -108.5t60 -131t81.5 -130t103.5 -117t127.5 -80.5t152.5 -32q116 0 213 54zM561 224q-104 143 -182 392l-143 -392h325z" />
    <glyph glyph-name="Ae.liga" unicode="Ae" horiz-adv-x="1365" 
d="M1322 479v-9q0 -15 -2 -33l-1 -9l-433 1q11 -75 56 -121.5t106 -46.5q105 0 171 101l6 9l58 -51l-5 -7q-93 -115 -229 -115q-101 0 -182.5 70t-94.5 169q-2 18 -2 33v9v4q6 105 88.5 181.5t190.5 76.5q69 0 130.5 -35t100 -94.5t42.5 -128.5v-4zM1208 492q-4 55 -25.5 97
t-56.5 65.5t-78 23.5q-66 0 -112 -52t-52 -134h324zM1225 79l9 5l28 -51l-8 -5q-110 -62 -241 -62q-228 0 -401 195h-398l-8 -20l-49 -133h-138l14 38l254 694h127l1 -8l10 -35q9 -34 21.5 -73t40.5 -108.5t60 -131t81.5 -130t103.5 -117t127.5 -80.5t152.5 -32
q116 0 213 54zM561 224q-104 143 -182 392l-143 -392h325z" />
    <glyph glyph-name="Ao.liga" unicode="Ao" horiz-adv-x="1383" 
d="M1052 217q-78 0 -146.5 37t-109 98.5t-40.5 131.5t40.5 132t109 98.5t146.5 36.5q117 0 203 -79t86 -187.5t-86 -188t-203 -79.5zM890 585q-31 -72 -6 -155q25 -82 90 -122.5t137 -18.5q70 21 99.5 92.5t3.5 156.5q-25 82 -87 123q-40 26 -86 26q-24 0 -49 -7
q-71 -22 -102 -95zM1225 79l9 5l28 -51l-8 -5q-110 -62 -241 -62q-228 0 -401 195h-398l-8 -20l-49 -133h-138l14 38l254 694h127l1 -8q4 -14 9 -35q10 -34 22.5 -73t40.5 -108.5t60 -131t81.5 -130t103.5 -117t127.5 -80.5t152.5 -32q116 0 213 54zM561 224
q-104 143 -182 392l-143 -392h325z" />
    <glyph glyph-name="Ac.liga" unicode="Ac" horiz-adv-x="1320" 
d="M1208 382l5 9l62 -36l-5 -9q-18 -30 -44.5 -55.5t-57 -43t-65 -27t-69.5 -9.5q-69 0 -132.5 34.5t-102.5 93.5q-44 65 -44 139t44 139q39 59 102.5 93.5t132.5 34.5q70 0 134.5 -37t101.5 -98l5 -9l-62 -36l-5 9q-22 36 -42.5 57.5t-51.5 36t-71 15.5q-52 1 -93.5 -29.5
t-63.5 -84.5q-18 -43 -18 -91t18 -91q22 -54 63.5 -84.5t93.5 -29.5q59 2 95.5 28.5t69.5 80.5zM1225 79l9 5l28 -51l-8 -5q-110 -62 -241 -62q-228 0 -401 195h-398l-8 -20l-49 -133h-138l14 38l254 694h127l1 -8l10 -35q9 -34 21.5 -73t40.5 -108.5t60 -131t81.5 -130
t103.5 -117t127.5 -80.5t152.5 -32q116 0 213 54zM561 224q-104 143 -182 392l-143 -392h325z" />
    <glyph glyph-name="CA.liga" unicode="CA" horiz-adv-x="1447" 
d="M605 105l7 4l46 -47l-11 -6q-94 -58 -204 -58q-106 0 -198 51.5t-146 139t-54 188t54 188t146 139t198 51.5q125 0 226 -73l10 -6l-58 -60l-7 5q-106 85 -231 65q-104 -15 -163 -100q-36 -50 -48 -116.5t2 -137.5q26 -133 119 -208t210 -57q55 8 102 38zM1327 261
l104 -253h-144l-8 19l-60 154q-63 -19 -140 -21q-93 -3 -190 31l-4 1q-5 2 -9 4l-76 -188h-69l86 212h-1q-23 11 -63 30q-40 20 -61 29t-57 22.5t-63 17t-62.5 4t-73 -9t-77.5 -27.5l-8 -3l-35 54l10 5q38 16 74 27t69.5 14t61.5 3.5t60 -6.5t53.5 -12t53.5 -18.5t49 -21.5
t49 -24q30 -14 46 -21l186 457h108zM1197 239l-152 382l-145 -364q91 -34 182 -34q63 0 115 16z" />
    <glyph glyph-name="CH.liga" unicode="CH" horiz-adv-x="1511" 
d="M1303 744l128 -1v-736h-129v287h-1q-32 -11 -50.5 -16t-49.5 -10.5t-63 -5.5h-6q-41 1 -81.5 6.5t-63 11.5t-63.5 17l-10 3v-293h-128v317q-50 14 -82 19.5t-75.5 6.5t-91 -10.5t-106.5 -36.5l-7 -3l-39 56l11 5q65 27 119.5 40.5t102 14t83 -5t85.5 -18.5v351h128v-375
l23 -6q40 -12 61.5 -17.5t58.5 -11t76 -6.5q33 0 66.5 6t52.5 12.5t50 18.5zM605 111l7 4l46 -47l-11 -6q-94 -58 -204 -58q-106 0 -198 51.5t-146 139t-54 188.5t54 188.5t146 139t198 51.5q125 0 226 -73l10 -7l-58 -60l-7 6q-106 84 -231 65q-104 -16 -163 -100
q-36 -51 -48 -117.5t2 -137.5q26 -133 119 -208t210 -57q54 8 102 38z" />
    <glyph glyph-name="EA.liga" unicode="EA" horiz-adv-x="1360" 
d="M1053 724l290 -714h-141l-8 18l-54 134l-364 -1l-34 -85l-12 -8q-18 -2 -43 -2h-7l-12 17l267 659h109zM1108 239l-161 360l-140 -361zM887 86l8 4l31 -51l-9 -5q-25 -13 -52 -23q-61 -24 -123 -30q-30 -3 -61 -3q-69 0 -150 15l-7 2q-115 23 -172 23h-11q-62 0 -185 -22
h-1l-75 -12v758h505l-48 -77h-331v-269h368l-48 -77h-320v-249q88 11 135 11q55 0 106 -9q25 -3 72 -13q15 -4 28 -6q52 -11 93 -14q52 -4 93 0q81 8 154 47z" />
    <glyph glyph-name="CF.liga" unicode="CF" horiz-adv-x="1306" 
d="M1278 678h-341v-269q6 2 23 7q95 27 167 30h10l3 -66h-10q-69 -3 -161 -31q-20 -6 -32 -10v-331h-131v309l-14 -5q-75 -20 -130 -20q-117 0 -249 55l-11 5l39 57l7 -3q60 -25 107.5 -36.5t91.5 -11t76 6.5t83 20v346h10v9h97h441zM605 111l7 4l46 -47l-11 -6
q-94 -58 -204 -58q-106 0 -198 51.5t-146 139t-54 188.5t54 188.5t146 139t198 51.5q125 0 226 -73l10 -7l-58 -60l-7 6q-106 84 -231 65q-104 -16 -163 -100q-36 -51 -48 -117.5t2 -137.5q26 -133 118.5 -208t210.5 -57q55 8 102 38z" />
    <glyph glyph-name="CE.liga" unicode="CE" horiz-adv-x="1337" 
d="M924 348l-1 -264h400l-60 -77h-468v311l-10 -4q-80 -21 -136 -21q-116 0 -248 55l-11 5l38 58l8 -3q46 -19 88.5 -29t72 -13t67 2t58.5 10t63 16l10 3v292v52h532l-65 -63h-339l1 -259q92 25 191 29l20 1l-51 -68h-5q-62 -3 -114 -20q-23 -8 -41 -13zM605 111l7 4l46 -47
l-11 -6q-94 -58 -204 -58q-106 0 -198 51.5t-146 139t-54 188.5t54 188.5t146 139t198 51.5q125 0 226 -73l10 -7l-58 -60l-7 6q-106 84 -231 65q-104 -16 -163 -100q-36 -51 -48 -117.5t2 -137.5q26 -133 118.5 -208t210.5 -57q55 8 102 38z" />
    <glyph glyph-name="Cb.liga" unicode="Cb" horiz-adv-x="1437" 
d="M625 153l6 5l60 -53l-8 -8q-105 -90 -245 -90q-103 0 -194.5 50.5t-146 136t-54.5 182t54.5 181.5t146 136t194.5 51q77 0 148 -30.5t124 -85.5l8 -8l-66 -48l-6 6q-27 28 -60.5 48t-71 30.5t-76.5 10.5q-77 0 -138 -37.5t-95 -104t-34 -150.5q0 -126 75.5 -208.5
t191.5 -82.5q106 0 187 69zM1244 392q62 -22 108 -73t46 -112q0 -79 -68.5 -139t-160.5 -60h-323v340q-50 14 -83.5 20t-77.5 6.5t-91.5 -11.5t-106.5 -36l-7 -3l-39 55l11 5q132 55 248 55q56 0 136 -21l10 -3v278q-1 38 0 44v8h8l4 2l2 -2h224q63 0 118 -28.5t88 -77
t33 -102.5q0 -68 -79 -145zM1084 394q58 0 85.5 42t27.5 100.5t-27.5 100.5t-85.5 42h-111v-285h111zM1272 206.5q0 53.5 -25 91.5t-78 38h-196v-259h196q53 0 78 38t25 91.5z" />
    <glyph glyph-name="Eh.liga" unicode="Eh" horiz-adv-x="1409" 
d="M1210 744h119v-733h-129v281h-382v-211l-8 -2q-12 -2 -68 -6q-21 -1 -25 -2h-10l-16 -1v674h127v-375h382v375h10zM887 89l8 4l31 -52l-9 -4q-25 -13 -52 -24q-30 -11 -61 -18.5t-62 -11.5q-30 -3 -61 -3q-69 0 -150 16l-7 2q-115 23 -172 23h-5h-6q-62 -1 -185 -22h-1
l-75 -12v758h505l-48 -78h-331v-268h368l-48 -77h-320v-249q88 10 135 11q55 0 106 -9q25 -4 72 -14q15 -3 28 -5q52 -11 93 -14q52 -4 93 0q81 8 154 47z" />
    <glyph glyph-name="En.liga" unicode="En" horiz-adv-x="1365" 
d="M1202 745h83v-733h-93l-419 523v-457l-8 -2q-18 -3 -31 -4q-4 -1 -10 -1l-34 -1v624q-1 6 0 41v9l9 1h72l5 -7l426 -531v538zM887 89l8 4l31 -52l-9 -4q-25 -13 -52 -24q-61 -23 -123 -30q-30 -3 -61 -3q-69 0 -150 16l-7 2q-115 23 -172 23h-5h-6q-62 -1 -185 -22h-1
l-75 -12v758h505l-48 -78h-331v-268h368l-48 -77h-320v-249q88 10 135 11q55 0 106 -9q25 -4 72 -14q15 -3 28 -5q52 -11 93 -14q52 -4 93 0q81 8 154 47z" />
    <glyph glyph-name="GA.liga" unicode="GA" horiz-adv-x="1560" 
d="M1264 734l278 -726h-135l-70 171q-54 -17 -135 -19h-12q-87 0 -177 31l-69 -183h-83l76 214q-23 10 -61 29q-42 20 -65 30q-25 -97 -95 -170l-7 -8q-96 -94 -231 -106q-2 -1 -5 -1h-3q-18 -1 -27 -1q-156 0 -266 108l-8 8h1q-127 129 -127 264q0 102 54.5 189.5
t147 139.5t198.5 52q79 0 151.5 -31.5t126.5 -89.5l7 -8l-66 -47l-5 6q-42 44 -98 68t-116 24q-61 0 -113 -28.5t-86 -75t-53 -105.5t-19 -120q0 -126 74 -201.5t197 -75.5q52 0 100.5 21.5t84.5 59.5q69 73 67 166q-101 17 -214 -32l-8 -4l-38 69l10 4q33 15 66 24.5
t60.5 15t58 5t52.5 -2t51 -9t47 -13t46.5 -17.5t43.5 -19t44 -21q30 -14 52 -25l175 446h120zM1313 255l-135 353l-136 -345q81 -28 158 -26q62 2 113 18z" />
    <glyph glyph-name="GH.liga" unicode="GH" horiz-adv-x="1624" 
d="M1414 745l129 -1v-736h-128l-1 263q-34 -12 -65 -18t-53.5 -7.5t-59.5 -1.5q-89 0 -205 30l1 -266h-128v298l-3 1q-52 15 -81 21q-6 -55 -35.5 -116.5t-65.5 -99.5v-1l-6 -8q-97 -94 -232 -106q-1 -1 -5 -1h-3q-18 -1 -26 -1h-3h-3q-156 0 -267 108l-7 8
q-123 126 -123 264q0 102 54 189.5t145.5 139.5t197.5 52h6q78 0 150.5 -31.5t126.5 -89.5l8 -8l-66 -47l-3 3l-4 -3l-6 6q-86 91 -210 92q-60 0 -111.5 -29t-85 -76t-52 -105t-18.5 -119q0 -18 2 -41q16 -88 68.5 -148.5t130.5 -79.5l3 -1q3 -1 5 -1l7 -1q25 -4 51 -5l6 1
h10l9 1q3 0 8 1q92 13 158 95t65 178q-125 10 -232 -41l-7 -4l-42 67l10 4q53 26 107 39t95.5 16t96 -5t87 -16t90.5 -24l-1 360h130l-1 -393l6 -2q43 -11 64 -16.5t56.5 -12t59.5 -6.5t57 2.5t66.5 11.5t71.5 25l2 340z" />
    <glyph glyph-name="GG.liga" unicode="GG" horiz-adv-x="1562" 
d="M1087 372h416v-347h-123l-2 6q-10 24 -17 27q-29 -17 -51.5 -26.5t-50 -15t-59.5 -5.5q-136 0 -240.5 84t-129.5 214h-1h-101v-284h-122l-3 6q-9 24 -16 27q-28 -16 -51 -26t-51 -15.5t-60 -5.5q-103 0 -190.5 50.5t-138 138t-50.5 190t50.5 190t138 138t190.5 50.5
q78 0 150.5 -31t125.5 -89l8 -8l-66 -47l-5 6q-28 29 -62.5 50t-73 31.5t-77.5 10.5q-113 0 -182 -83t-69 -218.5t69 -218.5t182 -83q52 0 91 18t82 56q3 3 3 6v141h-137l-34 63h392v18q0 76 30 146.5t80.5 121t121 80.5t146.5 30q79 0 151 -31t126 -89l7 -8l-65 -47l-6 6
q-27 29 -61.5 50t-73 31.5t-78.5 10.5q-113 0 -182.5 -83t-69.5 -218.5t69.5 -218.5t182.5 -83q53 0 92 18t81 56q3 3 3 6v141h-241z" />
    <glyph glyph-name="HH.liga" unicode="HH" horiz-adv-x="1591" 
d="M1384 739h127v-735h-127v289h-353v-93q0 -67 -58 -119q-38 -33 -88 -49t-100 -10q-47 5 -91 30t-73 66t-29 88v87h-385v-289h-128v736h128v-10h383v16h120v-1h9v-15h184v16h118v-1h10v-15l353 -1v10zM1384 729l-353 1v-360h353v359zM903 730h-184v-530q0 -52 31 -80
q28 -26 72 -22q26 2 43.5 14.5t24.5 30.5t10 32.5t3 29.5v525zM589 730h-382v-360h382v360z" />
    <glyph glyph-name="Ha.liga" unicode="Ha" horiz-adv-x="1491" 
d="M1386 105l49 -50l-11 -7q-109 -61 -234 -61q-78 0 -185 23q-91 20 -150 20q-118 0 -184 -22l-76 -25v310h-387v-282h-128v734h118h10v-388h387v388h120h9v-663q63 12 131 12t168 -22q99 -21 167 -21q101 0 190 50zM1134 222q-75 0 -140.5 37t-104.5 99t-39 131.5
t39 131.5t104.5 99t140.5 37q100 0 180 -67l26 50h72v-498h-102l-1 43q-79 -63 -175 -63zM1163 287q57 7 95.5 49.5t49.5 108.5q6 36 2 71q-3 23 -10 45q-12 41 -35.5 70.5t-55.5 45.5t-69 16q-11 0 -22 -2q-48 -6 -85 -38.5t-55 -82.5t-11 -107q10 -92 74 -143
q54 -42 122 -33z" />
    <glyph glyph-name="Hi.liga" unicode="Hi" horiz-adv-x="1223" 
d="M1177 103l30 -51l-7 -5q-53 -36 -100 -53.5t-100 -20.5h-12q-31 0 -102 12q-102 18 -153 15q-75 -4 -125 -16l-13 -3l1 9l-1 4v297h-387v-282h-128v734h118h10v-388h387v388h120h9v-679q4 0 7 1q76 7 172 -15q59 -14 92 -13q56 2 95 17.5t79 42.5zM1070 170h-129v577h129
v-577z" />
    <glyph glyph-name="Hu.liga" unicode="Hu" horiz-adv-x="1485" 
d="M1386 105l49 -50l-11 -7q-109 -61 -234 -61q-78 0 -185 23q-91 20 -150 20q-118 0 -184 -22l-76 -25v310h-387v-282h-128v734h118h10v-388h387v388h120h9v-663q63 12 131 12t168 -22q99 -21 167 -21q101 0 190 50zM1134 190q-109 0 -191 71.5t-82 166.5v267v52h129v-319
q0 -66 37 -113t107 -47h28q45 0 84 21t61.5 58t22.5 81v319h83v-319q0 -98 -73.5 -168t-177.5 -70h-28z" />
    <glyph glyph-name="He.liga" unicode="He" horiz-adv-x="1475" 
d="M1386 105l49 -51l-11 -6q-109 -61 -234 -61q-78 0 -185 23q-91 20 -150 20q-118 0 -184 -22l-76 -25v310h-387v-282h-128v734h118h10v-388h387v388h120h9v-663q63 12 131 12t169 -22q98 -21 166 -21q101 0 190 50zM1138 204q-102 0 -183 70t-94 169q-2 18 -2 33v9v5
q6 104 88.5 180.5t190.5 76.5q105 0 186 -76.5t87 -181.5v-4v-9q0 -15 -2 -33l-1 -9l-433 1q11 -75 56 -121t106 -46q105 0 171 100l6 9l58 -51l-5 -7q-93 -115 -229 -115zM973 499l324 -1q-6 83 -50.5 134.5t-110 51.5t-111.5 -52t-52 -133z" />
    <glyph glyph-name="Ho.liga" unicode="Ho" horiz-adv-x="1471" 
d="M1386 105l49 -50l-11 -7q-109 -61 -234 -61q-78 0 -185 23q-91 20 -150 20q-118 0 -184 -22l-76 -25v310h-387v-282h-128v734h118h10v-388h387v388h120h9v-663q63 12 131 12t168 -22q99 -21 167 -21q101 0 190 50zM1109 223q-77 0 -145.5 37t-109.5 99t-41 131.5
t41 131.5t109.5 98.5t145.5 36.5q118 0 204 -79t86 -188q0 -71 -39.5 -132.5t-106.5 -98t-144 -36.5zM947 591q-31 -72 -5 -154q16 -55 52 -92.5t80.5 -50t93.5 0.5q70 21 99.5 92.5t3.5 156.5q-25 83 -87 123q-40 26 -86 26q-24 0 -48 -7q-72 -22 -103 -95z" />
    <glyph glyph-name="Hc.liga" unicode="Hc" horiz-adv-x="1468" 
d="M1386 105l49 -51l-11 -6q-109 -61 -234 -61q-78 0 -185 23q-91 20 -150 20q-118 0 -184 -22l-76 -25v310h-387v-282h-128v734h118h10v-388h387v388h120h9v-663q63 12 131 12t169 -22q98 -21 166 -21q101 0 190 50zM1150 217q-27 0 -54.5 5.5t-53 16.5t-48.5 26.5
t-43 35.5t-36 44q-44 65 -44 139t44 139q20 30 46.5 53.5t56.5 40t64 25.5t68 9q71 0 135 -37t102 -98l5 -9l-63 -35l-4 8q-34 54 -70.5 81t-94.5 28q-26 1 -50 -6.5t-44 -22.5t-36.5 -36.5t-27.5 -48.5q-17 -43 -17 -91t17 -91q22 -54 64 -84.5t94 -28.5q58 1 94.5 27.5
t70.5 81.5l4 8l63 -36l-5 -8q-25 -41 -62.5 -72t-82.5 -47.5t-92 -16.5z" />
    <glyph glyph-name="Hg.liga" unicode="Hg" horiz-adv-x="1478" 
d="M1144 203q-124 0 -204 75t-80 190t80 189.5t204 74.5q80 0 143.5 -33t98.5 -93l6 -11l-102 -31l-4 8q-21 47 -58 72t-85 25q-74 0 -121 -56.5t-47 -145t47 -144.5t121 -56q58 0 100 37t57 101h-168v63h289v-10v-16q-5 -105 -82 -172t-195 -67zM1386 105l49 -50l-11 -7
q-109 -61 -234 -61q-78 0 -185 23q-91 20 -150 20q-118 0 -184 -22l-76 -25v310h-387v-282h-128v734h118h10v-388h387v388h120h9v-663q63 12 131 12t168 -22q99 -21 167 -21q101 0 190 50z" />
    <glyph glyph-name="Ki.liga" unicode="Ki" horiz-adv-x="1056" 
d="M865 167h-130v577h130v-577zM1004 139l38 -40l-7 -7q-43 -41 -91 -64q-62 -30 -134 -34h-20q-44 0 -84 6t-71.5 15t-61 24.5t-50.5 29.5t-42.5 35t-34.5 35.5t-28.5 37.5t-22 34.5t-18.5 31.5q-23 41 -59 126l-7 16l-101 -108l-1 -259v-10h-129v735h121h7v-388l360 388
h47l14 15v-15h12l-12 -14q-1 -2 -3 -4l-27 -30l-204 -218q43 -105 78 -177q30 -61 54 -94q32 -42 76 -76q28 -21 62.5 -37.5t71 -25.5t70.5 -9q5 0 11 1q100 3 179 74z" />
    <glyph glyph-name="Kg.liga" unicode="Kg" horiz-adv-x="1256" 
d="M901 203q-124 0 -204 75t-80 190t80 189.5t204 74.5q53 0 99.5 -14.5t83 -43t59.5 -68.5l6 -11l-102 -31l-4 7q-21 48 -58 73t-85 25q-37 0 -68 -15t-53 -41.5t-34.5 -63.5t-12.5 -81q0 -89 47 -145t121 -56q38 0 70 16.5t54.5 47.5t32.5 74h-168v63l289 -1v-9v-16
q-5 -105 -82 -172t-195 -67zM1187 151l33 -53l-7 -5q-52 -41 -111 -64q-76 -30 -165 -33q-12 -1 -24 -1q-70 0 -133 10t-108.5 23.5t-88.5 37.5t-69 42.5t-55 48t-41.5 45t-32.5 41.5q-32 41 -80 127l-4 6l-92 -99v-268h-129v735h120h8l1 -349l324 349h82l14 16v-16h12
l-12 -14l-2 -2l-28 -32l-213 -228q54 -100 98 -168q25 -39 71 -88q43 -45 103 -80q121 -73 262 -71q9 0 16 1q137 5 243 83z" />
    <glyph glyph-name="KA.liga" unicode="KA" horiz-adv-x="1439" 
d="M1057 741q81 0 153 -41.5t115 -111t43 -148.5v-431h-130v281h-419v-184l-9 -1q-23 -2 -62 7q-28 6 -54 20l-5 3v305q0 59 25.5 114.5t67.5 96t99.5 65.5t117.5 25h58zM1238 367v81q-3 91 -62.5 153t-142.5 62h-9q-55 0 -101.5 -28t-74 -78t-29.5 -109v-8v-73h419z
M985 134l6 6l52 -44l-8 -7q-43 -41 -91 -64q-62 -30 -134 -34h-20q-56 0 -105.5 10t-85.5 23.5t-69.5 37.5t-54 43t-42.5 48.5t-31.5 45t-24.5 41.5q-23 41 -59 126l-7 16l-101 -108l-1 -259v-10h-129v735h120h8l1 -349l324 349h82l14 15v-15h12l-12 -14q-1 -2 -2 -2v-1
l-28 -31l-204 -219q43 -104 78 -176q30 -61 54 -94q32 -42 76 -76q94 -72 203 -67q101 3 179 74z" />
    <glyph glyph-name="KU.liga" unicode="KU" horiz-adv-x="1315" 
d="M1193 743h63v-320q0 -98 -74 -167.5t-177 -69.5h-29q-108 0 -190 71.5t-82 165.5v268v52h129v-320q0 -65 37 -112.5t106 -47.5h49q69 0 118.5 47t49.5 113v320zM1179 141l8 6l33 -53l-7 -6q-52 -40 -111 -63q-76 -30 -165 -34h-24q-70 0 -133 9.5t-108.5 23.5t-88.5 38
t-69 42.5t-55 48t-41.5 45t-32.5 41.5q-32 41 -81 127l-3 6l-92 -99v-268h-129v735h120h8l1 -349l324 348l82 1l14 15v-15h12l-12 -14q-1 -2 -2 -2v-1l-28 -31l-213 -229q54 -99 98 -167q24 -39 71 -88q43 -45 103 -81q121 -72 262 -70q9 0 16 1q137 4 243 83z" />
    <glyph glyph-name="Ka.liga" unicode="Ka" horiz-adv-x="1289" 
d="M936 206q-74 0 -140 37t-105 99t-39 131.5t39 131.5t105 98.5t140 36.5q100 0 180 -66l26 50h72v-498h-102l-1 43q-79 -63 -175 -63zM965 271q38 5 68 25.5t50 54.5t27 78q6 36 2 71q-3 22 -10 45q-18 61 -61 96.5t-99 35.5q-10 0 -22 -2q-73 -9 -117 -75.5t-34 -152.5
q10 -93 75 -143q53 -42 121 -33zM1187 147l33 -53l-7 -6q-52 -40 -111 -63q-76 -30 -165 -34h-24q-70 0 -133 9.5t-108.5 23.5t-88.5 38t-69 42.5t-55 48t-41.5 45t-32.5 41.5q-31 41 -80 126l-4 7l-92 -99v-268h-129v735h121h7l1 -349l324 348l82 1l14 15v-15h12l-12 -14
q-1 -2 -2 -2v-1l-28 -31l-213 -229q54 -99 98 -167q25 -39 71 -88q43 -46 103 -81q121 -72 262 -70h16q137 5 243 84z" />
    <glyph glyph-name="KO.liga" unicode="KO" horiz-adv-x="1285" 
d="M943 206q-77 0 -145.5 37t-109.5 99t-41 131.5t41 131.5t109.5 98.5t145.5 36.5q118 0 204 -79t86 -187.5t-86 -188t-204 -79.5zM884 669q-72 -22 -103 -95q-30 -72 -5 -155q25 -82 89.5 -122.5t136.5 -18.5q70 21 99.5 92.5t3.5 156.5q-25 83 -86 123q-41 26 -87 26
q-24 0 -48 -7zM1179 141l8 6l33 -53l-7 -6q-52 -40 -111 -63q-76 -30 -165 -34h-24q-70 0 -133 9.5t-108.5 23.5t-88.5 38t-69 42.5t-55 48t-41.5 45t-32.5 41.5q-31 41 -80 126l-4 7l-92 -99v-268h-129v735h120h8l1 -349l324 348l82 1l14 15v-15h12l-12 -14q-1 -2 -2 -2v-1
l-28 -31l-213 -229q54 -99 98 -167q25 -39 71 -88q43 -45 103 -81q121 -72 262 -70q9 0 16 1q137 4 243 83z" />
    <glyph glyph-name="Ke.liga" unicode="Ke" horiz-adv-x="1262" 
d="M640 479v4q4 68 43 127.5t102 94.5t133 35t131.5 -35t100 -94.5t41.5 -128.5l1 -4v-9q0 -15 -2 -33l-1 -9l-433 1q11 -74 55.5 -120.5t105.5 -46.5q105 0 171 100l6 9l59 -51l-6 -7q-93 -114 -229 -114q-101 0 -182 70t-94 168q-3 18 -3 33q0 4 1 10zM753 492h325
q-6 82 -50.5 133.5t-110 51.5t-111.5 -52t-53 -133zM1187 147l33 -53l-7 -6q-52 -40 -111 -63q-76 -30 -165 -34h-24q-50 0 -95.5 4t-84 13.5t-71.5 19.5t-62.5 25.5t-52.5 28.5t-45.5 32.5l-37.5 32.5t-32 33.5t-25.5 30.5t-21.5 28q-32 41 -81 127l-3 6l-92 -99v-268h-129
v735h120h8l1 -349l324 348l82 1l14 15v-15h12l-12 -14q-1 -2 -2 -2v-1l-28 -31l-213 -229q54 -99 98 -167q24 -39 71 -88q43 -45 103 -81q121 -72 262 -70h16q137 5 243 84z" />
    <glyph glyph-name="Kc.liga" unicode="Kc" horiz-adv-x="1248" 
d="M1187 151l33 -53l-7 -6q-52 -40 -111 -63q-76 -30 -165 -34h-24q-70 0 -133 9.5t-108.5 23.5t-88.5 38t-69 42.5t-55 48t-41.5 45t-32.5 41.5q-32 41 -80 126l-4 7l-91 -98l-1 -260v-9h-129v735h120h8l1 -350l324 349l82 1l14 15v-15h12l-12 -14q-1 -2 -2 -2v-1l-28 -31
l-213 -229q54 -99 98 -168q25 -38 71 -87q43 -45 103 -81q121 -72 262 -70h16q137 5 243 83zM673 340q-44 65 -44 139t44 139q40 59 103 93.5t132 34.5q71 0 135 -37t102 -98l5 -9l-62 -35l-5 8q-22 36 -42.5 58t-51.5 36t-71 15h-3q-50 0 -91.5 -30.5t-63.5 -83.5
q-17 -43 -17 -91t17 -91q22 -54 64.5 -84.5t93.5 -29.5q40 1 71 15.5t51.5 36.5t42.5 58l5 8l62 -36l-5 -8q-25 -41 -62.5 -72t-82.5 -47.5t-92 -16.5q-69 0 -132 34.5t-103 93.5z" />
    <glyph glyph-name="La.liga" unicode="La" horiz-adv-x="1088" 
d="M206 745v-670h520l-42 -64h-605v724h10v10h117zM791 727l281 -713h-139l-7 18l-53 135h-432l234 579h109zM849 230l-5 12l-151 384l-158 -396h314z" />
    <glyph glyph-name="LA.liga" unicode="LA" horiz-adv-x="1190" 
d="M774 103l6 -4l44 -36l-11 -7q-38 -26 -81 -42q-37 -13 -74 -19q-26 -3 -55 -3q-19 0 -40 1q-40 3 -91 15l-24 6q-81 20 -127 20h-7q-49 -1 -119.5 -8.5t-101.5 -18.5l-13 -5v743h128v-658q47 10 105 10l8 1q57 0 161 -27l10 -2q45 -11 78 -14q43 -3 77 1q60 7 118 42z
M891 727l280 -713h-138l-8 18l-53 135h-363l-29 -74h-69l15 38l248 615h110zM948 230l-4 12l-151 384l-158 -396h313z" />
    <glyph glyph-name="lA.liga" unicode="lA" horiz-adv-x="1211" 
d="M913 720l280 -713h-138l-8 18l-60 154q-61 -19 -140 -20h-12q-88 0 -179 31l-12 5l-75 -188h-69l1 1h-421v738h128v-661h324l54 133l-1 1q-22 10 -64 30t-65 30.5t-59.5 23.5t-70.5 16.5t-69 0.5l-11 -1v69l9 1q42 2 82 -3t81.5 -19.5t67 -25.5t70.5 -33q35 -17 53 -26
q2 0 3 -1l184 458h110zM962 243l-147 377l-145 -362l10 -4q82 -29 169 -27q69 2 113 16z" />
    <glyph glyph-name="LH.liga" unicode="LH" horiz-adv-x="1374" 
d="M207 746v-661h381l-52 -77h-457v738h128zM1284 744h11v-736h-129v287l-4 -2q-31 -10 -49 -15t-48.5 -10t-62.5 -5h-5q-41 0 -79 5.5t-60 11t-62 16.5l-15 4v-292h-127v316q-50 14 -83.5 20t-77.5 6.5t-91.5 -11t-106.5 -36.5l-7 -3l-39 55l11 5q53 22 100.5 34.5t84 17.5
t75.5 2.5t67.5 -8t66.5 -15.5v353h127v-377q13 -3 27 -7q38 -12 58.5 -17.5t56.5 -10.5t75 -6q32 0 65 6t51.5 12t49.5 18l2 1v329v52h118z" />
    <glyph glyph-name="la.liga" unicode="la" horiz-adv-x="1255" 
d="M873 741q81 0 153 -41.5t114.5 -111t42.5 -148.5v-431h-130v281h-419v-184l-9 -1q-22 -2 -61 7q-30 7 -55 20l-5 3v305q0 79 43 148.5t114.5 111t153.5 41.5h58zM1053 367v81q-3 91 -62.5 153t-142.5 62h-9q-54 0 -100.5 -28t-74.5 -78t-30 -109v-8v-73h419zM775 103
l6 -4l44 -36l-11 -7q-38 -26 -81 -42q-37 -13 -74 -19q-43 -6 -95 -2q-40 3 -91 15l-24 6q-81 20 -127 20h-7q-116 -1 -221 -45l-13 -5v761h128v-658q47 10 105 10l8 1q57 0 161 -27l10 -2q45 -11 78 -14q43 -3 77 1q60 7 118 42z" />
    <glyph glyph-name="LL.liga" unicode="LL" horiz-adv-x="859" 
d="M430 224q-21 5 -32 8l-53 17l1 497h127v-461q56 -22 119 -22q80 0 152 47l6 4l54 -45l-11 -7q-93 -63 -201 -63q-67 0 -159 24zM783 104l53 -47l-10 -7q-98 -63 -211 -63q-70 0 -165 24q-80 20 -130 20q-62 0 -229 -22l-11 -1v738h129v-660q65 9 111 9q61 0 151 -22
q86 -21 144 -21q86 0 162 48z" />
    <glyph glyph-name="ll.liga" unicode="ll" horiz-adv-x="824" 
d="M206 746v-670h594l-41 -63h-680v733h127zM800 238l-41 -64h-415v572h127v-508h329z" />
    <glyph glyph-name="Lu.liga" unicode="Lu" horiz-adv-x="973" 
d="M882 131l39 -63l-9 -5q-130 -74 -258 -74q-67 0 -172 23q-77 16 -139 19q-43 1 -124 -11t-126 -26l-13 -4v756h129v-656q76 14 135 14q57 0 153 -20q98 -21 157 -21q106 0 220 64zM616 186q-109 0 -191 71.5t-82 165.5v268l1 52h128v-320q0 -65 37 -112.5t107 -47.5h28
q69 0 118.5 47t49.5 113v320h83v-319q0 -99 -73.5 -168.5t-177.5 -69.5h-28z" />
    <glyph glyph-name="Lo.liga" unicode="Lo" horiz-adv-x="972" 
d="M882 131l39 -63l-9 -5q-130 -74 -258 -74q-67 0 -172 23q-77 16 -139 19q-28 1 -77 -4.5t-96.5 -14.5t-76.5 -18l-13 -4v756h129v-656q76 14 135 14q57 0 153 -20q98 -21 157 -21q106 0 220 64zM625 206q-78 0 -146.5 37t-109 99t-40.5 131.5t40.5 131.5t109 98.5
t146.5 36.5q117 0 203.5 -79t86.5 -187.5t-86.5 -188t-203.5 -79.5zM463 574q-31 -72 -6 -154.5t90 -123t137 -18.5q70 21 99.5 92.5t3.5 156.5q-25 83 -87 123q-40 26 -86 26q-24 0 -49 -7q-71 -22 -102 -95z" />
    <glyph glyph-name="Le.liga" unicode="Le" horiz-adv-x="967" 
d="M882 131l39 -63l-9 -5q-130 -74 -258 -74q-67 0 -172 23q-77 16 -139 19q-43 1 -124 -11t-126 -26l-13 -4v756h129v-656q76 14 135 14q57 0 153 -20q98 -21 157 -21q106 0 220 64zM631 198q-101 0 -182.5 70t-94.5 168q-2 18 -2 33v10l1 4q6 105 88.5 181t189.5 76
q69 0 131 -35t100 -94.5t42 -128.5v-4q1 -6 1 -9q0 -15 -3 -33l-1 -9l-433 1q11 -74 56 -120.5t106 -46.5q105 0 171 100l6 9l59 -51l-6 -7q-93 -114 -229 -114zM466 492h325q-7 82 -51 133.5t-110 51.5t-112 -52t-52 -133z" />
    <glyph glyph-name="Lc.liga" unicode="Lc" horiz-adv-x="951" 
d="M882 131l39 -63l-9 -5q-130 -74 -258 -74q-67 0 -172 23q-77 16 -139 19q-43 1 -124 -11t-126 -26l-13 -4v756h129v-656q76 14 135 14q57 0 153 -20q98 -21 157 -21q106 0 220 64zM612 212q-69 0 -132.5 34.5t-103.5 93.5q-43 65 -43 139t43 139q27 39 64.5 68t81.5 44.5
t90 15.5t91 -16.5t82.5 -47.5t62.5 -71l5 -9l-62 -35l-5 8q-22 36 -42.5 58t-51.5 36t-71 15h-3q-50 0 -91.5 -30.5t-63.5 -83.5q-17 -43 -17 -91t17 -91q22 -53 64.5 -84t93.5 -30q58 2 95 28.5t70 81.5l5 8l62 -36l-5 -8q-37 -62 -101.5 -99t-134.5 -37z" />
    <glyph glyph-name="Li.liga" unicode="Li" horiz-adv-x="729" 
d="M678 106l37 -51l-8 -6q-82 -62 -178 -62q-59 0 -140 23q-68 20 -111 20q-28 0 -61.5 -3.5t-66 -10t-55.5 -13.5l-14 -9l-1 17l1 734h128v-660q32 9 69 9q52 0 128 -22q73 -21 123 -21q75 0 141 49zM577 168h-129v578h129v-578z" />
    <glyph glyph-name="li.liga" unicode="li" horiz-adv-x="741" 
d="M206 76h527l-42 -64h-612v734h127v-670zM576 174h-129v572h129v-572z" />
    <glyph glyph-name="Lg.liga" unicode="Lg" horiz-adv-x="983" 
d="M865 101l6 4l49 -50l-11 -7q-109 -61 -234 -61q-78 0 -185 23q-91 20 -150 20q-61 0 -138 -8.5t-108 -19.5l-13 -4l-1 696l1 51h128v-662q77 11 131 11q68 0 169 -22q98 -21 166 -21q101 0 190 50zM936 470v-15q-5 -106 -82.5 -172.5t-194.5 -66.5q-124 0 -204 74.5
t-80 189.5q0 76 36.5 136.5t101 94.5t146.5 34q80 0 143 -33.5t99 -93.5l6 -11l-103 -31l-3 8q-21 47 -58 72t-85 25q-49 0 -87.5 -25.5t-59.5 -71t-21 -104.5q0 -89 47 -145t121 -56q58 0 100 37t56 101l-168 1v63l290 -1v-10z" />
    <glyph glyph-name="Ld.liga" unicode="Ld" horiz-adv-x="959" 
d="M871 105l49 -50l-11 -7q-109 -61 -234 -61q-78 0 -185 23q-91 20 -149 20q-62 0 -139 -8.5t-108 -19.5l-13 -4l-1 696l1 51h128v-662q77 11 132 11q67 0 168 -22q98 -21 166 -21q101 0 190 50zM582 186h-181v508v41h68h113q139 0 223.5 -73.5t84.5 -201.5
q0 -122 -102 -208q-78 -66 -206 -66zM511 691v-461h71q197 0 197 230.5t-197 230.5h-71z" />
    <glyph glyph-name="Lr.liga" unicode="Lr" horiz-adv-x="955" 
d="M871 105l49 -50l-11 -7q-109 -61 -234 -61q-78 0 -185 23q-91 20 -149 20q-62 0 -139 -8.5t-108 -19.5l-13 -4l-1 696l1 51h128v-662q77 11 132 11q67 0 168 -22q98 -21 166 -21q101 0 190 50zM552 176h-129v569h95h100q48 0 95.5 -20t82.5 -52.5t57 -75.5t22 -88v-8
q0 -103 -102 -165l90 -160h-149l-72 122h-25h-65v-122zM552 680v-317h66q33 0 59 14t40.5 37t21 49t6.5 54v9q0 29 -6.5 55t-21 48.5t-40.5 36.5t-59 14h-66z" />
    <glyph glyph-name="Lk.liga" unicode="Lk" horiz-adv-x="939" 
d="M871 105l49 -50l-11 -7q-109 -61 -234 -61q-78 0 -185 23q-91 20 -149 20q-62 0 -139 -8.5t-108 -19.5l-13 -4l-1 696l1 51h128v-662q77 11 132 11q67 0 168 -22q98 -21 166 -21q101 0 190 50zM515 385v-208h-129v515q1 11 1 20l-1 -1v33l6 1l2 1l3 -1h118v-269l248 267
l88 2l-238 -256l273 -312h-164l-3 4l-186 223z" />
    <glyph glyph-name="Lm.liga" unicode="Lm" horiz-adv-x="1017" 
d="M865 101l6 4l49 -51l-11 -6q-109 -61 -234 -61q-78 0 -185 23q-91 20 -150 20q-62 0 -139 -8.5t-108 -19.5l-13 -4v747h129v-662q77 11 131 11q68 0 169 -22q98 -21 166 -21q101 0 190 50zM455 517l-26 -340h-63l42 568h66h4l186 -338l183 336h68l43 -566h-128l-28 347
l-178 -313z" />
    <glyph glyph-name="Ln.liga" unicode="Ln" horiz-adv-x="962" 
d="M871 105l49 -50l-11 -7q-109 -61 -234 -61q-78 0 -185 23q-91 20 -149 20q-62 0 -139 -8.5t-108 -19.5l-13 -4l-1 696l1 51h128v-662q77 11 132 11q67 0 168 -22q98 -21 166 -21q101 0 190 50zM449 549v-372h-63v568h71l-1 -3l346 -371l1 374h62v-568h-68l-3 3z" />
    <glyph glyph-name="Lp.liga" unicode="Lp" horiz-adv-x="950" 
d="M871 105l49 -50l-11 -7q-109 -61 -234 -61q-78 0 -185 23q-91 20 -149 20q-62 0 -139 -8.5t-108 -19.5l-13 -4l-1 696l1 51h128v-662q77 11 132 11q67 0 168 -22q98 -21 166 -21q101 0 190 50zM554 298v-124h-128v571h191q102 0 178.5 -65.5t76.5 -153.5v-9
q0 -57 -35 -107.5t-94 -81t-126 -30.5h-63zM746 517v10q0 28 -7 54t-21.5 49.5t-40.5 37.5t-60 14h-63v-320h63q34 0 60 14t40.5 37t21.5 49t7 55z" />
    <glyph glyph-name="Lt.liga" unicode="Lt" horiz-adv-x="935" 
d="M871 105l49 -50l-11 -7q-109 -61 -234 -61q-78 0 -185 23q-91 20 -149 20q-62 0 -139 -8.5t-108 -19.5l-13 -4l-1 696l1 51h128v-662q77 11 132 11q67 0 168 -22q98 -21 166 -21q101 0 190 50zM553 681h-141l-33 64h496l-27 -64h-169v-506h-126v506z" />
    <glyph glyph-name="Lv.liga" unicode="Lv" horiz-adv-x="940" 
d="M871 105l49 -50l-11 -7q-109 -61 -234 -61q-78 0 -185 23q-91 20 -149 20q-62 0 -139 -8.5t-108 -19.5l-13 -4l-1 696l1 51h128v-662q77 11 132 11q67 0 168 -22q98 -21 166 -21q101 0 190 50zM677 177h-121l-217 568h137l2 -6l171 -454l169 460h75z" />
    <glyph glyph-name="Lx.liga" unicode="Lx" horiz-adv-x="940" 
d="M871 105l49 -50l-11 -7q-109 -61 -234 -61q-78 0 -185 23q-91 20 -150 20q-61 0 -138 -8.5t-108 -19.5l-13 -4l-1 696l1 51h128v-662q77 11 131 11q68 0 169 -22q98 -21 166 -21q101 0 190 50zM403 177l174 261l-178 304h152l106 -184l123 184h75l-164 -244l185 -321
h-147l-117 201l-135 -201h-74z" />
    <glyph glyph-name="Ly.liga" unicode="Ly" horiz-adv-x="934" 
d="M871 105l49 -50l-11 -7q-109 -61 -234 -61q-78 0 -185 23q-91 20 -150 20q-61 0 -138 -8.5t-108 -19.5l-13 -4l-1 696l1 51h128v-662q77 11 131 11q68 0 169 -22q98 -21 166 -21q101 0 190 50zM682 175h-112v239l-190 331h147l134 -236l140 236h68l-9 -15
q-165 -289 -178 -315v-240z" />
    <glyph glyph-name="Lz.liga" unicode="Lz" horiz-adv-x="944" 
d="M871 105l49 -50l-11 -7q-109 -61 -234 -61q-78 0 -185 23q-91 20 -150 20q-61 0 -138 -8.5t-108 -19.5l-13 -4l-1 696l1 51h128v-662q77 11 131 11q68 0 169 -22q98 -21 166 -21q101 0 190 50zM408 247l306 434h-312l34 64h419v-72l-305 -433h324l-34 -64h-432v71z" />
    <glyph glyph-name="Na.liga" unicode="Na" horiz-adv-x="1530" 
d="M1386 723h72v-499h-102l-1 44q-78 -63 -175 -63q-74 0 -140 37t-105 98.5t-39 131.5t39 132t105 98.5t140 36.5q101 0 180 -66zM1354 428q6 35 2 71q-3 22 -10 45q-12 41 -35.5 70.5t-55.5 45t-68 15.5q-11 0 -23 -1q-73 -10 -117 -76t-34 -152q10 -93 75 -143
q54 -42 122 -33q56 7 95 49.5t49 108.5zM1406 94q31 -28 36.5 -34t1.5 -13l-6 -7l-4 3q-107 -60 -230 -60q-77 0 -184 23q-91 20 -150 20q-73 0 -125 -7q-12 -2 -39 -9l-8 -2q-13 -4 -44 -13l-6 -1l-504 542l-1 -527h-63v733h61l509 -546v546h55v-1h8v-665q65 12 157 12
q68 0 169 -22q97 -21 165 -21q102 0 190 50l6 3z" />
    <glyph glyph-name="Nu.liga" unicode="Nu" horiz-adv-x="1500" 
d="M1405 94h1q31 -28 36.5 -34t1.5 -13l-6 -7l-4 3q-107 -60 -230 -60q-77 0 -184 23q-92 20 -150 20q-73 0 -125 -7q-12 -2 -39 -9l-8 -2q-14 -4 -44 -13l-6 -1l-504 542l-1 -527h-63v733h60l510 -546v546h55v-1h8v-665q65 12 157 12q68 0 169 -22q97 -21 165 -21
q102 0 190 50l6 3zM1150 185q-109 0 -191 71t-82 166v268l1 52h129v-320q0 -42 14.5 -77t48 -59t80.5 -24h28q46 0 84.5 21.5t61 58.5t22.5 80v320h83v-320q0 -98 -73.5 -167.5t-177.5 -69.5h-28z" />
    <glyph glyph-name="Ne.liga" unicode="Ne" horiz-adv-x="1480" 
d="M1126 204q-102 0 -183 70t-94 169q-3 18 -3 33q0 3 1 9v5q6 104 88.5 180.5t190.5 76.5q69 0 130.5 -35t100 -94.5t41.5 -128.5l1 -4v-9q0 -15 -2 -33l-1 -9l-433 1q7 -49 29.5 -87t57 -59t75.5 -21q104 0 170 100l7 9l58 -51l-6 -7q-92 -115 -228 -115zM961 499l324 -1
q-6 83 -50.5 134.5t-110 51.5t-111.5 -52t-52 -133zM1406 94q31 -28 36.5 -34t1.5 -13l-6 -7l-4 3q-107 -60 -230 -60q-77 0 -184 23q-92 20 -150 20q-73 0 -125 -7q-12 -2 -39 -9l-8 -2q-13 -4 -44 -13l-6 -1l-504 542l-1 -527h-63v733h60l510 -546v546h55v-1h8v-665
q65 12 157 12q68 0 169 -22q97 -21 165 -21q102 0 190 50l6 3z" />
    <glyph glyph-name="No.liga" unicode="No" horiz-adv-x="1478" 
d="M1105 201q-77 0 -145.5 36.5t-109 98.5t-40.5 132t40.5 131.5t109 98.5t145.5 37q118 0 204 -79.5t86 -187.5q0 -54 -23 -103t-62.5 -85t-93 -57.5t-111.5 -21.5zM1046 663q-72 -22 -103 -94q-30 -73 -5 -155t90 -122.5t137 -19.5q70 22 99 93t4 157q-25 82 -87 122
q-41 26 -86 26q-24 0 -49 -7zM1405 94q32 -28 37.5 -34t1.5 -13l-6 -7l-4 3q-107 -60 -230 -60q-77 0 -184 23q-92 20 -150 20q-73 0 -125 -7q-12 -2 -39 -9l-8 -2q-13 -4 -44 -13l-6 -1l-504 542l-1 -527h-63v733h60l510 -546v546h55v-1h8v-665q65 12 157 12q68 0 169 -22
q97 -21 165 -21q102 0 190 50l6 3z" />
    <glyph glyph-name="Nc.liga" unicode="Nc" horiz-adv-x="1466" 
d="M1111 211q-46 0 -90 15t-81.5 44t-64.5 68q-43 66 -43 140t43 139q20 29 46.5 53t57 40.5t64 25.5t68.5 9q70 0 134.5 -37t101.5 -99l5 -8l-62 -36l-5 8q-33 55 -70 81.5t-95 27.5q-52 2 -93.5 -28.5t-64.5 -84.5q-17 -43 -17 -91t17 -91q15 -36 39 -62t54.5 -39.5
t64.5 -12.5q58 1 95 28t70 81l5 8l62 -35l-5 -9q-18 -30 -44.5 -55.5t-57 -43t-65 -27t-69.5 -9.5zM1405 94q32 -28 37.5 -34t1.5 -13l-6 -7l-4 3q-107 -60 -230 -60q-77 0 -184 23q-92 20 -150 20q-73 0 -125 -7q-12 -2 -39 -9l-8 -2q-13 -4 -44 -13l-6 -1l-504 542
l-1 -527h-63v733h60l510 -546v546h55v-1h8v-665q65 12 157 12q68 0 169 -22q97 -21 165 -21q102 0 190 50l6 3z" />
    <glyph glyph-name="Ng.liga" unicode="Ng" horiz-adv-x="1482" 
d="M1132 212q-124 0 -204 74.5t-80 189.5q0 57 21.5 106t58.5 84t90 55t114 20q80 0 143.5 -33t98.5 -94l6 -10l-102 -32l-4 8q-21 47 -58 72t-85 25q-49 0 -87.5 -25.5t-59.5 -71t-21 -104.5q0 -43 12.5 -80.5t34.5 -64t53 -41.5t68 -15q58 0 100 37t57 102h-168v63l289 -1
v-9v-16q-5 -106 -82 -172.5t-195 -66.5zM1405 94q32 -28 37.5 -34t1.5 -13l-6 -7l-4 3q-107 -60 -230 -60q-77 0 -184 23q-92 20 -150 20q-73 0 -125 -7q-12 -2 -39 -9l-8 -2q-13 -4 -44 -13l-6 -1l-504 542l-1 -527h-63v733h60l510 -546v546h55v-1h8v-665q65 12 157 12
q68 0 169 -22q97 -21 165 -21q102 0 190 50l6 3z" />
    <glyph glyph-name="NN.liga" unicode="NN" horiz-adv-x="1362" 
d="M1220 743l63 1v-733h-80l-490 526v-526h-80l-490 526l-1 -526h-63v732l61 1l509 -546v545l61 1l510 -546v545z" />
    <glyph glyph-name="Qo.liga" unicode="Qo" horiz-adv-x="1483" 
d="M1145 211q-77 0 -145.5 36.5t-109.5 98.5t-41 131.5t41 131.5t109.5 99t145.5 37q118 0 204 -79.5t86 -188t-86 -187.5t-204 -79zM1086 673q-71 -21 -102.5 -93.5t-5.5 -155.5q24 -83 89 -123.5t137 -18.5q70 21 99.5 92.5t3.5 156.5q-25 83 -87 123q-40 26 -86 26
q-24 0 -48 -7zM1366 139l11 4l11 -53l-6 -3q-24 -13 -42 -21t-54.5 -21.5t-82.5 -20.5t-99 -8q-77 -1 -133 8.5t-114.5 34t-143.5 73.5q-5 3 -8 5q-47 -62 -122 -96t-165 -34q-97 0 -183.5 51.5t-138 137.5t-51.5 183.5t51.5 184t138 137.5t183.5 51q74 0 142.5 -30
t118.5 -80t79.5 -119t29.5 -143q0 -63 -34 -154q22 -13 64 -37l20 -12q45 -26 69.5 -39t65.5 -29.5t84 -22t95 -3.5q46 2 107.5 18.5t106.5 37.5zM374 300q45 9 82 11.5t69.5 -2t60 -12.5t59.5 -23q16 49 16 106q0 137 -68.5 226t-174.5 89t-175.5 -89t-69.5 -226
t69.5 -226.5t175.5 -89.5q56 0 99.5 27.5t82.5 88.5q-31 18 -91.5 35t-116.5 6l-9 -2l-19 79z" />
    <glyph glyph-name="Qu.liga" unicode="Qu" horiz-adv-x="1500" 
d="M1378 735h62v-320q0 -98 -73.5 -167.5t-177.5 -69.5h-28q-109 0 -190.5 71t-81.5 166v268v52h129v-320q0 -66 36.5 -113t106.5 -47h49q69 0 118.5 47t49.5 113v320zM1366 139l11 5l11 -53l-6 -4q-24 -12 -42 -20.5t-54.5 -21.5t-82.5 -20.5t-99 -7.5q-111 -2 -189 21
t-202 94q-4 3 -8 5q-47 -62 -122 -96t-165 -34q-97 0 -183.5 51.5t-138 138t-51.5 184t51.5 183.5t138 137.5t183.5 51.5q74 0 142.5 -30t118.5 -80.5t79.5 -119.5t29.5 -143q0 -62 -34 -154q22 -12 64 -36l20 -12l46.5 -27t43 -23t49 -20.5t50 -14t59.5 -9.5t66 -1
q46 2 107.5 19t106.5 37zM374 301q59 12 107 11.5t84 -9.5t80 -28q16 49 16 105q0 137 -68.5 226.5t-174.5 89.5t-175.5 -89.5t-69.5 -226.5t69.5 -226t175.5 -89q56 0 99.5 27.5t82.5 87.5q-31 19 -91.5 36t-116.5 6l-9 -2l-19 79z" />
    <glyph glyph-name="Qe.liga" unicode="Qe" horiz-adv-x="1485" 
d="M1439 507q1 -6 1 -9q0 -16 -3 -34l-1 -8h-433q7 -49 30 -87t57.5 -59t74.5 -21q105 0 171 101l6 9l59 -51l-6 -8q-93 -114 -229 -114q-66 0 -127 32t-101 87t-49 120q-2 18 -2 33v9l1 4q6 105 88.5 181.5t189.5 76.5q106 0 186.5 -76.5t86.5 -181.5v-4zM1326 520
q-7 83 -51 134.5t-110 51.5t-111.5 -52t-52.5 -134h325zM1366 139l11 5l11 -53l-6 -4q-24 -12 -42 -20.5t-54.5 -21.5t-82.5 -20.5t-99 -7.5q-111 -2 -189 21t-202 94q-4 3 -8 5q-47 -62 -122 -96t-165 -34q-97 0 -183.5 51.5t-138 138t-51.5 184t51.5 183.5t138 137.5
t183.5 51.5q74 0 142.5 -30t118.5 -80.5t79.5 -119.5t29.5 -143q0 -62 -34 -154q22 -12 64 -36l20 -12q45 -27 69.5 -39.5t65.5 -29t84.5 -22.5t94.5 -4q46 2 107.5 19t106.5 37zM374 301q59 12 107 11.5t84 -9.5t80 -28q16 49 16 105q0 137 -68.5 226.5t-174.5 89.5
t-175.5 -89.5t-69.5 -226.5t69.5 -226t175.5 -89q56 0 99.5 27.5t82.5 87.5q-31 19 -91.5 36t-116.5 6l-9 -2l-19 79z" />
    <glyph glyph-name="Qc.liga" unicode="Qc" horiz-adv-x="1471" 
d="M1359 379l5 8l62 -35l-5 -9q-37 -62 -101.5 -98.5t-134.5 -36.5q-69 0 -132.5 34t-102.5 93q-44 66 -44 140t44 139q39 59 102.5 93.5t132.5 34.5q70 0 134.5 -37t101.5 -99l5 -8l-62 -36l-5 8q-16 27 -31.5 45.5t-35 33.5t-43.5 22.5t-55 7.5h-3q-50 0 -91.5 -30.5
t-62.5 -82.5q-18 -43 -18 -91t18 -91q21 -53 62.5 -83.5t91.5 -30.5h3q58 1 95 28t70 81zM1366 139l11 5l11 -53l-6 -4q-24 -12 -42 -20.5t-54.5 -21.5t-82.5 -20.5t-99 -7.5q-112 -2 -189.5 21t-201.5 95l-8 4q-47 -62 -122 -96t-165 -34q-97 0 -183.5 51.5t-138 138
t-51.5 184t51.5 183.5t138 137.5t183.5 51.5q74 0 142.5 -30t118.5 -80.5t79.5 -119t29.5 -143.5q0 -62 -34 -154q22 -12 64 -36l20 -12q45 -27 70 -39.5t66 -29t84 -22.5t94 -4q46 2 107.5 19t106.5 37zM374 301q59 12 107 11.5t84 -9.5t80 -28q16 49 16 105
q0 137 -68.5 226.5t-174.5 89.5t-175.5 -89.5t-69.5 -226.5t69.5 -226t175.5 -89q56 0 99.5 27.5t82.5 87.5q-31 19 -91.5 36t-116.5 6l-9 -2l-19 79z" />
    <glyph glyph-name="Qa.liga" unicode="Qa" horiz-adv-x="1487" 
d="M1343 701h72v-498h-102l-1 43q-79 -62 -175 -62q-75 0 -140.5 36.5t-104.5 98.5t-39 132t39 131.5t104.5 98.5t140.5 37q100 0 180 -67zM1311 406q5 36 1 71q-2 23 -9 46q-18 61 -61 96t-99 35q-11 0 -22 -2q-73 -9 -117 -75t-34 -152q10 -93 74 -144q54 -42 122 -33
q57 8 95.5 50.5t49.5 107.5zM1366 110l11 5l11 -53l-6 -4q-24 -12 -42 -20.5t-54.5 -21.5t-82.5 -20.5t-99 -8.5q-112 -1 -189.5 22t-201.5 94q-4 2 -8 5q-47 -62 -122 -96t-165 -34q-97 0 -183.5 51.5t-138 138t-51.5 183.5t51.5 183.5t138 138t183.5 51.5q74 0 142.5 -30
t118.5 -80.5t79.5 -119.5t29.5 -143q0 -63 -34 -154q22 -12 64 -36l20 -12q45 -27 69.5 -40t65.5 -29t84 -22t95 -4q46 2 107.5 19t106.5 37zM374 272q36 7 67.5 9.5t57 1.5t51 -6t47.5 -12.5t48 -18.5q16 49 16 105q0 137 -68.5 226.5t-174.5 89.5t-175.5 -89.5
t-69.5 -226.5t69.5 -226t175.5 -89q56 0 99.5 27t82.5 88q-11 7 -30.5 15t-50.5 17.5t-62 12t-65 -2.5l-9 -2l-19 79z" />
    <glyph glyph-name="Qi.liga" unicode="Qi" horiz-adv-x="1292" 
d="M1101 150h-130v577h130v-577zM1267 115l10 -53l-6 -3q-23 -14 -40.5 -22.5t-51 -22t-75 -20.5t-88.5 -7q-52 0 -103.5 12.5t-92 33.5t-67.5 38t-49 36q-47 -62 -121.5 -95.5t-164.5 -33.5q-97 0 -183.5 51.5t-138 138t-51.5 184t51.5 183.5t138 137.5t183.5 51.5
q74 0 142.5 -30t118.5 -80.5t79.5 -119.5t29.5 -143q0 -63 -34 -154q5 -3 21 -16q29 -23 51.5 -38t64.5 -40t85.5 -37.5t83.5 -11.5q88 3 195 56zM374 272q59 12 107 11.5t84 -9.5t80 -28q16 49 16 105q0 137 -68.5 226.5t-174.5 89.5t-175.5 -89.5t-69.5 -226.5
q0 -90 31.5 -162t87.5 -112.5t126 -40.5q56 0 99.5 27t82.5 88q-31 19 -91.5 36t-116.5 6l-9 -2l-19 79z" />
    <glyph glyph-name="Qg.liga" unicode="Qg" horiz-adv-x="1495" 
d="M1451 437v-16q-4 -105 -81.5 -172t-195.5 -67q-123 0 -203.5 75t-80.5 190t80.5 189.5t203.5 74.5q32 0 61.5 -5t56 -16t49.5 -26t42 -35t33 -44l6 -11l-102 -31l-4 8q-21 47 -58 72t-85 25q-49 0 -87 -25.5t-59.5 -71.5t-21.5 -104.5t21.5 -104t59.5 -71t87 -25.5
q39 0 71 16.5t54 47.5t32 74h-168v63l289 -1v-9zM1366 110l11 5l11 -53l-6 -4q-24 -12 -42 -20.5t-54.5 -21.5t-82.5 -20.5t-99 -8.5q-112 -1 -189.5 22t-201.5 94q-4 3 -8 5q-47 -62 -122 -96t-165 -34q-97 0 -183.5 51.5t-138 138t-51.5 184t51.5 183.5t138 137.5
t183.5 51.5q74 0 142.5 -30t118.5 -80.5t80 -119.5t30 -143q0 -63 -35 -154q22 -12 64 -36l20 -12q37 -22 55.5 -32t52.5 -26t61 -22.5t65 -11.5t80 -3q46 2 107.5 19t106.5 37zM645 246q16 48 16 105q0 137 -68.5 226.5t-174.5 89.5t-175.5 -89.5t-69.5 -226.5t69.5 -226
t175.5 -89q56 0 99.5 27t82.5 88q-31 19 -91.5 36t-116.5 6l-9 -2l-19 79l10 2q59 12 107 11.5t84 -9.5t80 -28z" />
    <glyph glyph-name="Ri.liga" unicode="Ri" horiz-adv-x="1157" 
d="M961 166h-130v577h130v-577zM1096 137l50 -47l-10 -7q-132 -92 -296 -92q-170 0 -299 54.5t-195 153.5h-6h-134v-187h-126v732h260q82 0 155 -37t116.5 -100t43.5 -133v-5q0 -80 -54.5 -145t-132.5 -99q44 -59 137.5 -104t181.5 -58q81 -12 159 6t143 63zM525 474
q0 55 -19 101t-62 77t-104 31h-134v-424h134q61 0 104 31.5t62 77.5t19 101v5z" />
    <glyph glyph-name="Ra.liga" unicode="Ra" horiz-adv-x="1463" 
d="M1089 128l7 4l50 -47l-10 -6q-132 -92 -296 -92q-170 0 -299 54t-195 153h-6h-134v-186h-126v732h260q82 0 155 -37.5t116.5 -100t43.5 -133.5v-4q0 -55 -27.5 -105t-69 -84t-90.5 -55q44 -59 137.5 -104.5t181.5 -57.5q81 -12 159 6t143 63zM525 470q0 54 -19 100
t-62 77.5t-104 31.5h-134v-424h134q61 0 104 31.5t62 77.5t19 100v6zM1082 737q81 0 153 -41t114.5 -110.5t42.5 -148.5v-432h-130v282h-419v-184l-9 -1q-23 -2 -61 7q-28 6 -55 20l-5 3v305q0 59 25.5 114.5t67.5 96t99.5 65t118.5 24.5h58zM1262 364v81q-3 90 -62.5 152.5
t-142.5 62.5h-9q-83 0 -142.5 -62.5t-62.5 -152.5v-8v-73h419z" />
    <glyph glyph-name="RA.liga" unicode="RA" horiz-adv-x="1389" 
d="M1355 48l18 -39h-138l-9 18l-54 134h-356l-30 -72l-80 23l256 629h107l6 -19zM1139 238l-151 357l-141 -357h292zM1089 128l7 4l50 -47l-10 -6q-132 -92 -296 -92q-170 0 -299 54t-195 153h-6h-134v-186h-126v732h260q82 0 155 -37.5t116.5 -100t43.5 -133.5v-4
q0 -55 -27.5 -105t-69 -84t-90.5 -55q44 -59 137.5 -104.5t181.5 -57.5q81 -12 159 6t143 63zM525 470q0 40 -11 76.5t-33 66.5t-58.5 48t-82.5 18h-134v-424h134q61 0 104 31.5t62 77.5t19 100v6z" />
    <glyph glyph-name="RN.liga" unicode="RN" horiz-adv-x="1454" 
d="M1089 128l7 4l50 -47l-10 -6q-132 -92 -296 -92q-169 0 -298.5 54t-195.5 153h-6h-134v-186h-126v732h260q82 0 155 -37.5t116.5 -100t43.5 -133.5v-4q0 -55 -27.5 -105t-69 -84t-90.5 -55q44 -59 137.5 -104.5t181.5 -57.5q81 -12 159 6t143 63zM525 470q0 54 -19 100
t-62 77.5t-104 31.5h-134v-424h134q46 0 82.5 18t58.5 48t33 66.5t11 76.5v6zM1311 740h63v-732h-80l-490 526v-409h-64v10v605h61l510 -545v545z" />
    <glyph glyph-name="RM.liga" unicode="RM" horiz-adv-x="1585" 
d="M1014 87l7 3l40 -55l-11 -5q-99 -43 -210 -43q-170 0 -299 54t-195 153h-6h-134v-186h-126v732h260q82 0 155 -37.5t116.5 -100t43.5 -133.5v-4q0 -55 -27.5 -104.5t-69 -84t-90.5 -55.5q44 -59 137.5 -104.5t181.5 -57.5q120 -18 227 28zM525 469q0 58 -23 101.5
t-65 67.5t-97 24h-134v-391h134q83 0 134 53.5t51 140.5v4zM1395 741h110v-733h-117v589l-290 -527l-307 468v-428h-64v631h93l313 -476z" />
    <glyph glyph-name="Ro.liga" unicode="Ro" horiz-adv-x="1396" 
d="M1055 211q-77 0 -145.5 36.5t-109.5 98.5t-41 132t41 131.5t109.5 98.5t145.5 37q118 0 204 -79.5t86 -187.5q0 -53 -23.5 -102.5t-62.5 -85.5t-92.5 -57.5t-111.5 -21.5zM893 579q-31 -72 -6 -155q25 -82 90 -122.5t137 -19.5q70 22 99.5 93t3.5 157q-25 82 -87 122
q-40 26 -86 26q-24 0 -48 -7q-72 -22 -103 -94zM1292 107q3 2 5 2t6.5 -2.5t12.5 -10.5t20 -22l9 -9l-11 -6q-104 -57 -230 -76q-87 -14 -190 -14q-73 0 -123 9q-135 22 -249 83q-105 55 -178 136h-1.5h-1.5h-22h-131v-187h-128v732h95h164q62 0 120.5 -22t101 -59
t68.5 -86.5t26 -102.5v-5q0 -73 -47.5 -134t-113.5 -97q64 -66 146 -110q101 -55 222 -76q113 -19 225.5 -4.5t204.5 61.5zM527 472q0 92 -52.5 150.5t-135.5 58.5h-131v-423h131q83 0 135.5 58t52.5 151v5z" />
    <glyph glyph-name="Rg.liga" unicode="Rg" horiz-adv-x="1391" 
d="M1062 199q-124 0 -204 74.5t-80 189.5t80 190t204 75q80 0 143.5 -33t98.5 -94l6 -10l-102 -32l-4 8q-21 47 -58 72t-85 25q-74 0 -121 -56t-47 -144.5t47 -144.5t121 -56q58 0 100 36.5t57 101.5h-168v63l289 -1v-9v-16q-5 -106 -82 -172.5t-195 -66.5zM1337 74l8 -9
l-11 -6q-104 -57 -230 -76q-87 -14 -190 -14q-73 0 -123 9q-135 22 -249 83q-105 55 -178 136h-1.5h-1.5h-22h-131v-187h-128v732h95h164q62 0 120.5 -22t101 -59t68.5 -86.5t26 -102.5v-5q0 -38 -14 -74.5t-38 -65.5t-51.5 -51.5t-57.5 -39.5q64 -66 146 -110
q102 -55 222 -76q113 -19 225.5 -4.5t204.5 61.5q4 1 7 1.5t12.5 -8t25.5 -26.5zM527 472q0 92 -52.5 150.5t-135.5 58.5h-131v-423h131q83 0 135.5 58t52.5 151v5z" />
    <glyph glyph-name="RU.liga" unicode="RU" horiz-adv-x="1398" 
d="M1048 186q-109 0 -190.5 71.5t-81.5 166.5v267v52h129v-319q0 -66 37 -113t106 -47h49q69 0 118.5 46.5t49.5 113.5v319h63v-319q0 -98 -74 -168t-178 -70h-28zM1337 74l8 -9l-11 -6q-104 -57 -230 -76q-87 -14 -190 -14q-73 0 -123 9q-135 22 -249 83q-105 55 -178 136
h-2h-1h-22h-131v-187h-128v732h95h164q62 0 120.5 -22t101 -59t68.5 -86.5t26 -102.5v-5q0 -38 -14 -74.5t-38 -65.5t-51.5 -51.5t-57.5 -39.5q64 -66 146 -110q102 -55 222 -76q113 -19 225.5 -4.5t204.5 61.5q4 1 7 1.5t12.5 -8t25.5 -26.5zM527 472q0 92 -52.5 150.5
t-135.5 58.5h-131v-423h131q83 0 135.5 58t52.5 151v5z" />
    <glyph glyph-name="Re.liga" unicode="Re" horiz-adv-x="1385" 
d="M1048 207q-101 0 -182.5 70t-94.5 169q-2 18 -2 32v10l1 4q6 105 88.5 181.5t189.5 76.5q105 0 186 -77t87 -182v-4q1 -5 1 -9q0 -15 -3 -33l-1 -8h-433q11 -74 56 -120.5t106 -46.5q105 0 171 100l6 10l59 -52l-6 -7q-93 -114 -229 -114zM883 501h324q-6 82 -50.5 133.5
t-110 51.5t-111.5 -52t-52 -133zM1337 74l8 -9l-11 -6q-104 -57 -230 -76q-87 -14 -190 -14q-73 0 -123 9q-135 22 -249 83q-105 55 -178 136h-1.5h-1.5h-22h-131v-187h-128v732h95h164q62 0 120.5 -22t101 -59t68.5 -86.5t26 -102.5v-5q0 -73 -47.5 -134t-113.5 -97
q64 -66 146 -110q102 -55 222 -76q113 -19 225.5 -4.5t204.5 61.5q4 1 7 1.5t12.5 -8t25.5 -26.5zM527 472q0 92 -52.5 150.5t-135.5 58.5h-131v-423h131q83 0 135.5 58t52.5 151v5z" />
    <glyph glyph-name="ra.liga" unicode="ra" horiz-adv-x="1390" 
d="M1017 185q-74 0 -139.5 36.5t-105 98.5t-39.5 132t39.5 131.5t105 98.5t139.5 37q101 0 181 -67l26 50h71v-498h-102v43q-79 -62 -176 -62zM1002 654q-74 -10 -118 -76t-34 -152q11 -93 75 -144q54 -42 122 -33q56 8 95 50.5t49 107.5q6 36 2 71q-2 23 -9 46
q-13 40 -36.5 70t-55.5 45.5t-68 15.5q-11 0 -22 -1zM1338 74l8 -9l-11 -6q-104 -57 -230 -76q-87 -14 -190 -14q-73 0 -123 9q-135 22 -249 83q-105 55 -178 136h-1.5h-1.5h-22h-131v-187h-128v732h95h164q62 0 120.5 -22t101 -59t68.5 -86.5t26 -102.5v-5q0 -38 -14 -74.5
t-38 -65.5t-51.5 -51.5t-57.5 -39.5q64 -66 146 -110q102 -55 222 -76q113 -19 225.5 -4.5t204.5 61.5q3 2 5 2t6.5 -2.5t12.5 -10.5t21 -22zM528 472q0 92 -52.5 150.5t-135.5 58.5h-131v-423h131q83 0 135.5 58t52.5 151v5z" />
    <glyph glyph-name="Zo.liga" unicode="Zo" horiz-adv-x="1293" 
d="M950 209q-77 0 -145.5 36.5t-109 98.5t-40.5 131.5t40.5 131.5t109 99t145.5 37q118 0 204 -79.5t86 -188t-86 -187.5t-204 -79zM891 671q-71 -21 -102 -93.5t-6 -155.5t90 -123.5t137 -18.5q70 21 99 92.5t4 156.5q-25 83 -87 123q-41 26 -86 26q-24 0 -49 -7zM1224 73
l20 -56l-7 -4q-134 -67 -284 -67q-62 0 -130.5 7.5t-108 14t-106.5 20.5q-126 25 -188 30q-75 6 -176 -2t-143 -15t-65 -12l-12 -2v88l419 594h-351l-53 65h551v-79l-406 -576q235 44 395 17q56 -9 165 -41q52 -15 80 -22.5t70 -14.5t76 -7q129 0 244 57z" />
    <glyph glyph-name="Zg.liga" unicode="Zg" horiz-adv-x="1277" 
d="M922 210q-123 0 -203.5 74.5t-80.5 189.5t80.5 190t203.5 75q80 0 143.5 -33.5t98.5 -93.5l7 -11l-103 -31l-3 8q-21 47 -58 72t-86 25q-74 0 -120.5 -56t-46.5 -145t46.5 -145t120.5 -56q39 0 71 17t54 48t32 73l-168 1v63l289 -1v-10q1 -11 0 -15q-4 -106 -81.5 -172.5
t-195.5 -66.5zM1224 73l20 -57l-7 -3q-134 -68 -284 -68q-48 0 -94 3.5t-94.5 11t-77.5 12.5t-79 15q-126 25 -188 30q-75 6 -176 -2t-143.5 -15t-64.5 -12l-12 -2v88l419 595h-351l-53 65h551v-80l-406 -576q235 44 395 17q56 -9 165 -41q52 -15 80 -22.5t70 -14.5t76 -7
q129 0 244 58z" />
    <glyph glyph-name="Zu.liga" unicode="Zu" horiz-adv-x="1309" 
d="M1182 733h63v-320q0 -98 -74 -167.5t-177 -69.5h-29q-109 0 -190.5 71t-81.5 166v268v52h129v-320q0 -66 37 -113t106 -47h49q69 0 118.5 47t49.5 113v320zM1214 68l10 4l20 -56l-7 -3q-134 -68 -284 -68q-48 0 -94 3.5t-94.5 10.5t-77.5 12.5t-79 15.5q-32 6 -49.5 9.5
t-44.5 8t-49.5 7.5t-44.5 5q-161 13 -384 -29l-12 -2v88l419 595h-351l-53 65h551v-80l-406 -576q235 44 395 17q57 -9 165 -41q52 -15 80 -22.5t70 -14.5t76 -7q129 0 244 58z" />
    <glyph glyph-name="Ze.liga" unicode="Ze" horiz-adv-x="1282" 
d="M938 198q-101 0 -182 70t-94 169q-3 18 -3 33q0 3 1 9v4q6 105 88.5 181.5t189.5 76.5q106 0 187 -76.5t86 -181.5l1 -4v-9q0 -16 -2 -33l-1 -9l-433 1q11 -75 55.5 -121.5t106.5 -46.5q104 0 170 101l6 9l59 -51l-6 -7q-92 -115 -229 -115zM773 492h325
q-6 83 -50.5 134.5t-110 51.5t-111.5 -52t-53 -134zM1224 73l20 -57l-7 -3q-134 -68 -284 -68q-62 0 -130.5 7.5t-108 14.5t-106.5 20q-126 25 -188 30q-75 6 -176 -2t-143.5 -15t-64.5 -12l-12 -2v88l419 595h-351l-53 65h551v-80l-406 -576q235 44 395 17q56 -9 165 -41
q52 -15 80 -22.5t70 -14.5t76 -7q129 0 244 58z" />
    <glyph glyph-name="Za.liga" unicode="Za" horiz-adv-x="1293" 
d="M925 208q-74 0 -140 37t-105 99t-39 131.5t39 131.5t105 99t140 37q101 0 180 -67l27 50h71v-498h-102l-1 43q-78 -63 -175 -63zM955 273q37 5 67.5 25.5t50 55t26.5 77.5q6 36 2 71q-3 23 -10 46q-18 61 -61 96t-98 35q-11 0 -22 -2q-74 -9 -118 -75t-34 -153
q10 -92 75 -143q54 -42 122 -33zM1224 73l20 -57l-7 -3q-134 -68 -284 -68q-62 0 -130.5 7.5t-108 14.5t-106.5 20q-126 25 -188 30q-75 6 -176 -2t-143.5 -15t-64.5 -12l-12 -2v88l419 595h-351l-53 65h551v-80l-406 -576q235 44 395 17q56 -9 165 -41q52 -15 80 -22.5
t70 -14.5t76 -7q129 0 244 58z" />
    <glyph glyph-name="Zc.liga" unicode="Zc" horiz-adv-x="1279" 
d="M964 206q-69 0 -132 34t-103 93q-44 66 -44 140t44 139q40 59 103 93.5t132 34.5q71 0 135 -37t102 -99l5 -8l-62 -36l-5 8q-34 55 -70.5 81.5t-94.5 27.5q-52 1 -94 -29t-64 -84q-17 -43 -17 -91t17 -91q15 -37 38.5 -62.5t54 -39t65.5 -12.5q58 1 94.5 27.5t70.5 81.5
l5 8l62 -35l-5 -9q-38 -62 -102 -98.5t-135 -36.5zM1224 73l20 -57l-7 -4q-134 -67 -284 -67q-62 0 -130.5 7.5t-108 14.5t-106.5 20q-126 25 -188 30q-75 6 -177.5 -2.5t-140 -14.5t-66.5 -12l-12 -2v88l419 595h-351l-53 65h551v-80l-406 -576q235 44 395 17
q57 -9 165 -41q52 -15 80 -22.5t70 -14.5t76 -7q129 0 244 58z" />
    <glyph glyph-name="Zi.liga" unicode="Zi" horiz-adv-x="1103" 
d="M907 166h-130v577h130v-577zM1072 84l18 -57l-6 -3q-117 -68 -248 -68q-55 0 -114.5 7.5t-94 14t-93.5 20.5q-109 25 -163 30q-65 6 -152.5 -2t-125 -15.5t-56.5 -11.5l-12 -3v89l418 594h-350l-53 65h551v-79l-405 -575q185 43 324 16q49 -9 144 -41q34 -11 52 -17
t46.5 -13.5t52 -10.5t46.5 -3q111 0 211 57z" />
    <glyph glyph-name="Zd.liga" unicode="Zd" horiz-adv-x="1307" 
d="M946 183h-180v508l-1 41h69h112q140 0 224 -73.5t84 -201.5q0 -123 -101 -209q-79 -65 -207 -65zM875 688v-461h71q198 0 198 230.5t-198 230.5h-71zM1215 78l10 5l20 -56l-7 -4q-134 -67 -284 -67q-62 0 -130.5 7t-108 14t-106.5 21q-126 25 -188 30q-75 6 -177.5 -2.5
t-140.5 -15t-66 -11.5l-12 -2v88l419 594h-351l-53 65h551v-79l-406 -576q235 44 395 17q57 -9 165 -41q52 -15 80 -22.5t70 -14.5t76 -7q129 0 244 57z" />
    <glyph glyph-name="Zk.liga" unicode="Zk" horiz-adv-x="1274" 
d="M891 402l-17 -19v-208h-130v515q1 14 1 20l-1 -1v33l6 1l2 1l4 -1h118l-1 -269l248 267l88 2l-238 -256l274 -312h-164l-3 4zM1225 83l20 -56l-7 -4q-134 -67 -284 -67q-62 0 -130.5 7.5t-108 14t-106.5 20.5q-126 25 -188 30q-75 6 -177 -2.5t-141 -15t-66 -11.5l-12 -2
v88l418 594h-350l-53 65h551v-79l-406 -576q235 44 395 17q56 -9 165 -41q52 -15 80 -22.5t70 -14.5t76 -7q129 0 244 57z" />
    <glyph glyph-name="Zn.liga" unicode="Zn" horiz-adv-x="1290" 
d="M777 543v-370h-63v568l62 -1l355 -371v372h62v-568h-68zM1225 83l20 -56l-7 -4q-134 -67 -284 -67q-62 0 -130.5 7.5t-108 14t-106.5 20.5q-126 25 -188 30q-162 13 -384 -29l-12 -2v88l419 594h-351l-53 65h551v-79l-406 -576q235 44 395 17q56 -9 165 -41
q52 -15 80 -22.5t70 -14.5t76 -7q129 0 244 57z" />
    <glyph glyph-name="Zp.liga" unicode="Zp" horiz-adv-x="1289" 
d="M918 298v-124h-128v571h192q101 0 177.5 -65.5t76.5 -153.5v-9q0 -87 -76.5 -153t-177.5 -66h-64zM918 362h64q34 0 59.5 14t40 37t21.5 49t7 55v10q0 28 -7 54t-21.5 49.5t-40 37.5t-59.5 14h-64v-320zM1225 83l20 -56l-7 -4q-134 -67 -284 -67q-62 0 -130.5 7.5
t-108 14t-106.5 20.5q-126 25 -188 30q-75 6 -175.5 -2t-144 -15.5t-64.5 -11.5l-12 -2v88l418 594h-350l-53 65h551v-79l-406 -576q235 44 395 17q56 -9 165 -41q52 -15 80 -22.5t70 -14.5t76 -7q129 0 244 57z" />
    <glyph glyph-name="Zr.liga" unicode="Zr" horiz-adv-x="1275" 
d="M858 174h-129v568h95h99q65 0 125 -33.5t96.5 -88t36.5 -113.5v-9q0 -103 -102 -165l89 -159h-148l-73 121l-24 1h-65v-122zM858 677v-316h65q34 0 59.5 13.5t40 36.5t21.5 49t7 54v10q0 22 -4 43t-14 41.5t-24 35.5t-36.5 24t-49.5 9h-65zM1225 83l20 -56l-7 -4
q-134 -67 -284 -67q-62 0 -130.5 7.5t-108 14t-106.5 20.5q-126 25 -188 30q-75 6 -176 -2.5t-143 -15t-65 -11.5l-12 -2v88l419 594h-351l-53 65h551v-79l-406 -576q235 44 395 17q57 -9 165 -41q52 -15 80 -22.5t70 -14.5t76 -7q129 0 244 57z" />
    <glyph glyph-name="Zt.liga" unicode="Zt" horiz-adv-x="1265" 
d="M912 679h-142l-32 64h495l-27 -64h-168v-506h-126v506zM1225 83l20 -56l-7 -4q-134 -67 -284 -67q-62 0 -130.5 7t-108 14t-106.5 21q-126 25 -188 30q-75 6 -175.5 -2t-144 -15.5t-64.5 -11.5l-12 -2v88l418 594h-350l-53 65h551v-79l-406 -576q235 44 395 17
q56 -9 165 -41q39 -11 60 -17t53 -13.5t59.5 -10.5t53.5 -3q129 0 244 57z" />
    <glyph glyph-name="Zv.liga" unicode="Zv" horiz-adv-x="1279" 
d="M1047 175h-120l-217 568h137l2 -7l171 -453l169 460h75zM1215 78l10 5l20 -56l-7 -4q-134 -67 -284 -67q-62 0 -130.5 7.5t-108 14t-106.5 20.5q-126 25 -188 30q-75 6 -176 -2.5t-143 -15t-65 -11.5l-12 -2v88l418 594h-350l-53 65h551v-79l-406 -576q235 44 395 17
q56 -9 165 -41q39 -11 60 -17t53 -13.5t59.5 -10.5t53.5 -3q129 0 244 57z" />
    <glyph glyph-name="Zx.liga" unicode="Zx" horiz-adv-x="1260" 
d="M687 175l174 261l-177 304h151l106 -184l124 184h74l-163 -244l184 -321h-147l-117 201l-135 -201h-74zM1225 83l20 -56l-7 -4q-134 -67 -284 -67q-62 0 -130.5 7t-108 14t-106.5 21q-126 25 -188 30q-75 6 -175.5 -2t-144 -15.5t-64.5 -11.5l-12 -2v88l419 594h-351
l-53 65h551v-79l-406 -576q235 44 395 17q57 -9 165 -41q52 -15 80 -22.5t70 -14.5t76 -7q129 0 244 57z" />
    <glyph glyph-name="Zy.liga" unicode="Zy" horiz-adv-x="1262" 
d="M1017 171h-112v239l-190 331l147 -1l133 -235l140 235h69l-9 -14q-165 -290 -178 -316v-239zM1225 83l20 -56l-7 -4q-134 -67 -284 -67q-62 0 -130.5 7.5t-108 14t-106.5 20.5q-126 25 -188 30q-75 6 -176 -2.5t-143 -15t-65 -11.5l-12 -2v88l419 594h-351l-53 65h551
v-79l-406 -576q235 44 395 17q56 -9 165 -41q52 -15 80 -22.5t70 -14.5t76 -7q129 0 244 57z" />
    <glyph glyph-name="Zz.liga" unicode="Zz" horiz-adv-x="1268" 
d="M716 236l306 434h-313l35 64h419v-72l-306 -433h325l-34 -64h-432v71zM1225 83l20 -56l-7 -4q-134 -67 -284 -67q-62 0 -130.5 7.5t-108 14t-106.5 20.5q-126 25 -188 30q-75 6 -175.5 -2t-144 -15.5t-64.5 -11.5l-12 -2v88l418 594h-350l-53 65h551v-79l-406 -576
q235 44 395 17q56 -9 165 -41q52 -15 80 -22.5t70 -14.5t76 -7q129 0 244 57z" />
    <glyph glyph-name="laa.liga" unicode="laa" horiz-adv-x="996" 
d="M883 131l39 -63l-9 -5q-130 -74 -258 -74q-67 0 -172 23q-77 16 -139 19q-43 1 -124 -11t-126 -26l-13 -4v756h129v-656q76 14 135 14q57 0 153 -20q98 -21 157 -21q106 0 220 64zM644 206q-74 0 -140 37t-105 99t-39 131.5t39 131.5t105 98.5t140 36.5q100 0 180 -66
l26 50h72v-498h-102l-1 43q-78 -63 -175 -63zM628 675q-73 -9 -117 -75.5t-34 -152.5q10 -93 75 -143q54 -42 122 -33q56 7 95 49.5t49 108.5q6 35 2 71q-3 22 -10 45q-18 61 -61 96.5t-99 35.5q-10 0 -22 -2z" />
    <glyph glyph-name=".notdef" horiz-adv-x="527" 
d="M50 700h427v-700h-427v700zM78 680l185 -309l186 309h-371zM251 350l-180 300v-601zM264 329l-185 -308h370zM276 350l181 -303v605z" />
    <glyph glyph-name=".null" horiz-adv-x="0" 
 />
    <glyph glyph-name=".null" horiz-adv-x="0" 
 />
    <glyph glyph-name="nonmarkingreturn" horiz-adv-x="333" 
 />
    <glyph glyph-name="LF" unicode="&#xa;" horiz-adv-x="0" 
 />
    <glyph glyph-name="controlCR" unicode="&#xd;" horiz-adv-x="0" 
 />
    <glyph glyph-name="space" unicode=" " horiz-adv-x="474" 
 />
    <glyph glyph-name="exclam" unicode="!" horiz-adv-x="278" 
d="M202 91h-126v597h126v-597zM139 -67q-16 0 -30 7t-22 20t-8 27q0 23 17.5 39t42.5 16t42 -16t17 -38.5t-17 -38.5t-42 -16z" />
    <glyph glyph-name="quotedbl" unicode="&#x22;" horiz-adv-x="364" 
d="M51 409l-4 251h83l-4 -251h-75zM233 660h83l-4 -251h-75z" />
    <glyph glyph-name="numbersign" unicode="#" horiz-adv-x="759" 
d="M707 403v-77h-155l-39 -212h144v-77h-158l-27 -148h-79l27 148h-151l-27 -148h-79l28 148h-141v77h155l39 212h-144v77h158l32 173h79l-32 -173h151l32 173h78l-32 -173h141zM474 326h-152l-39 -212h152z" />
    <glyph glyph-name="dollar" unicode="$" horiz-adv-x="622" 
d="M557 598q6 -11 2 -23t-17 -17l-21 -8q-11 -4 -22 -0.5t-16 13.5q-34 60 -101 78q-6 2 -10 -2q-4 -2 -4 -6v-233q0 -5 6 -8q39 -16 66.5 -31.5t54 -38t40.5 -52.5t14 -68t-15 -70.5t-40.5 -54t-55 -35.5t-62.5 -20q-8 -2 -8 -9v-80q0 -11 -8.5 -19.5t-21.5 -8.5h-23
q-8 0 -15 4t-11 10.5t-4 13.5v77q0 7 -9 8q-80 9 -137 52.5t-80 114.5q-3 11 3 21q6 12 20 14l23 5q7 1 14 -0.5t12.5 -6.5t7.5 -12q32 -93 134 -110q5 -1 9 3q3 2 3 6v234q0 5 -6 7q-34 14 -58 25t-52 28.5t-44.5 36t-28 45t-11.5 57.5q0 26 10.5 54.5t32 56.5t60 48.5
t88.5 26.5q9 1 9 9v85q0 8 4 14.5t11 10t15 3.5h23q8 0 15 -3.5t11 -10t4 -14.5v-88q0 -7 9 -8q122 -22 180 -124zM368 295v-184q0 -4 4 -6q5 -4 11 -2q32 11 57.5 34.5t25.5 65.5q0 20 -8.5 37t-26.5 32t-47 30q-6 3 -11 -1q-5 -2 -5 -6zM285 637q0 4 -3 6.5t-7 2.5h-3
q-28 -6 -49 -19t-31 -26.5t-16 -29.5t-7 -22.5t-1 -11.5q0 -31 23 -54.5t79 -47.5q6 -3 11 1q4 2 4 6v195z" />
    <glyph glyph-name="percent" unicode="%" horiz-adv-x="841" 
d="M201 407q-68 0 -111 43.5t-43 111.5q0 41 13.5 72t36 48.5t48.5 26t56 8.5q29 0 55.5 -8.5t49 -26t36 -48.5t13.5 -72q0 -68 -43 -111.5t-111 -43.5zM130 562q0 -36 19 -57t52 -21t52 21t19 57q0 78 -71 78t-71 -78zM638 334q29 -1 55.5 -9t49 -25.5t35.5 -48.5t13 -72
q0 -68 -42.5 -111.5t-110.5 -43.5q-69 0 -112 43.5t-43 111.5q0 33 9 59.5t24 44t35 29t41.5 16.5t44.5 6h1zM708 179q0 77 -71 78q-71 -1 -71 -78q0 -36 19.5 -57t51.5 -21q22 0 38 9.5t24.5 27t8.5 41.5zM578 835l77 -29l-401 -868l-77 30z" />
    <glyph glyph-name="ampersand" unicode="&#x26;" horiz-adv-x="823" 
d="M761 -43q27 -52 26 -108q-1 -29 -9 -56q-9 -29 -26 -53q-19 -26 -46 -43q-12 -8 -29 -15q-18 -7 -33 -9q-6 -1 -17 -2h-4h-7h-6q-18 1 -34 6q-35 9 -60 34q-24 25 -30 58q-7 35 10 66q9 16 23 28q15 12 34 17q16 5 36 5q15 -1 32 -4l9 -3l-12 -56l-9 2q-17 2 -20 2
q-9 -1 -15 -3q-13 -4 -18 -15q-6 -13 -3 -27q3 -15 14 -25q12 -11 28 -15q9 -2 18 -2h6h5q5 1 7 1q35 6 57 39q21 30 21 70q-1 39 -21 74q-18 34 -54 63q-28 22 -79 51q-14 8 -23 13q-24 -24 -52 -41q-27 -16 -56 -26q-31 -10 -61 -13q-31 -4 -61 -1q-32 2 -60 9
q-62 16 -109 54q-51 42 -70 98q-20 60 2 119q10 26 29 53q17 23 40 43t53 37q-1 3 -2 5q-21 53 -26 101q-2 16 -2 28q-1 5 0 7v8q0 7 1 15q5 27 16 55q13 29 31 51q10 12 22 23q13 11 27 19q29 18 64 24q18 3 34 3q16 1 34 -2q73 -11 116 -66q21 -27 28 -59t0 -65
q-7 -29 -26 -57q-15 -23 -39 -45q-38 -33 -97 -61q-24 -11 -51 -21l-12 -4q1 -2 3 -5q1 -2 4 -6h466v-77h-142q-2 -11 -5 -22q-7 -25 -16 -49q-13 -33 -30 -62q-2 -4 -4 -6l18 -11q56 -33 90 -60q22 -19 40 -39q18 -22 32 -47zM422 111q-12 7 -23 13l-23 15q-44 31 -82 72
q-35 38 -63 84q-2 4 -5 8q-16 -10 -28 -21q-16 -14 -27 -29q-12 -16 -17 -31q-13 -33 -2 -66.5t43 -58.5q30 -25 72 -36q19 -5 42 -7q21 -2 43 0q43 5 77 26l21 14q-5 4 -11 7q-8 4 -17 10zM428 203l19 -12q6 -4 21 -13l35 -20q5 7 9 14q10 17 18 38q8 20 14 41l-2 2h-170
q27 -29 56 -50zM271 421l12 4q23 9 43 18q46 21 74 46q32 29 39 59q7 31 -12 56q-20 26 -56 32q-8 1 -15 1q-10 0 -21 -2q-10 -2 -16 -4q-9 -3 -16 -7q-28 -17 -45 -54q-7 -18 -10 -36q-1 -4 -1 -8v-5v-2q0 -11 1 -22q4 -36 20 -77z" />
    <glyph glyph-name="quotesingle" unicode="'" horiz-adv-x="177" 
d="M47 624h83l-4 -251h-75z" />
    <glyph glyph-name="parenleft" unicode="(" horiz-adv-x="336" 
d="M333 767q6 -10 3.5 -21t-12.5 -17q-41 -26 -72 -60q-34 -38 -58 -88q-41 -91 -44 -209q-1 -59 6 -107q9 -56 27 -103q36 -95 114 -162q9 -8 10 -19t-7 -19l-2 -3q-9 -11 -24 -11q-10 0 -17 5q-101 70 -148 182q-47 109 -41 239q2 69 14 120q2 7 6 23l17 50q1 4 4 10l5 11
q6 15 11 22q29 58 76 103q41 39 91 65q11 5 22.5 2t18.5 -13z" />
    <glyph glyph-name="parenright" unicode=")" horiz-adv-x="337" 
d="M269 374q5 -129 -41 -239q-48 -112 -148 -182q-8 -5 -18 -5q-14 0 -23 11l-3 3q-7 8 -6.5 19t9.5 19q78 67 114 162q19 47 27 103q8 47 6 107q-3 118 -44 209q-23 50 -58 88q-31 34 -72 60q-10 6 -12.5 17t3.5 20q6 11 18 14t23 -2q50 -26 91 -65q47 -45 77 -103
q4 -7 11 -22l4 -11q3 -7 5 -10l16 -50q4 -15 6 -24q12 -50 15 -119z" />
    <glyph glyph-name="asterisk" unicode="*" horiz-adv-x="466" 
d="M422 605q4 -10 -1 -21t-17 -15l-95 -32q-5 -1 -7 -6q-1 -3 2 -6l62 -83q7 -10 5 -21q-2 -12 -13 -19l-19 -12q-11 -6 -22.5 -4t-18.5 12l-55 73q-3 4 -9 4t-9 -4l-57 -74q-9 -11 -24 -11q-10 0 -17 4l-19 12q-11 7 -13 19t5 21l60 77q2 3 2 7q-2 4 -6 6l-96 37
q-12 5 -16 16t1 21l9 19q5 11 16 15t23 0l82 -32q6 -2 11 1q4 3 4 6l2 102q0 11 10 20q8 7 20 7h24q13 -1 22 -10q7 -8 7 -19l-2 -95q0 -4 4 -6q5 -4 11 -2l87 29q12 4 23 -0.5t15 -15.5z" />
    <glyph glyph-name="plus" unicode="+" horiz-adv-x="589" 
d="M333 360h213v-77h-213v-154h-83v154h-208v77h208v153h83v-153z" />
    <glyph glyph-name="comma" unicode="," horiz-adv-x="175" 
d="M66 86h84l-2 -11q-1 -4 -2 -6l-68 -147h-84l2 12q0 3 1 6z" />
    <glyph glyph-name="hyphen" unicode="-" horiz-adv-x="340" 
d="M313 283h-287v77h287v-77z" />
    <glyph glyph-name="period" unicode="." horiz-adv-x="179" 
d="M89.5 116q24.5 0 42 -16t17.5 -38.5t-17.5 -38.5t-42 -16t-42 16t-17.5 38.5t17.5 38.5t42 16z" />
    <glyph glyph-name="slash" unicode="/" horiz-adv-x="463" 
d="M431 731q8 -12 2 -26l-312 -676q-8 -17 -28 -17h-25q-17 0 -26 14q-8 12 -2 25l313 677q8 16 27 16h26q17 0 25 -13z" />
    <glyph glyph-name="zero" unicode="0" horiz-adv-x="748" 
d="M583 659q103 -124 103 -285q0 -143 -103 -274q-39 -51 -93 -78t-116 -27q-130 0 -211 105q-100 128 -100 274q0 163 101 285q77 94 208 95q133 -1 211 -95zM558 374q0 155 -45 228.5t-140 74.5q-93 -1 -137.5 -74.5t-44.5 -228.5q0 -23 1.5 -45.5t5 -49t10 -50.5
t15.5 -48t23 -43t32 -34.5t42 -23.5t53 -8q88 0 136.5 79t48.5 223z" />
    <glyph glyph-name="one" unicode="1" horiz-adv-x="405" 
d="M32 660l293 98v-748h-129v618l-133 -39z" />
    <glyph glyph-name="two" unicode="2" horiz-adv-x="656" 
d="M380 317q-124 -81 -159 -158q-11 -23 -26 -70h372v-77h-512v39q0 58 37 138q8 18 24 36.5t31.5 32t42 32t42.5 28.5t46 28q37 22 54 34q91 58 107 91q19 36 16.5 75.5t-24.5 71.5q-41 57 -114 57q-18 0 -40 -8.5t-44 -25t-38 -45.5t-19 -66l-1 -9l-83 4l1 10q4 53 28 96
t57.5 68.5t70 39t68.5 13.5q69 0 140.5 -25.5t100.5 -66.5q34 -49 38 -108.5t-24 -113.5q-7 -13 -26 -27.5t-36 -24t-50 -26.5q-56 -28 -80 -43z" />
    <glyph glyph-name="three" unicode="3" horiz-adv-x="598" 
d="M421 379q49 -34 78.5 -82.5t29.5 -95.5q0 -80 -74.5 -140.5t-173.5 -60.5q-47 0 -92 19.5t-82.5 64.5t-50.5 107l-2 10l82 12l2 -9q13 -65 54.5 -96t88.5 -31q41 0 68.5 19.5t38 46.5t10.5 58q0 69 -21.5 103t-81.5 36h-21h-10v77h10q19 1 21 1q104 4 103 135
q0 65 -28.5 96.5t-88.5 31.5q-46 0 -85 -37q-34 -32 -38 -78l-1 -9l-83 2l1 10q5 76 62 129q30 28 68.5 44t75.5 16q109 0 178.5 -63t69.5 -142q0 -40 -30 -87.5t-78 -83.5v-3z" />
    <glyph glyph-name="four" unicode="4" horiz-adv-x="650" 
d="M516 742v-472h79v-77h-79v-183h-126v183h-344v83l327 466h143zM144 270h246v355z" />
    <glyph glyph-name="five" unicode="5" horiz-adv-x="613" 
d="M292 514q107 0 185 -76t78 -180q0 -106 -79 -185t-184 -79q-77 0 -140.5 47t-89.5 124l-4 10l80 21l3 -8q19 -53 60.5 -85t90.5 -32q35 0 62 16.5t42 44.5t22.5 60t7.5 66t-7.5 64.5t-22.5 57t-42 41.5t-62 15q-30 0 -60 -13t-40.5 -21t-15.5 -13l-3 -2l-5 -10l-97 -1
l10 35l88 331h23h319l-32 -77h-246l-46 -177q50 26 105 26z" />
    <glyph glyph-name="six" unicode="6" horiz-adv-x="606" 
d="M311 500q49 0 93.5 -19t76.5 -51.5t50.5 -77.5t18.5 -95q0 -104 -70 -177.5t-169 -73.5q-103 0 -176.5 70.5t-73.5 170.5v3q0 102 52.5 235.5t126.5 252.5l3 5h97l-10 -15q-84 -125 -132 -258q51 30 113 30zM467 257q0 46 -20.5 84t-56.5 60t-79 22q-59 0 -92.5 -44
t-33.5 -122q0 -33 7 -62.5t21 -55t39.5 -41t58.5 -15.5q65 0 110.5 51t45.5 123z" />
    <glyph glyph-name="seven" unicode="7" horiz-adv-x="549" 
d="M55 741h458v-123l-4 -3q-3 -2 -8 -5.5t-20 -16t-29 -26.5t-32.5 -37.5t-34.5 -49.5q-14 -23 -28.5 -56t-35 -91t-34.5 -139.5t-15 -170.5v-10l-83 1v9q2 119 26 227t53.5 175t68.5 125t58.5 78.5t34.5 34.5l-0.5 0.5t-1.5 0.5h-405z" />
    <glyph glyph-name="eight" unicode="8" horiz-adv-x="617" 
d="M458 391q44 -29 68 -73t24 -95q0 -89 -67.5 -152t-163.5 -63q-102 0 -178 64.5t-76 150.5q0 23 8.5 46t20.5 40.5t28 34.5t28.5 27t25.5 19q-3 3 -13 11l-4 4q-24 19 -40.5 44t-25.5 53t-9 58q0 79 70.5 138.5t164.5 59.5q89 0 151 -57t62 -141q0 -45 -19.5 -85.5
t-55.5 -70.5q-3 -2 -3 -6t4 -7zM319 433q54 0 92 37t38 90q0 52 -37.5 87t-92.5 35q-23 0 -41.5 -6.5t-29.5 -17.5t-18.5 -23.5t-11 -27t-5 -25.5t-1.5 -22q0 -33 10 -60.5t34.5 -47t62.5 -19.5zM319 356q-64 0 -94.5 -39t-30.5 -94q0 -63 34 -100.5t91 -37.5
q40 0 74.5 18.5t54 50.5t19.5 69q0 56 -43 94.5t-105 38.5z" />
    <glyph glyph-name="nine" unicode="9" horiz-adv-x="623" 
d="M299 747q105 0 184.5 -74t79.5 -173v-3q0 -57 -19.5 -126t-52.5 -136.5t-63 -119.5t-63 -102l-3 -5h-93l11 15q32 48 68 118t60 127q2 4 -2 8q-5 5 -13 2q-45 -17 -94 -17q-104 0 -175 69t-71 170q0 50 19.5 96t52.5 79t78.5 52.5t95.5 19.5zM434 500q0 31 -7.5 60
t-22.5 54.5t-42 40.5t-63 15q-67 0 -115 -49.5t-48 -120.5q0 -68 47 -115t116 -47q21 0 39 5t31.5 13.5t24.5 20.5t18.5 26t12.5 30.5t7 33t2 33.5z" />
    <glyph glyph-name="colon" unicode=":" horiz-adv-x="189" 
d="M94.5 250q-24.5 0 -42 16.5t-17.5 39t17.5 38.5t42 16t42 -16t17.5 -38.5t-17.5 -39t-42 -16.5zM94.5 -67q-24.5 0 -42 16t-17.5 38.5t17.5 38.5t42 16t42 -16t17.5 -38.5t-17.5 -38.5t-42 -16z" />
    <glyph glyph-name="semicolon" unicode=";" horiz-adv-x="182" 
d="M90.5 360q24.5 0 42 -16t17.5 -38.5t-17.5 -39t-42 -16.5t-42 16.5t-17.5 39t17.5 38.5t42 16zM-24 -136l69 146h84l-2 -11q0 -4 -2 -7l-68 -146h-84l2 11q0 4 1 7z" />
    <glyph glyph-name="less" unicode="&#x3c;" horiz-adv-x="346" 
d="M289 202q9 -9 9.5 -20.5t-8.5 -20.5l-16 -15q-9 -8 -21 -8t-21 7l-182 157q-10 8 -10 20.5t10 20.5l183 153q8 8 20.5 7.5t20.5 -8.5l16 -16q9 -8 8.5 -20t-10.5 -20l-133 -111q-3 -3 -3 -6.5t3 -5.5z" />
    <glyph glyph-name="equal" unicode="=" horiz-adv-x="579" 
d="M541 331h-504v77h504v-77zM541 122h-504v77h504v-77z" />
    <glyph glyph-name="greater" unicode="&#x3e;" horiz-adv-x="346" 
d="M295 343q10 -8 10.5 -20.5t-9.5 -20.5l-183 -157q-8 -7 -20 -7q-13 0 -21 8l-16 15q-9 9 -9 20.5t10 19.5l133 115q3 2 3 5.5t-3 6.5l-133 111q-9 8 -9.5 20t8.5 20l15 16q9 8 21 8.5t21 -7.5z" />
    <glyph glyph-name="question" unicode="?" horiz-adv-x="590" 
d="M262.5 42q24.5 0 42 -16t17.5 -38.5t-17.5 -38.5t-42 -16t-42 16t-17.5 38.5t17.5 38.5t42 16zM467 613q71 -68 71 -169q0 -25 -10 -49.5t-22.5 -42.5t-36 -39.5t-38 -32.5t-41.5 -31q-16 -12 -21 -15q-70 -52 -70 -65v-103h-83v103q0 15 5.5 29t13.5 24.5t24 25
t26.5 22.5l31.5 24q95 71 95 150q0 75 -36 117t-99 42q-50 0 -97.5 -35.5t-56.5 -79.5l-1 -8l-83 6l2 10q11 74 82 129t154 55q54 0 105.5 -18t84.5 -49z" />
    <glyph glyph-name="at" unicode="@" horiz-adv-x="976" 
d="M804 522q55 -46 84.5 -107.5t29.5 -129.5q0 -93 -45 -169q-21 -37 -59.5 -58t-84.5 -21q-44 0 -82 20.5t-60 54.5v0.5v1.5q-48 -30 -106 -30h-3q-77 0 -131.5 49.5t-54.5 118.5q0 71 54.5 121t131.5 50h3q45 0 85 -19v3v36h100v-255q0 -9 1.5 -19t7 -23.5t19.5 -22
t34 -9.5h1q49 0 71 38q34 59 34 134q0 106 -86 180q-51 43 -123 64.5t-151 17.5q-88 0 -165 -40.5t-122.5 -108t-45.5 -144.5v-4q0 -118 93 -201.5t224 -83.5h8q84 0 157 37l7 4l44 -65l-9 -5q-93 -48 -199 -48h-8q-109 0 -201 48.5t-145.5 132t-53.5 181.5v4q0 72 32.5 140
t92.5 121q58 52 133.5 80.5t153.5 28.5q96 5 183.5 -22t150.5 -81zM585 254q0 48 -27 78t-69 30h-3q-30 0 -55.5 -14.5t-40.5 -39t-15 -54.5q0 -15 4 -29.5t11.5 -26.5t17.5 -22t22 -17t26.5 -11t29.5 -4h3q42 0 69 30t27 78v2z" />
    <glyph glyph-name="A" unicode="A" horiz-adv-x="723" 
d="M427 722l281 -714h-139l-7 19l-53 134h-363l-9 -20l-53 -133h-69l15 39l281 693h109zM485 224l-5 13l-151 384l-158 -397h314z" />
    <glyph glyph-name="B" unicode="B" horiz-adv-x="742" 
d="M548 392q63 -22 108.5 -73t45.5 -112q0 -80 -68.5 -139.5t-159.5 -59.5h-395v727h10v10h300q46 0 90 -17t76.5 -45.5t52 -67t19.5 -79.5q0 -68 -79 -144zM209 342v-275h234q53 0 92 41t39 96.5t-39 96.5t-92 41h-234zM389 401q38 0 64 21.5t36.5 52t10.5 66.5
q0 58 -27.5 99t-83.5 41h-180v-280h180z" />
    <glyph glyph-name="C" unicode="C" horiz-adv-x="701" 
d="M606 105l6 4l46 -47l-10 -6q-95 -58 -205 -58q-106 0 -198 51.5t-146 139t-54 188t54 188t146 139t198 51.5q125 0 227 -73l9 -6l-58 -60l-7 5q-106 85 -231 65q-104 -16 -163 -100q-36 -50 -48 -116.5t2 -137.5q26 -133 119 -208t210 -57q55 8 103 38z" />
    <glyph glyph-name="D" unicode="D" horiz-adv-x="752" 
d="M595 644q110 -99 110 -269q0 -166 -130 -279q-102 -88 -268 -88h-229v681q-1 36 -0.5 42.5t6.5 9.5l6 2l2 -2h215q180 0 288 -97zM576 375q0 308 -269 308h-104v-616h104q135 0 202 76t67 232z" />
    <glyph glyph-name="E" unicode="E" horiz-adv-x="634" 
d="M205 395v-321h395l-49 -66h-472v733h35h498l-62 -64h-345v-219h391l-51 -63h-340z" />
    <glyph glyph-name="F" unicode="F" horiz-adv-x="603" 
d="M658 743l-81 -63h-375v-298h237l-12 -16q-25 -35 -30 -41t-9 -7h-186v-310h-123v735h579z" />
    <glyph glyph-name="G" unicode="G" horiz-adv-x="782" 
d="M429 381h292v-369h-128v10v23v14q-66 -61 -173 -61q-75 0 -144 28.5t-119 77.5t-79.5 116t-29.5 141q0 94 32 170.5t85 124.5t119 73.5t136 25.5q76 0 146 -33t121 -94l6 -8l-66 -52l-6 8q-50 63 -117.5 92.5t-138.5 17.5q-57 -9 -98.5 -42.5t-61.5 -80.5t-27 -97.5
t-1 -103.5q5 -49 23 -96.5t46.5 -87t64.5 -66.5q78 -60 164 -45q41 7 74.5 31.5t43.5 50.5v169h-134z" />
    <glyph glyph-name="H" unicode="H" horiz-adv-x="800" 
d="M710 742h10v-734h-128v296h-384v-296h-129v734h129v-375h384l-1 375h114h5z" />
    <glyph glyph-name="I" unicode="I" horiz-adv-x="286" 
d="M79 741h128v-733h-128v733z" />
    <glyph glyph-name="J" unicode="J" horiz-adv-x="548" 
d="M351 742h126v-484q0 -115 -76 -186q-74 -70 -188 -70q-57 0 -108 22t-86 62l-7 7l56 44l6 -7q57 -65 139 -65q68 0 102 35q38 38 36 134v10v498z" />
    <glyph glyph-name="K" unicode="K" horiz-adv-x="730" 
d="M343 421l381 -413h-173l-294 319l-51 -59v-259h-128v732h99h29v-373l348 373h55h31l-42 -47z" />
    <glyph glyph-name="L" unicode="L" horiz-adv-x="591" 
d="M205 71h380l-14 -16q-38 -43 -39 -44l-3 -3h-451v733h96h31v-670z" />
    <glyph glyph-name="M" unicode="M" horiz-adv-x="936" 
d="M746 741h110v-733h-117v590l-290 -528l-307 468v-530h-63v733h93l312 -475z" />
    <glyph glyph-name="N" unicode="N" horiz-adv-x="792" 
d="M649 741h63v-733h-79l-490 527l-1 -527h-63v733h60l510 -546v546z" />
    <glyph glyph-name="O" unicode="O" 
d="M419 756q99 0 185.5 -51.5t137.5 -139t51 -188.5t-51 -188.5t-137.5 -139t-185.5 -51.5q-100 0 -186 51.5t-136.5 139t-50.5 188.5t50.5 188.5t136.5 139t186 51.5zM363 687q-87 -15 -140 -89q-36 -51 -48 -120.5t1 -145.5q24 -133 108 -208t190 -57q88 15 142 91
q37 53 50 123.5t-1 146.5q-21 118 -93.5 190t-168.5 72q-20 0 -40 -3z" />
    <glyph glyph-name="P" unicode="P" horiz-adv-x="728" 
d="M369 743q85 0 159.5 -37.5t118.5 -101.5t44 -137v-8q0 -56 -26 -107t-69.5 -88t-103 -59.5t-123.5 -22.5h-161v-174h-129v735h290zM562 467q0 93 -54 152t-139 59h-161v-431h161q56 0 100 26.5t68.5 75t24.5 109.5v9z" />
    <glyph glyph-name="Q" unicode="Q" horiz-adv-x="849" 
d="M800 80l4 -77h-11q-9 0 -34 2.5t-71.5 16t-71.5 34.5q-89 -68 -198 -68q-98 0 -184 53t-137 142t-51 189t51 189t137 142t184 53q69 0 135.5 -29.5t117.5 -83.5q53 -55 81 -125t28 -146q0 -130 -99 -253q-3 -3 -2 -7t5 -6q42 -25 107 -26h9zM435 246l-9 2l6 79l10 -1
q112 -12 177 -136q34 63 34 159q0 64 -16 125t-44.5 111t-74 80.5t-100.5 30.5q-74 0 -131 -52t-85 -130t-28 -166q0 -134 67 -217t177 -83q77 0 143 51q6 4 3 11l-3 7q-47 120 -126 129z" />
    <glyph glyph-name="R" unicode="R" horiz-adv-x="740" 
d="M691 456q0 -79 -35 -141t-99 -97l-10 -5l135 -205h-156l-95 149q-15 24 -42 23q-11 -1 -19 -1h-163v-171h-128v732h291q85 0 159 -37.5t118 -101.5t44 -137v-8zM562 464q0 43 -11.5 81.5t-34 70.5t-60.5 51t-86 19h-163v-452h163q38 0 70.5 12.5t54.5 33.5t37.5 49.5
t22.5 60.5t7 65v9z" />
    <glyph glyph-name="S" unicode="S" horiz-adv-x="663" 
d="M368 421q37 -13 67.5 -26.5t66 -35.5t59.5 -45.5t40.5 -57t16.5 -71.5q0 -52 -24.5 -91t-66.5 -61t-90.5 -32.5t-102.5 -10.5q-111 0 -183 46.5t-93 132.5l-3 9l88 18l2 -9q30 -135 207 -135q64 0 107.5 35t43.5 88q0 16 -5 30t-19 26.5t-26.5 21.5t-39 20.5t-44 18
t-54.5 19.5l-29 11q-44 15 -67 24.5t-61 30t-57.5 40.5t-35.5 52.5t-16 71.5q0 32 16.5 65.5t47.5 64t83.5 49.5t118.5 19q190 0 278 -136l6 -10l-82 -31l-4 7q-74 113 -196 113q-92 0 -132 -51q-17 -20 -22 -44t-1 -40q4 -17 14 -31t21.5 -23.5t35.5 -20.5t41 -17.5
t54 -19.5q22 -7 40 -14z" />
    <glyph glyph-name="T" unicode="T" horiz-adv-x="646" 
d="M-10 743h664l-20 -63h-248v-672h-127v672h-248z" />
    <glyph glyph-name="U" unicode="U" horiz-adv-x="767" 
d="M699 742l1 -439q0 -124 -90 -212t-217 -88q-64 0 -124.5 24.5t-105 65.5t-71.5 96t-27 114l-1 389q0 6 1 41v9h126l1 -439q0 -97 57 -160t144 -63q110 0 178 61.5t68 161.5l-2 439h62z" />
    <glyph glyph-name="V" unicode="V" horiz-adv-x="684" 
d="M615 741h69l-285 -733h-114l-7 18l-273 701l-7 14h150l-6 -12l235 -599z" />
    <glyph glyph-name="W" unicode="W" horiz-adv-x="1174" 
d="M1106 740h69l-16 -38l-280 -694h-110l-7 19l-177 411l-171 -383l-18 -47h-109l-8 19l-280 713h139l240 -614l173 390l-96 224h139l266 -614z" />
    <glyph glyph-name="X" unicode="X" horiz-adv-x="703" 
d="M410 397l278 -389h-157l-204 286l-231 -286h-81l274 339l-283 396h157l209 -293l237 293h70v-13l-2 -4z" />
    <glyph glyph-name="Y" unicode="Y" horiz-adv-x="606" 
d="M535 744h91l-242 -388q-2 -2 -2 -4v-343h-128l2 290q0 2 -1 4l-274 441h153l199 -325z" />
    <glyph glyph-name="Z" unicode="Z" horiz-adv-x="682" 
d="M184 71h475l-36 -63h-599v66l2 3l469 599h-431l-50 63h638v-67l-2 -3z" />
    <glyph glyph-name="bracketleft" unicode="[" horiz-adv-x="243" 
d="M174 731q-11 0 -11 -8v-747q0 -8 11 -8h136q8 0 15 -4t11 -10.5t4 -13.5v-21q0 -12 -9 -20t-21 -8h-200q-12 0 -21 8t-9 20v861q0 12 9 20t21 8h200q8 0 15 -3.5t11 -10t4 -14.5v-21q0 -11 -9 -19.5t-21 -8.5h-136z" />
    <glyph glyph-name="backslash" unicode="\" horiz-adv-x="463" 
d="M422 51q6 -13 -2 -25q-8 -14 -25 -14h-26q-19 0 -27 17l-313 676q-6 14 2 26q9 13 26 13h25q20 0 28 -16z" />
    <glyph glyph-name="bracketright" unicode="]" horiz-adv-x="243" 
d="M133 808q12 0 21 -8t9 -19v-862q0 -12 -9 -20t-21 -8h-200q-12 0 -21 8t-9 20v21q0 11 8 19q10 10 22 9h136q11 0 11 8v747q0 9 -11 9h-136q-12 0 -21 8t-9 20v21q0 11 9 19t21 8h200z" />
    <glyph glyph-name="asciicircum" unicode="^" horiz-adv-x="531" 
d="M490 311q5 -10 1 -21q-4 -12 -15 -17l-23 -10q-6 -3 -13 -3q-18 0 -27 16l-138 253q-3 6 -10 6t-10 -6l-137 -253q-6 -10 -17.5 -14t-22.5 1l-23 10q-12 5 -16 17q-3 11 2 21l185 340q8 15 27 15h25q19 0 27 -15z" />
    <glyph glyph-name="underscore" unicode="_" horiz-adv-x="0" 
d="M268 -206h-536v77h536v-77z" />
    <glyph glyph-name="grave" unicode="`" horiz-adv-x="184" 
d="M156 653q5 -11 -2 -21q-7 -12 -22 -12h-46q-14 0 -22 12l-86 138q-8 11 -1 23q7 13 23 13h74q17 0 24 -15z" />
    <glyph glyph-name="a" unicode="a" horiz-adv-x="724" 
d="M427 722l281 -714h-139l-7 19l-53 134h-363l-9 -20l-53 -133h-69l15 39l281 693h109zM485 224l-5 13l-151 384l-158 -397h314z" />
    <glyph glyph-name="a" unicode="&#xe5;" horiz-adv-x="724" 
d="M427 722l281 -714h-139l-7 19l-53 134h-363l-9 -20l-53 -133h-69l15 39l281 693h109zM485 224l-5 13l-151 384l-158 -397h314z" />
    <glyph glyph-name="a" unicode="&#xe4;" horiz-adv-x="724" 
d="M427 722l281 -714h-139l-7 19l-53 134h-363l-9 -20l-53 -133h-69l15 39l281 693h109zM485 224l-5 13l-151 384l-158 -397h314z" />
    <glyph glyph-name="a" unicode="&#xe3;" horiz-adv-x="724" 
d="M427 722l281 -714h-139l-7 19l-53 134h-363l-9 -20l-53 -133h-69l15 39l281 693h109zM485 224l-5 13l-151 384l-158 -397h314z" />
    <glyph glyph-name="a" unicode="&#xe2;" horiz-adv-x="724" 
d="M427 722l281 -714h-139l-7 19l-53 134h-363l-9 -20l-53 -133h-69l15 39l281 693h109zM485 224l-5 13l-151 384l-158 -397h314z" />
    <glyph glyph-name="a" unicode="&#xe1;" horiz-adv-x="724" 
d="M427 722l281 -714h-139l-7 19l-53 134h-363l-9 -20l-53 -133h-69l15 39l281 693h109zM485 224l-5 13l-151 384l-158 -397h314z" />
    <glyph glyph-name="a" unicode="&#xe0;" horiz-adv-x="724" 
d="M427 722l281 -714h-139l-7 19l-53 134h-363l-9 -20l-53 -133h-69l15 39l281 693h109zM485 224l-5 13l-151 384l-158 -397h314z" />
    <glyph glyph-name="b" unicode="b" horiz-adv-x="744" 
d="M549 392q63 -22 108.5 -73t45.5 -112q0 -80 -68.5 -139.5t-159.5 -59.5h-395v727h10v10h300q95 0 166.5 -62.5t71.5 -146.5q0 -68 -79 -144zM575 204.5q0 55.5 -39 96.5t-92 41h-234v-275h234q53 0 92 41t39 96.5zM210 681v-280h180q38 0 64 21.5t36.5 52t10.5 66.5
q0 58 -27.5 99t-83.5 41h-180z" />
    <glyph glyph-name="c" unicode="c" horiz-adv-x="702" 
d="M607 105l6 4l46 -47l-10 -6q-95 -58 -205 -58q-106 0 -198 51.5t-146 139t-54 188t54 188t146 139t198 51.5q125 0 227 -73l9 -6l-58 -60l-7 5q-106 85 -231 65q-104 -16 -163 -100q-36 -50 -48 -116.5t2 -137.5q26 -133 119 -208t210 -57q55 8 103 38z" />
    <glyph glyph-name="c" unicode="&#xe7;" horiz-adv-x="702" 
d="M607 105l6 4l46 -47l-10 -6q-95 -58 -205 -58q-106 0 -198 51.5t-146 139t-54 188t54 188t146 139t198 51.5q125 0 227 -73l9 -6l-58 -60l-7 5q-106 85 -231 65q-104 -16 -163 -100q-36 -50 -48 -116.5t2 -137.5q26 -133 119 -208t210 -57q55 8 103 38z" />
    <glyph glyph-name="d" unicode="d" horiz-adv-x="753" 
d="M596 644q110 -99 110 -269q0 -166 -130 -279q-102 -88 -268 -88h-229v681q-1 36 -0.5 42.5t6.5 9.5l6 2l2 -2h215q180 0 288 -97zM577 375q0 308 -269 308h-104v-616h104q135 0 202 76t67 232z" />
    <glyph glyph-name="e" unicode="e" horiz-adv-x="635" 
d="M206 395v-321h395l-49 -66h-472v733h35h499l-63 -64h-345v-219h391l-51 -63h-340z" />
    <glyph glyph-name="e" unicode="&#xeb;" horiz-adv-x="635" 
d="M206 395v-321h395l-49 -66h-472v733h35h499l-63 -64h-345v-219h391l-51 -63h-340z" />
    <glyph glyph-name="e" unicode="&#xea;" horiz-adv-x="635" 
d="M206 395v-321h395l-49 -66h-472v733h35h499l-63 -64h-345v-219h391l-51 -63h-340z" />
    <glyph glyph-name="e" unicode="&#xe9;" horiz-adv-x="635" 
d="M206 395v-321h395l-49 -66h-472v733h35h499l-63 -64h-345v-219h391l-51 -63h-340z" />
    <glyph glyph-name="e" unicode="&#xe8;" horiz-adv-x="635" 
d="M206 395v-321h395l-49 -66h-472v733h35h499l-63 -64h-345v-219h391l-51 -63h-340z" />
    <glyph glyph-name="f" unicode="f" horiz-adv-x="604" 
d="M659 743l-81 -63h-375v-298h237l-12 -16q-25 -35 -30 -41t-9 -7h-186v-310h-123v735h579z" />
    <glyph glyph-name="g" unicode="g" horiz-adv-x="783" 
d="M429 381h292v-369h-128v10v23v14q-66 -61 -173 -61q-75 0 -144 28.5t-119 77.5t-79.5 116t-29.5 141q0 94 32 170.5t85 124.5t119 73.5t136 25.5q51 0 99 -15t91 -43.5t77 -68.5l6 -8l-66 -52l-6 8q-50 64 -117.5 93t-138.5 17q-57 -9 -98.5 -42.5t-61.5 -80.5t-27 -97.5
t-1 -103.5q5 -49 23 -96.5t46.5 -87t64.5 -66.5q78 -60 164 -45q41 7 74.5 31.5t43.5 50.5v169h-134z" />
    <glyph glyph-name="h" unicode="h" horiz-adv-x="802" 
d="M711 742h10v-734h-128v296h-384v-296h-129v734h129v-375h384l-1 375h114h5z" />
    <glyph glyph-name="i" unicode="i" horiz-adv-x="287" 
d="M79 741h128v-733h-128v733z" />
    <glyph glyph-name="i" unicode="&#xef;" horiz-adv-x="287" 
d="M79 741h128v-733h-128v733z" />
    <glyph glyph-name="i" unicode="&#xee;" horiz-adv-x="287" 
d="M79 741h128v-733h-128v733z" />
    <glyph glyph-name="i" unicode="&#xed;" horiz-adv-x="287" 
d="M79 741h128v-733h-128v733z" />
    <glyph glyph-name="i" unicode="&#xec;" horiz-adv-x="287" 
d="M79 741h128v-733h-128v733z" />
    <glyph glyph-name="j" unicode="j" horiz-adv-x="550" 
d="M352 742h126v-484q0 -115 -76 -186q-74 -70 -188 -70q-57 0 -108 22t-86 62l-7 7l56 44l6 -7q57 -65 139 -65q68 0 102 35q38 38 36 134v10v498z" />
    <glyph glyph-name="k" unicode="k" horiz-adv-x="731" 
d="M344 421l381 -413h-173l-294 319l-51 -59v-259h-128l1 732h98h29v-373l348 373h55h31l-42 -47z" />
    <glyph glyph-name="l" unicode="l" horiz-adv-x="593" 
d="M206 71h380l-14 -16q-38 -43 -39 -44l-3 -3h-451v733h94h33v-670z" />
    <glyph glyph-name="m" unicode="m" horiz-adv-x="938" 
d="M747 741h110v-733h-117v590l-290 -528l-307 468v-530h-63v733h93l312 -475z" />
    <glyph glyph-name="n" unicode="n" horiz-adv-x="794" 
d="M650 741h63v-733h-79l-490 527l-1 -527h-63v733h60l510 -546v546z" />
    <glyph glyph-name="n" unicode="&#xf1;" horiz-adv-x="794" 
d="M650 741h63v-733h-79l-490 527l-1 -527h-63v733h60l510 -546v546z" />
    <glyph glyph-name="o" unicode="o" horiz-adv-x="842" 
d="M420 756q99 0 185.5 -51.5t137.5 -139t51 -188.5t-51 -188.5t-137.5 -139t-185.5 -51.5q-100 0 -186 51.5t-136.5 139t-50.5 188.5q0 75 30 145t80.5 121.5t119 82t143.5 30.5zM475 67q87 15 142 91q37 53 50 123.5t-1 146.5q-21 118 -93.5 190t-168.5 72q-20 0 -39 -3
q-88 -15 -141 -89q-36 -51 -48 -120.5t1 -145.5q24 -133 108 -208t190 -57z" />
    <glyph glyph-name="o" unicode="&#xf8;" horiz-adv-x="842" 
d="M420 756q99 0 185.5 -51.5t137.5 -139t51 -188.5t-51 -188.5t-137.5 -139t-185.5 -51.5q-100 0 -186 51.5t-136.5 139t-50.5 188.5q0 75 30 145t80.5 121.5t119 82t143.5 30.5zM475 67q87 15 142 91q37 53 50 123.5t-1 146.5q-21 118 -93.5 190t-168.5 72q-20 0 -39 -3
q-88 -15 -141 -89q-36 -51 -48 -120.5t1 -145.5q24 -133 108 -208t190 -57z" />
    <glyph glyph-name="o" unicode="&#xf6;" horiz-adv-x="842" 
d="M420 756q99 0 185.5 -51.5t137.5 -139t51 -188.5t-51 -188.5t-137.5 -139t-185.5 -51.5q-100 0 -186 51.5t-136.5 139t-50.5 188.5q0 75 30 145t80.5 121.5t119 82t143.5 30.5zM475 67q87 15 142 91q37 53 50 123.5t-1 146.5q-21 118 -93.5 190t-168.5 72q-20 0 -39 -3
q-88 -15 -141 -89q-36 -51 -48 -120.5t1 -145.5q24 -133 108 -208t190 -57z" />
    <glyph glyph-name="o" unicode="&#xf5;" horiz-adv-x="842" 
d="M420 756q99 0 185.5 -51.5t137.5 -139t51 -188.5t-51 -188.5t-137.5 -139t-185.5 -51.5q-100 0 -186 51.5t-136.5 139t-50.5 188.5q0 75 30 145t80.5 121.5t119 82t143.5 30.5zM475 67q87 15 142 91q37 53 50 123.5t-1 146.5q-21 118 -93.5 190t-168.5 72q-20 0 -39 -3
q-88 -15 -141 -89q-36 -51 -48 -120.5t1 -145.5q24 -133 108 -208t190 -57z" />
    <glyph glyph-name="o" unicode="&#xf4;" horiz-adv-x="842" 
d="M420 756q99 0 185.5 -51.5t137.5 -139t51 -188.5t-51 -188.5t-137.5 -139t-185.5 -51.5q-100 0 -186 51.5t-136.5 139t-50.5 188.5q0 75 30 145t80.5 121.5t119 82t143.5 30.5zM475 67q87 15 142 91q37 53 50 123.5t-1 146.5q-21 118 -93.5 190t-168.5 72q-20 0 -39 -3
q-88 -15 -141 -89q-36 -51 -48 -120.5t1 -145.5q24 -133 108 -208t190 -57z" />
    <glyph glyph-name="o" unicode="&#xf3;" horiz-adv-x="842" 
d="M420 756q99 0 185.5 -51.5t137.5 -139t51 -188.5t-51 -188.5t-137.5 -139t-185.5 -51.5q-100 0 -186 51.5t-136.5 139t-50.5 188.5q0 75 30 145t80.5 121.5t119 82t143.5 30.5zM475 67q87 15 142 91q37 53 50 123.5t-1 146.5q-21 118 -93.5 190t-168.5 72q-20 0 -39 -3
q-88 -15 -141 -89q-36 -51 -48 -120.5t1 -145.5q24 -133 108 -208t190 -57z" />
    <glyph glyph-name="o" unicode="&#xf2;" horiz-adv-x="842" 
d="M420 756q99 0 185.5 -51.5t137.5 -139t51 -188.5t-51 -188.5t-137.5 -139t-185.5 -51.5q-100 0 -186 51.5t-136.5 139t-50.5 188.5q0 75 30 145t80.5 121.5t119 82t143.5 30.5zM475 67q87 15 142 91q37 53 50 123.5t-1 146.5q-21 118 -93.5 190t-168.5 72q-20 0 -39 -3
q-88 -15 -141 -89q-36 -51 -48 -120.5t1 -145.5q24 -133 108 -208t190 -57z" />
    <glyph glyph-name="p" unicode="p" horiz-adv-x="730" 
d="M370 743q85 0 159.5 -37.5t118.5 -101.5t44 -137v-8q0 -56 -26 -107t-69.5 -88t-103 -59.5t-123.5 -22.5h-161v-174h-129v735h290zM563 467q0 93 -54 152t-139 59h-161v-431h161q56 0 100 26.5t68.5 75t24.5 109.5v9z" />
    <glyph glyph-name="q" unicode="q" horiz-adv-x="851" 
d="M801 80l4 -77h-11q-9 0 -34 2.5t-71.5 16t-71.5 34.5q-89 -68 -198 -68q-98 0 -184 53t-137 142t-51 189t51 189t137 142t184 53q46 0 91.5 -13.5t86.5 -38.5t75 -61q53 -55 81 -125t28 -146q0 -130 -99 -253q-3 -3 -2 -7t5 -6q42 -25 107 -26h9zM433 327l10 -1
q112 -12 176 -136q34 63 34 159q0 64 -15.5 125t-44 111t-74 80.5t-100.5 30.5q-74 0 -131 -52t-85 -130t-28 -166q0 -134 67 -217t177 -83q77 0 142 51q7 4 4 11l-3 7q-47 120 -126 129l-9 2z" />
    <glyph glyph-name="r" unicode="r" horiz-adv-x="742" 
d="M692 456q0 -79 -35 -141t-99 -97l-10 -5l135 -205h-156l-95 149q-15 24 -42 23q-11 -1 -19 -1h-163v-171h-128v732h291q85 0 159 -37.5t118 -101.5t44 -137v-8zM563 464q0 43 -11.5 81.5t-34 70.5t-60.5 51t-86 19h-163v-452h163q38 0 70.5 12.5t54.5 33.5t37.5 49.5
t22.5 60.5t7 65v9z" />
    <glyph glyph-name="s" unicode="s" horiz-adv-x="665" 
d="M369 421q37 -13 67.5 -26.5t66 -35.5t59.5 -45.5t40.5 -57t16.5 -71.5q0 -42 -16.5 -75.5t-44 -55.5t-64.5 -37t-77 -21t-82 -6q-111 0 -183 46.5t-93 132.5l-3 9l88 18l2 -9q30 -135 207 -135q64 0 107.5 35t43.5 87q0 17 -5 31t-19 26.5t-26.5 21.5t-39 20.5t-44 18
t-54.5 19.5l-29 11q-22 7 -33 11.5t-32 12.5t-33 14.5t-30.5 16t-30 19t-25.5 21.5t-22 25t-16 28t-11.5 33t-3.5 38q0 25 10 52t31.5 53t51.5 46.5t75 33.5t98 13q190 0 278 -136l6 -10l-82 -31l-4 7q-74 113 -196 113q-92 0 -132 -51q-17 -20 -22 -44t-1 -40q4 -17 14 -31
t21.5 -23.5t35.5 -20.5t41 -17.5t54 -19.5q24 -8 40 -14z" />
    <glyph glyph-name="t" unicode="t" horiz-adv-x="647" 
d="M-9 743h664l-20 -63h-248v-672h-127v672h-248z" />
    <glyph glyph-name="u" unicode="u" horiz-adv-x="769" 
d="M700 742l1 -439q0 -124 -90 -212t-217 -88q-64 0 -124.5 24.5t-105 65.5t-71.5 96t-27 114l-1 389q0 6 1 41v9h126l1 -439q0 -97 57 -160t144 -63q110 0 178 61.5t68 161.5l-2 439h62z" />
    <glyph glyph-name="u" unicode="&#xfc;" horiz-adv-x="769" 
d="M700 742l1 -439q0 -124 -90 -212t-217 -88q-64 0 -124.5 24.5t-105 65.5t-71.5 96t-27 114l-1 389q0 6 1 41v9h126l1 -439q0 -97 57 -160t144 -63q110 0 178 61.5t68 161.5l-2 439h62z" />
    <glyph glyph-name="u" unicode="&#xfb;" horiz-adv-x="769" 
d="M700 742l1 -439q0 -124 -90 -212t-217 -88q-64 0 -124.5 24.5t-105 65.5t-71.5 96t-27 114l-1 389q0 6 1 41v9h126l1 -439q0 -97 57 -160t144 -63q110 0 178 61.5t68 161.5l-2 439h62z" />
    <glyph glyph-name="u" unicode="&#xfa;" horiz-adv-x="769" 
d="M700 742l1 -439q0 -124 -90 -212t-217 -88q-64 0 -124.5 24.5t-105 65.5t-71.5 96t-27 114l-1 389q0 6 1 41v9h126l1 -439q0 -97 57 -160t144 -63q110 0 178 61.5t68 161.5l-2 439h62z" />
    <glyph glyph-name="u" unicode="&#xf9;" horiz-adv-x="769" 
d="M700 742l1 -439q0 -124 -90 -212t-217 -88q-64 0 -124.5 24.5t-105 65.5t-71.5 96t-27 114l-1 389q0 6 1 41v9h126l1 -439q0 -97 57 -160t144 -63q110 0 178 61.5t68 161.5l-2 439h62z" />
    <glyph glyph-name="v" unicode="v" horiz-adv-x="686" 
d="M616 741h69l-285 -733h-114l-7 18l-273 701l-7 14h150l-6 -12l235 -599z" />
    <glyph glyph-name="w" unicode="w" horiz-adv-x="1175" 
d="M1107 740h69l-16 -38l-280 -694h-110l-7 19l-177 411l-171 -383l-18 -47h-109l-8 19l-280 713h139l240 -614l173 390l-96 224h139l266 -614z" />
    <glyph glyph-name="x" unicode="x" horiz-adv-x="705" 
d="M411 397l278 -389h-157l-204 286l-231 -286h-81l274 339l-283 396h157l209 -293l237 293h70v-13l-2 -4z" />
    <glyph glyph-name="y" unicode="y" horiz-adv-x="607" 
d="M535 744h91l-242 -388q-2 -2 -2 -4v-343h-128l2 290q0 2 -1 4l-274 441h153l199 -325z" />
    <glyph glyph-name="y" unicode="&#xff;" horiz-adv-x="607" 
d="M535 744h91l-242 -388q-2 -2 -2 -4v-343h-128l2 290q0 2 -1 4l-274 441h153l199 -325z" />
    <glyph glyph-name="y" unicode="&#xfd;" horiz-adv-x="607" 
d="M535 744h91l-242 -388q-2 -2 -2 -4v-343h-128l2 290q0 2 -1 4l-274 441h153l199 -325z" />
    <glyph glyph-name="z" unicode="z" horiz-adv-x="683" 
d="M184 71h475l-36 -63h-599v66l2 3l469 599h-431l-50 63h638v-67l-2 -3z" />
    <glyph glyph-name="braceleft" unicode="{" horiz-adv-x="324" 
d="M344 -42q12 -1 20 -9t8 -19.5t-8 -20t-20 -8.5q-11 -1 -23 -2h-4h-8h-3h-10q-8 0 -14 1l-3 1q-7 1 -11 2q-58 14 -87 62q-15 24 -18 50q-1 9 -1 13v29q-1 15 -1 55v22q-1 18 -1 54l1 23v30v9v10q-1 2 -1 3q-1 5 -3 11q-4 12 -13 21q-10 10 -22 15q-13 7 -28 8h-4l-17 1
q-12 1 -21 10t-9 21t9 20.5t21 9.5l16 1q3 0 4 1q16 1 29 7q12 6 22 16q9 9 13 20q2 6 3 12l1 3v9v11v28l-1 23q0 36 1 54v23q0 41 1 54v29q0 3 1 11q3 29 18 52q29 48 87 63q5 1 13 2q6 1 14 2h11h3l35 -2q8 -1 14.5 -5t10 -10.5t3.5 -13.5t-3.5 -13.5t-10 -10.5t-14.5 -5
q-10 0 -23 -1l-26 -3l-7 -2q-27 -10 -40 -34q-5 -11 -6 -23v-7v-29q1 -18 1 -55v-22q1 -20 0 -55v-22v-31v-8q0 -1 -1 -4v-8q0 -3 -2 -10v-3q-3 -14 -9 -26q-11 -25 -33 -44q-2 -2 -5 -4l5 -5q22 -19 33 -43q6 -13 9 -26v-4q2 -6 2 -10v-6q1 -5 1 -6v-12v-27v-23
q1 -34 0 -54v-23q0 -38 -1 -54v-29v-7q1 -12 6 -22q13 -25 41 -34l14 -4z" />
    <glyph glyph-name="braceright" unicode="}" horiz-adv-x="324" 
d="M250 380q8 -1 15 -5t11 -11t4 -14q0 -12 -8.5 -21t-21.5 -10l-16 -1h-4q-15 -2 -28 -8q-13 -5 -22 -15t-14 -21q-2 -6 -3 -12v-2l-1 -22q1 -21 1 -27v-23v-54v-19q-1 -39 -1 -58l-2 -42q-3 -27 -17 -50q-29 -48 -88 -62q-5 -1 -11 -3h-3q-2 0 -11 -1h-2q-4 -1 -11 -1h-3
l-34 2q-12 1 -20.5 9.5t-8.5 20t8.5 19.5t20.5 9l27 2h6l15 3l7 2q28 9 40 33q6 11 7 24v7l-1 28q0 15 -1 56v21v56v21q0 7 1 29v10v4l1 8q0 3 1 10l1 3q3 14 8 27q12 24 33 43q3 3 6 5l-6 4q-21 19 -33 44q-6 12 -8 25l-1 5q-1 6 -1 9l-1 6v7v12q-1 15 -1 26v21v56v23
q1 38 1 54l1 29v7q-1 12 -7 23q-12 24 -40 34l-15 3l-7 1h-7l-26 2q-12 1 -20.5 9.5t-8.5 19.5t8.5 19.5t20.5 9.5l34 2h3h11q7 -1 13 -2q9 -1 14 -2q59 -15 88 -63q14 -23 17 -50l1 -13l1 -29q0 -19 1 -58v-19v-56v-21q0 -10 -1 -31v-8l1 -9v-4q1 -5 3 -11q5 -11 14 -20
q9 -10 22 -16t27 -8h5z" />
    <glyph glyph-name="asciitilde" unicode="~" horiz-adv-x="644" 
d="M597 402q11 -7 13 -20q1 -12 -7 -21q-22 -25 -46 -41.5t-44.5 -24.5t-45 -8.5t-41.5 1.5t-41 10.5t-36.5 14t-35.5 16.5q-67 32 -95 32q-62 0 -108 -73q-9 -13 -26 -13q-6 0 -11 2l-22 8q-13 5 -17 18q-4 12 3 22q10 17 24 33t36.5 36t54 32t66.5 12q22 0 48 -7
t41.5 -13.5t43.5 -20.5q29 -14 43 -20t36 -11.5t37 -2t34 14t37 31.5q8 8 19.5 9.5t20.5 -4.5z" />
    <glyph glyph-name="nonbreakingspace" unicode="&#xa0;" horiz-adv-x="474" 
 />
    <glyph glyph-name="cent" unicode="&#xa2;" horiz-adv-x="601" 
d="M534 139q11 -8 12.5 -20.5t-7.5 -21.5q-69 -72 -173 -84q-9 -1 -9 -8v-72q0 -11 -9 -19q-8 -9 -21 -9h-24q-12 0 -21 8.5t-9 19.5v77q0 7 -7 9q-93 20 -152 88t-59 155t59 155t152 88q7 2 7 9v54q0 11 9 19.5t21 8.5h24q12 0 21 -8.5t9 -19.5v-49q0 -7 9 -8
q99 -12 167 -78q9 -9 8 -21.5t-12 -19.5l-18 -13q-9 -7 -20.5 -6t-18.5 8q-43 40 -103 51q-5 1 -9 -2q-3 -3 -3 -6v-324q0 -3 3 -6q4 -3 9 -2q64 11 107 55q8 8 19 9t21 -5zM273 415q0 4 -3 6q-3 3 -7 3q-2 0 -5 -1q-21 -8 -40 -20.5t-33.5 -28t-25 -33.5t-16 -38t-5.5 -41
q0 -53 33 -97t87 -64q7 -2 12 1q3 3 3 7v306z" />
    <glyph glyph-name="sterling" unicode="&#xa3;" horiz-adv-x="752" 
d="M697 172q9 -77 -32 -123q-38 -41 -108 -41q-26 0 -53 9.5t-49.5 24.5t-51.5 40q-3 3 -6 0q-78 -74 -174 -74q-74 0 -122 45t-50 103q-1 31 12 58t45 47t77 24q92 6 197 -79q2 -2 4 -1t3 2q35 70 19 119q-5 13 -15 25q-1 2 -4 2h-230q-10 0 -17 6.5t-7 15.5v32q0 5 2 9
t5 7t7.5 5t9.5 2h118q-47 28 -74.5 62t-27.5 85q0 63 55 112t143 49q85 0 141 -52q55 -51 60 -125q0 -9 -7 -16q-7 -8 -18 -8l-36 1q-6 0 -11 3t-8 7.5t-4 10.5q-4 43 -35 72q-32 30 -82 30q-26 0 -48 -7.5t-36.5 -19.5t-22.5 -27t-8 -30q0 -31 21 -51t74 -50q49 -27 72 -45
q2 -1 3 -1h198q7 0 12.5 -3t8.5 -8.5t3 -11.5v-32q0 -9 -7 -15.5t-17 -6.5h-135q-3 0 -4 -2q14 -44 4.5 -97.5t-41.5 -104.5q-1 -2 1 -3q71 -61 106 -61q31 0 44 14q18 19 14 62q-1 9 4.5 16t14.5 8l35 7q10 1 19 -5q8 -6 9 -15zM343 147l-6 -7q-81 68 -138 68h-8
q-34 -3 -46 -17.5t-11 -31.5q1 -29 25.5 -51.5t62.5 -22.5q62 0 116 51z" />
    <glyph glyph-name="yen" unicode="&#xa5;" horiz-adv-x="646" 
d="M599 702l-195 -316q-3 -3 -1 -7q3 -5 10 -5h103q13 0 21.5 -8.5t8.5 -19.5v-21q0 -12 -8.5 -20t-21.5 -8h-141q-10 0 -10 -9v-52q0 -9 10 -9h141q9 0 15.5 -3.5t10.5 -10t4 -14.5v-21q0 -11 -8.5 -19.5t-21.5 -8.5h-141q-10 0 -10 -8v-106q0 -11 -9 -19.5t-21 -8.5h-24
q-12 0 -21 8.5t-9 19.5v106q0 8 -10 8h-141q-13 0 -21.5 8.5t-8.5 19.5v21q0 12 8.5 20t21.5 8h141q10 0 10 9v52q0 9 -10 9h-141q-13 0 -21.5 8t-8.5 20v21q0 11 8.5 19.5t21.5 8.5h103q7 0 10 5q2 4 0 7l-196 316q-8 13 -1 27q9 15 27 15h27q17 0 25 -14l189 -304
q3 -5 9 -5t9 5l188 304q9 14 26 14h27q18 0 27 -15q7 -14 -1 -27z" />
    <glyph glyph-name="dieresis" unicode="&#xa8;" horiz-adv-x="385" 
d="M127 766q11 0 19 -7.5t8 -18.5v-70q0 -10 -8 -18t-19 -8h-77q-8 0 -14.5 3.5t-10 9.5t-3.5 13v70q0 11 8 18.5t20 7.5h77zM335 766q12 0 20 -7.5t8 -18.5v-70q0 -10 -8 -18t-20 -8h-77q-11 0 -19 8t-8 18v70q0 11 8 18.5t19 7.5h77z" />
    <glyph glyph-name="copyright" unicode="&#xa9;" horiz-adv-x="943" 
d="M385 478q-36 -39 -36 -93t36 -92.5t86 -38.5q42 0 74 27q9 7 20 7.5t19 -6.5l18 -14q11 -8 11 -20.5t-10 -21.5q-56 -49 -132 -49q-85 0 -145 61t-60 147t60 147t145 61q77 0 135 -51q10 -9 9 -22q0 -12 -11 -20l-18 -14q-9 -6 -20 -6t-19 7q-33 29 -76 29q-50 0 -86 -38
zM471.5 764q111.5 0 206 -51t149.5 -138t55 -190t-55 -190t-149.5 -138t-206 -51t-206.5 51t-150 138t-55 190t55 190t150 138t206.5 51zM799 385q0 61 -26 117t-70 96.5t-104.5 64.5t-127.5 24q-89 0 -164.5 -40.5t-119.5 -110t-44 -151.5t44 -151.5t119.5 -110
t164.5 -40.5t164.5 40.5t119.5 110t44 151.5z" />
    <glyph glyph-name="guillemotleft" unicode="&#xab;" horiz-adv-x="608" 
d="M158 256l120 -105q9 -8 9 -20.5t-9 -20.5l-17 -16q-9 -8 -21 -8t-21 7l-170 149q-9 9 -9 21.5t10 20.5l169 142q9 8 21.5 7.5t20.5 -8.5l17 -17q9 -9 8.5 -21t-9.5 -20l-119 -99q-3 -2 -3 -5.5t3 -6.5zM551 151q9 -8 9.5 -20t-8.5 -21l-18 -16q-9 -8 -21 -8t-21 7
l-169 149q-10 9 -10 21.5t10 20.5l170 142q9 8 21 7.5t21 -8.5l17 -17q8 -8 8 -20t-10 -21l-118 -99q-3 -2 -3.5 -5.5t2.5 -6.5z" />
    <glyph glyph-name="softhyphen" unicode="&#xad;" horiz-adv-x="0" 
 />
    <glyph glyph-name="registered" unicode="&#xae;" horiz-adv-x="943" 
d="M558 323l46 -66q6 -10 4 -21q-3 -12 -14 -18l-20 -11q-7 -4 -15 -4q-17 0 -25 12l-53 76q-3 5 -10 4q-8 -1 -16 -1h-25q-11 0 -11 -8v-47q0 -12 -8.5 -20t-20.5 -8h-24q-12 0 -21 8t-9 20v305q0 12 9 20t21 8h85q70 0 117 -48q39 -39 39 -92q0 -59 -48 -100q-4 -4 -1 -9z
M524 430q1 24 -16 43q-21 22 -53 22h-25q-11 0 -11 -9v-106q0 -9 11 -9h22q19 0 35 8t26 21.5t11 29.5zM471.5 764q111.5 0 206 -51t149.5 -138t55 -190t-55 -190t-149.5 -138t-206 -51t-206.5 51t-150 138t-55 190t55 190t150 138t206.5 51zM799 385q0 61 -26 117t-70 96.5
t-104.5 64.5t-127.5 24q-89 0 -164.5 -40.5t-119.5 -110t-44 -151.5t44 -151.5t119.5 -110t164.5 -40.5t164.5 40.5t119.5 110t44 151.5z" />
    <glyph glyph-name="degree" unicode="&#xb0;" horiz-adv-x="407" 
d="M203.5 775q67.5 0 115 -43.5t47.5 -104.5t-47.5 -104.5t-115 -43.5t-115 43.5t-47.5 104.5t47.5 104.5t115 43.5zM280 627q0 14 -6 26.5t-16 22t-24.5 15t-30 5.5t-30 -5.5t-24.5 -15t-16.5 -22t-6.5 -26.5q0 -29 23 -49t54.5 -20t54 20t22.5 49z" />
    <glyph glyph-name="acute" unicode="&#xb4;" horiz-adv-x="183" 
d="M206 793q7 -12 -1 -23l-86 -138q-8 -12 -22 -12h-46q-15 0 -22 12q-7 10 -2 21l58 138q7 15 24 15h74q16 0 23 -13z" />
    <glyph glyph-name="cedilla" unicode="&#xb8;" horiz-adv-x="130" 
d="M148 -30q30 -24 29 -64q0 -43 -35 -71q-44 -34 -138 -34q-19 0 -38 1q-14 2 -22 12q-8 9 -6 21l3 15q2 11 11 18t21 6q90 -7 120 16q7 6 7 16q0 8 -4 11q-13 11 -47 9q-21 -2 -35 13q-13 16 -7 36l26 57q5 10 16 10h45q9 0 14 -8q5 -7 1 -15l-12 -25q31 -7 51 -24z" />
    <glyph glyph-name="guillemotright" unicode="&#xbb;" horiz-adv-x="608" 
d="M558 284q9 -8 9.5 -20.5t-9.5 -21.5l-169 -149q-9 -7 -21 -7t-21 8l-18 16q-9 9 -9 21t10 20l119 105q3 3 3 6.5t-3 5.5l-118 100q-10 8 -10.5 20t8.5 20l17 17q9 8 21 8.5t21 -7.5zM115 426l169 -142q10 -8 10 -20.5t-9 -21.5l-170 -149q-8 -7 -20 -7q-13 0 -22 8
l-17 16q-9 9 -9 21t10 20l119 105q3 3 3 6.5t-3 5.5l-118 99q-10 9 -10.5 21t8.5 20l17 17q8 8 20.5 8.5t21.5 -7.5z" />
    <glyph glyph-name="Agrave" unicode="&#xc0;" horiz-adv-x="726" 
d="M339 788l-7 10l-106 170h106l6 -13l70 -167h-69zM428 722l281 -714h-139l-7 18l-53 135h-363l-9 -20l-53 -133h-69l15 38l281 694h109zM486 224l-5 12l-151 385l-158 -397h314z" />
    <glyph glyph-name="Aacute" unicode="&#xc1;" horiz-adv-x="726" 
d="M476 936l-95 -148h-69l12 29l65 151h105zM428 722l281 -714h-139l-7 18l-53 135h-363l-9 -20l-53 -133h-69l15 38l281 694h109zM486 224l-5 12l-151 385l-158 -397h314z" />
    <glyph glyph-name="Acircumflex" unicode="&#xc2;" horiz-adv-x="726" 
d="M208 765l-46 40l-2 6l3 3l192 178q7 6 14 -1l188 -183l-51 -43q-7 -6 -14 1l-132 121l-138 -122q-3 -3 -7 -3t-7 3zM428 722l281 -714h-139l-7 18l-53 135h-363l-9 -20l-53 -133h-69l15 38l281 694h109zM486 224l-5 12l-151 385l-158 -397h314z" />
    <glyph glyph-name="Atilde" unicode="&#xc3;" horiz-adv-x="726" 
d="M142 812l-3 -5l-69 32l4 6q10 16 23.5 32t36 35.5t53.5 31.5t65 12q22 0 47.5 -6.5t41 -13.5t43.5 -20q30 -14 44 -20t36.5 -12t37.5 -2.5t34.5 14.5t38.5 32l4 5l61 -43l-5 -6q-22 -24 -45.5 -40t-43.5 -24t-44.5 -8.5t-41 1.5t-40.5 10t-36.5 13.5t-34.5 16.5
q-68 33 -97 33q-63 0 -110 -74zM428 722l281 -714h-139l-7 18l-53 135h-363l-9 -20l-53 -133h-69l15 38l281 694h109zM486 224l-5 12l-151 385l-158 -397h314z" />
    <glyph glyph-name="Adieresis" unicode="&#xc4;" horiz-adv-x="726" 
d="M524 833h-97v90h97v-90zM316 833h-98v90h98v-90zM428 722l281 -714h-139l-7 18l-53 135h-363l-9 -20l-53 -133h-69l15 38l281 694h109zM486 224l-5 12l-151 385l-158 -397h314z" />
    <glyph glyph-name="Aring" unicode="&#xc5;" horiz-adv-x="726" 
d="M361.5 756q-55.5 0 -95 36t-39.5 86q0 33 18 61t49 44.5t67 16.5q56 0 95 -36t39 -86t-39 -86t-94.5 -36zM295 878q0 -24 19.5 -41.5t46.5 -17.5q18 0 33 8t24 21.5t9 29.5q0 24 -19.5 41.5t-46.5 17.5q-18 0 -33 -8t-24 -21.5t-9 -29.5zM428 722l281 -714h-139l-7 18
l-53 135h-363l-9 -20l-53 -133h-69l15 38l281 694h109zM486 224l-5 12l-151 385l-158 -397h314z" />
    <glyph glyph-name="AE" unicode="&#xc6;" horiz-adv-x="947" 
d="M518 395v-321h395l-49 -66h-472v132h-237l-67 -132h-77l350 688l17 37v7l10 1h51h486l-62 -64h-345v-219h391l-51 -63h-340zM392 603l-193 -371h193v371z" />
    <glyph glyph-name="Ccedilla" unicode="&#xc7;" horiz-adv-x="681" 
d="M574 127l7 4l52 -60l-9 -6q-90 -59 -197 -59q-8 0 -20 1l-6 -13q31 -7 51 -23q29 -25 29 -64q0 -44 -35 -71q-44 -35 -138 -35q-21 0 -41 60l-4 14l14 -1q90 -7 120 17q7 6 7 16q0 7 -4 10q-10 8 -80 9h-9v50l20 44q-123 34 -205 135.5t-82 221.5q0 97 53 183t141.5 137
t188.5 51q124 0 222 -77l8 -7l-57 -56l-6 5q-75 58 -167 58q-73 0 -131 -37.5t-90.5 -105t-32.5 -151.5q0 -128 72 -211t182 -83q80 0 147 44z" />
    <glyph glyph-name="Egrave" unicode="&#xc8;" horiz-adv-x="634" 
d="M337 794l-7 11l-106 169h106l5 -13l71 -167h-69zM205 395v-321h395l-49 -66h-472v733h35h498l-62 -64h-345v-219h391l-51 -63h-340z" />
    <glyph glyph-name="Eacute" unicode="&#xc9;" horiz-adv-x="634" 
d="M277 799l-2 2q-10 10 -5 22l59 138q5 13 21 13h74q13 0 20 -11q5 -10 -1 -20l-87 -138q-2 -4 -7 -7l-2 -1h-1q-28 1 -66 2h-3zM205 395v-321h395l-49 -66h-472v733h35h499l-63 -64h-345v-219h391l-51 -63h-340z" />
    <glyph glyph-name="Ecircumflex" unicode="&#xca;" horiz-adv-x="634" 
d="M165 814q-6 4 -6 8t6 9l2 2l165 153q8 8 19.5 8t19.5 -8l157 -153q7 -7 7 -17v-7l-7 1h-82l-3 -1l-82 81q-5 4 -11 4t-10 -4l-100 -80h-2q-10 -1 -27 -1q-7 0 -39 1h-2zM205 395v-321h395l-49 -66h-472v733h35h499l-63 -64h-345v-219h391l-51 -63h-340z" />
    <glyph glyph-name="Edieresis" unicode="&#xcb;" horiz-adv-x="634" 
d="M490 840h-97v89h97v-89zM281 840h-97v89h97v-89zM205 395v-321h395l-49 -66h-472v733h35h499l-63 -64h-345v-219h391l-51 -63h-340z" />
    <glyph glyph-name="Igrave" unicode="&#xcc;" horiz-adv-x="286" 
d="M120 791l-7 10l-106 169h106l5 -13l71 -166h-69zM79 742h128v-732h-128v732z" />
    <glyph glyph-name="Iacute" unicode="&#xcd;" horiz-adv-x="286" 
d="M185 970h106l-19 -31l-95 -148h-68l11 28zM79 10v732h128v-732h-128z" />
    <glyph glyph-name="Icircumflex" unicode="&#xce;" horiz-adv-x="286" 
d="M152 994l188 -183l-51 -43q-7 -6 -14 0l-133 121l-137 -121q-3 -3 -7 -3t-7 2l-46 41l-2 5l3 3l191 178q8 7 15 0zM78 10l1 732h127v-732h-128z" />
    <glyph glyph-name="Idieresis" unicode="&#xcf;" horiz-adv-x="287" 
d="M90 836h-97v89h97v-89zM299 836h-97v89h97v-89zM79 10v732h128v-732h-128z" />
    <glyph glyph-name="Eth" unicode="&#xd0;" horiz-adv-x="820" 
d="M369 742q187 0 295 -98.5t108 -268.5q0 -171 -128 -279q-104 -88 -275 -88h-229v265h-111v93h111v376h229zM269 265v-188h100q41 0 77 7t73.5 27.5t64 52.5t43 86t16.5 125q0 60 -11 108t-32 79.5t-46.5 54t-57.5 34.5t-62.5 17t-64.5 5h-100v-309h62v-99h-62z" />
    <glyph glyph-name="Ntilde" unicode="&#xd1;" horiz-adv-x="792" 
d="M183 807l-3 -5l-69 32l4 6q4 6 8.5 12.5t11 15t14 16.5t17 16.5t19.5 15.5t22.5 13.5t25.5 11.5t28.5 7.5t31.5 2.5q22 0 47.5 -6.5t41 -13.5t43.5 -20q29 -14 43.5 -20t37 -12t37.5 -2.5t34.5 14.5t38.5 32l4 5l61 -43l-5 -6q-22 -24 -45.5 -40t-43.5 -24t-44.5 -8.5
t-41 1.5t-40.5 10t-36.5 13.5t-34.5 16.5q-68 33 -97 33q-26 0 -51 -15t-37 -29.5t-22 -29.5zM649 741h63v-733h-79l-490 527l-1 -527h-63v733h60l510 -546v546z" />
    <glyph glyph-name="Ograve" unicode="&#xd2;" 
d="M385 788l-8 10l-105 170h105l6 -13l71 -167h-69zM419 744q99 0 185.5 -51.5t137.5 -138.5t51 -188t-51 -188.5t-137.5 -139t-185.5 -51.5q-75 0 -143.5 30.5t-119 81.5t-80.5 121t-30 146q0 100 50.5 187.5t136.5 139t186 51.5zM474 56q88 14 142 91q37 53 50 123.5
t-1 146.5q-21 117 -93.5 189.5t-168.5 72.5q-20 0 -40 -4q-87 -14 -140 -89q-36 -50 -48 -119.5t1 -145.5q24 -133 108 -208t190 -57z" />
    <glyph glyph-name="Oacute" unicode="&#xd3;" 
d="M520 936l-94 -148h-69l12 29l65 151h105zM419 744q74 0 143.5 -30.5t120 -81.5t80.5 -121t30 -145q0 -101 -51 -188.5t-137.5 -139t-185.5 -51.5q-100 0 -186 51.5t-136.5 139t-50.5 188.5q0 75 30 145t80.5 121t119 81.5t143.5 30.5zM474 56q87 14 142 91
q37 53 50 123.5t-1 146.5q-21 117 -93.5 189.5t-168.5 72.5q-20 0 -39 -4q-88 -14 -141 -89q-36 -50 -48 -119.5t1 -145.5q24 -133 108 -208t190 -57z" />
    <glyph glyph-name="Ocircumflex" unicode="&#xd4;" 
d="M251 765l-46 40l-2 6l3 2l192 179q7 6 14 -1l188 -183l-51 -43q-7 -6 -14 1l-132 121l-138 -122q-3 -3 -7 -3t-7 3zM419 744q99 0 185.5 -51.5t137.5 -138.5t51 -188t-51 -188.5t-137.5 -139t-185.5 -51.5q-100 0 -186 51.5t-136.5 139t-50.5 188t50.5 188t136.5 139
t186 51.5zM363 675q-87 -14 -140 -89q-36 -50 -48 -119.5t1 -145.5q24 -133 108 -208t190 -57q88 14 142 91q37 53 50 123.5t-1 146.5q-21 117 -93.5 189.5t-168.5 72.5q-20 0 -40 -4z" />
    <glyph glyph-name="Otilde" unicode="&#xd5;" 
d="M220 812l-3 -5l-68 32l3 6q11 16 24 32t35.5 35.5t53.5 31.5t66 12q22 0 47 -6.5t41 -13.5t44 -20q29 -14 43 -20t36.5 -12t37.5 -2.5t34.5 14.5t38.5 32l4 5l61 -43l-5 -6q-19 -21 -39 -36.5t-40 -23t-37.5 -11.5t-38 -2t-35 4.5t-35 10.5t-31 13t-30.5 14
q-68 33 -96 33q-27 0 -51.5 -15t-37 -29.5t-22.5 -29.5zM419 744q99 0 185.5 -51.5t137.5 -138.5t51 -188t-51 -188.5t-137.5 -139t-185.5 -51.5q-75 0 -143.5 30.5t-119 81.5t-80.5 121t-30 146q0 100 50.5 187.5t136.5 139t186 51.5zM474 56q88 14 142 91q37 53 50 123.5
t-1 146.5q-21 117 -93.5 189.5t-168.5 72.5q-20 0 -40 -4q-87 -14 -140 -89q-36 -50 -48 -119.5t1 -145.5q24 -133 108 -208t190 -57z" />
    <glyph glyph-name="Odieresis" unicode="&#xd6;" 
d="M381 833h-97v90h97v-90zM590 833h-98v90h98v-90zM419 744q99 0 185.5 -51.5t137.5 -138.5t51 -188t-51 -188.5t-137.5 -139t-185.5 -51.5q-100 0 -186 51.5t-136.5 139t-50.5 188.5q0 75 30 145t80.5 121t119 81.5t143.5 30.5zM474 56q88 14 142 91q37 53 50 123.5
t-1 146.5q-21 117 -93.5 189.5t-168.5 72.5q-20 0 -39 -4q-88 -14 -141 -89q-36 -50 -48 -119.5t1 -145.5q24 -133 108 -208t190 -57z" />
    <glyph glyph-name="multiply" unicode="&#xd7;" horiz-adv-x="537" 
d="M333 302l146 -134q9 -8 9 -20t-9 -20l-17 -15q-9 -8 -21 -8t-20 8l-145 133q-8 8 -16 0l-144 -133q-9 -8 -21 -8t-21 8l-17 15q-9 8 -9 20t9 20l146 134q3 3 3 6t-3 6l-146 134q-9 8 -9 20t9 20l17 15q9 8 21 7.5t20 -8.5l145 -133q8 -7 16 0l145 133q8 8 20 8.5t21 -7.5
l17 -15q9 -8 9 -20t-9 -20l-146 -135q-2 -2 -2 -5t2 -6z" />
    <glyph glyph-name="Oslash" unicode="&#xd8;" 
d="M649 660q69 -55 106.5 -132t37.5 -162q0 -101 -51 -188.5t-137.5 -139t-185.5 -51.5q-50 0 -99 14l-8 -16h-94l24 49q-91 52 -143.5 140.5t-52.5 191.5q0 100 50.5 187.5t136.5 139t186 51.5q81 0 157 -37l8 16h96zM540 634q-80 58 -177 41q-87 -14 -140 -89
q-36 -50 -48 -119.5t1 -145.5q23 -131 106 -207zM616 147q37 53 50 123.5t-1 146.5q-15 87 -61 152l-250 -501q57 -23 120 -12q88 14 142 91z" />
    <glyph glyph-name="Ugrave" unicode="&#xd9;" horiz-adv-x="767" 
d="M380 788l-7 10l-106 170h106l6 -13l70 -167h-69zM699 742l1 -439q0 -124 -90 -212t-217 -88q-64 0 -124.5 24.5t-105 65.5t-71.5 96t-27 114l-1 389q0 6 1 41v9h126l1 -439q0 -97 57 -160t144 -63q110 0 178 61.5t68 161.5l-2 439h62z" />
    <glyph glyph-name="Uacute" unicode="&#xda;" horiz-adv-x="767" 
d="M477 936l-94 -148h-69l12 29l64 151h106zM699 742l1 -439q0 -124 -90 -212t-217 -88q-64 0 -124.5 24.5t-105 65.5t-71.5 96t-27 114l-1 389q0 6 1 41v9h126l1 -439q0 -97 57 -160t144 -63q110 0 178 61.5t68 161.5l-2 439h62z" />
    <glyph glyph-name="Ucircumflex" unicode="&#xdb;" horiz-adv-x="767" 
d="M263 765l-46 40l-2 6l3 2l192 179q7 6 14 -1l188 -183l-51 -43q-7 -6 -14 1l-132 121l-138 -122q-3 -3 -7 -3t-7 3zM699 742l1 -439q0 -124 -90 -212t-217 -88q-64 0 -124.5 24.5t-105 65.5t-71.5 96t-27 114l-1 389q0 6 1 41v9h126l1 -439q0 -97 57 -160t144 -63
q110 0 177.5 61.5t67.5 161.5l-1 439h62z" />
    <glyph glyph-name="Udieresis" unicode="&#xdc;" horiz-adv-x="767" 
d="M538 833h-98v90h98v-90zM329 833h-98v90h98v-90zM699 742l1 -439q0 -124 -90 -212t-217 -88q-64 0 -124.5 24.5t-105 65.5t-71.5 96t-27 114l-1 389q0 6 1 41v9h126l1 -439q0 -97 57 -160t144 -63q110 0 177.5 61.5t67.5 161.5l-1 439h62z" />
    <glyph glyph-name="Yacute" unicode="&#xdd;" horiz-adv-x="606" 
d="M459 941l-94 -148h-69l12 28l64 151h106zM535 744h91l-242 -388q-2 -2 -2 -4v-343h-128l2 290q0 2 -1 4l-274 441h153l199 -325z" />
    <glyph glyph-name="Thorn" unicode="&#xde;" horiz-adv-x="680" 
d="M318 745q85 0 160 -38.5t120 -102.5t45 -136v-9q0 -73 -45 -137t-120 -102t-160 -38h-111v-174h-128v911h128v-174h111zM517 467q0 88 -55.5 143.5t-143.5 55.5h-111v-405h111q88 0 143.5 55.5t55.5 143.5v7z" />
    <glyph glyph-name="divide" unicode="&#xf7;" horiz-adv-x="559" 
d="M531 230h-504v77h504v-77zM279 396q-25 0 -42 16t-17 38.5t17 38.5t42 16t42 -16t17 -38.5t-17 -38.5t-42 -16zM279 31q-25 0 -42 16t-17 38.5t17 38.5t42 16t42 -16t17 -38.5t-17 -38.5t-42 -16z" />
    <glyph glyph-name="Ydieresis" unicode="&#x178;" horiz-adv-x="606" 
d="M473 838h-98v89h98v-89zM264 838h-97v89h97v-89zM535 744h91l-242 -388q-2 -2 -2 -4v-343h-128l2 290q0 2 -1 4l-274 441h153l199 -325z" />
    <glyph glyph-name="dotaccent" unicode="&#x2d9;" horiz-adv-x="197" 
d="M167 606h-138v127h138v-127z" />
    <glyph glyph-name="quoteleft" unicode="&#x2018;" horiz-adv-x="241" 
d="M199 600q5 -11 0 -21l-82 -195q-8 -17 -28 -17q-6 0 -11 2l-21 7q-12 5 -17 16q-4 11 1 22l90 191q5 11 16 15t23 0l12 -5q12 -4 17 -15z" />
    <glyph glyph-name="quoteright" unicode="&#x2019;" horiz-adv-x="241" 
d="M199 600q5 -11 0 -21l-82 -195q-8 -17 -28 -17q-6 0 -11 2l-21 7q-12 5 -17 16q-4 11 1 22l90 191q3 5 7 9t9 6t11 2t12 -2l12 -5q12 -4 17 -15z" />
    <glyph glyph-name="quotesinglbase" unicode="&#x201a;" horiz-adv-x="167" 
d="M138 65q4 -11 0 -21l-82 -185q-7 -18 -28 -18q-5 0 -10 2l-24 8q-12 5 -17 16q-4 11 0 22l81 184q5 11 16.5 15.5t22.5 0.5l23 -8q13 -5 18 -16z" />
    <glyph glyph-name="quoteleftreversed" unicode="&#x201b;" horiz-adv-x="268" 
d="M202 465q11 -6 15 -16.5t-1 -20.5l-15 -28q-8 -17 -27 -17q-7 0 -14 4q-60 29 -81 63q-26 41 -30 84l-1 14v27v80q0 12 9 20t22 8h102q13 0 22 -8t9 -20v-93q0 -12 -9 -20t-22 -8h-24q-6 0 -9 -4q-2 -4 -1 -7q3 -13 14 -30q6 -10 41 -28z" />
    <glyph glyph-name="quotedblleft" unicode="&#x201c;" horiz-adv-x="408" 
d="M182 615q12 -4 17 -15t0 -21l-82 -195q-8 -17 -28 -17q-6 0 -11 2l-21 7q-12 5 -17 16q-4 11 1 22l90 191q4 7 10 11.5t13.5 5.5t15.5 -2zM366 600q4 -11 0 -21l-83 -195q-7 -17 -27 -17q-6 0 -11 2l-21 7q-13 5 -17 16q-5 11 0 22l91 191q5 11 16 15t22 0l13 -5
q12 -4 17 -15z" />
    <glyph glyph-name="quotedblright" unicode="&#x201d;" horiz-adv-x="417" 
d="M377 598q4 -11 -1 -22l-91 -191q-7 -17 -27 -17q-5 0 -11 2l-13 5q-11 4 -16 15t0 21l82 195q5 11 16 15.5t23 -0.5l21 -7q12 -5 17 -16zM183 614q13 -5 17 -16q5 -11 0 -22l-91 -191q-8 -17 -27 -17q-6 0 -11 2l-13 5q-12 4 -17 15q-4 11 0 21l83 195q4 10 15.5 15
t22.5 0z" />
    <glyph glyph-name="quotedblbase" unicode="&#x201e;" horiz-adv-x="364" 
d="M127 93q13 -4 18 -15q4 -11 0 -22l-82 -185q-7 -17 -28 -17q-5 0 -10 2l-24 8q-12 5 -17 16q-4 11 0 21l81 185q5 11 16.5 15.5t22.5 0.5zM333 78q4 -11 0 -22l-82 -184q-7 -18 -28 -18q-5 0 -10 2l-24 8q-12 5 -17 16q-4 11 0 21l81 185q5 11 16.5 15.5t22.5 0.5l24 -9
q12 -4 17 -15z" />
    <glyph glyph-name="bullet" unicode="&#x2022;" horiz-adv-x="281" 
d="M140.5 384q42.5 0 72.5 -27.5t30 -65.5q0 -39 -31 -67q-29 -27 -72 -27q-42 0 -72 27.5t-30 66t30 66t72.5 27.5z" />
    <glyph glyph-name="ellipsis" unicode="&#x2026;" horiz-adv-x="774" 
d="M126 143q25 0 46 -11.5t33.5 -31t12.5 -42t-12.5 -42t-33.5 -31t-46 -11.5t-46 11.5t-33.5 31t-12.5 42.5q0 17 7.5 32.5t19.5 26.5t29 18t36 7zM387 143q39 0 65.5 -25t26.5 -59.5t-26.5 -59.5t-65 -25t-65 25t-26.5 60q0 17 7 32.5t19.5 26.5t29.5 18t35 7zM648 143
q38 0 65 -25t27 -59.5t-27 -59.5t-65 -25t-65 25t-27 60q0 22 12 41.5t33.5 31t46.5 11.5z" />
    <glyph glyph-name="guilsinglleft" unicode="&#x2039;" horiz-adv-x="335" 
d="M278 151q9 -8 9 -20.5t-9 -20.5l-17 -16q-9 -8 -21 -8t-21 7l-170 149q-9 9 -9 21.5t10 20.5l169 142q9 8 21.5 7.5t20.5 -8.5l17 -17q9 -9 8.5 -21t-9.5 -20l-119 -99q-3 -2 -3 -5.5t3 -6.5z" />
    <glyph glyph-name="guilsinglright" unicode="&#x203a;" horiz-adv-x="335" 
d="M284 284q10 -8 10 -20.5t-9 -21.5l-170 -149q-8 -7 -20 -7q-13 0 -22 8l-17 16q-9 9 -9 21t10 20l119 105q3 3 3 6.5t-3 5.5l-118 99q-10 8 -10.5 20.5t8.5 20.5l17 17q8 8 20.5 8.5t21.5 -7.5z" />
    <glyph glyph-name="Euro" unicode="&#x20ac;" horiz-adv-x="743" 
d="M685 627q8 -10 5 -22q-2 -13 -14 -19l-20 -10q-10 -5 -21.5 -3t-17.5 11q-54 70 -154 71q-72 0 -120.5 -37.5t-70.5 -109.5q-1 -4 2 -7q3 -4 9 -4h137q12 0 21 -8.5t9 -19.5v-21q0 -12 -9 -20t-21 -8h-153q-10 0 -11 -8q-1 -19 -1 -37q0 -8 0.5 -16.5t10.5 -8.5h154
q12 0 21 -8t9 -20v-21q0 -11 -9 -19.5t-21 -8.5h-140q-6 0 -9 -4q-2 -3 -1 -7q22 -78 73.5 -122t119.5 -44q87 0 144 68q7 8 18.5 10t21.5 -4l19 -11q12 -7 14 -19t-6 -22q-82 -99 -210 -99t-210 98q-51 61 -71 149q-1 7 -10 7h-91q-12 0 -21 8.5t-9 19.5v21q0 12 9 20t21 8
h80q5 0 8 4q2 2 2 5v16q0 18 1 36q0 3 -2 6q-3 3 -9 3h-80q-12 0 -21 8t-9 20v21q0 11 9 19.5t21 8.5h93q9 0 11 7q20 84 69 140q77 87 208 88q70 -1 127 -28t95 -77z" />
    <glyph glyph-name="e.alt1" unicode="&#xf000;" horiz-adv-x="817" 
d="M409.5 749q160.5 0 259.5 -103.5t99 -271.5q0 -17 -1 -37l-1 -9h-586q11 -116 73.5 -184.5t156.5 -68.5q79 0 147.5 41.5t96.5 107.5l3 8l83 -28l-5 -10q-42 -93 -127 -144t-198 -51q-161 0 -260 103.5t-99 271.5t99 271.5t259.5 103.5zM641 393q-7 132 -68 206t-163 74
q-104 0 -164.5 -73t-67.5 -207h463z" />
    <glyph glyph-name="a.alt1" unicode="&#xf001;" horiz-adv-x="764" 
d="M627 623q80 -93 67 -417q-2 -56 -5 -192v-9l-123 -2v9q0 20 -1 36q-39 -33 -83.5 -45t-113.5 -13h-6h-8q-71 1 -136.5 25.5t-103.5 63.5q-75 77 -64 175q11 99 103.5 165.5t218.5 66.5q65 0 111 -16t86 -52q-8 247 -210 250q-38 1 -72 -10t-59 -30t-41.5 -36.5
t-30.5 -36.5l-5 -7l-87 49l8 9q113 134 287 134q168 0 268 -117zM573 238.5q0 75.5 -59 129t-142 53.5q-54 0 -100 -24t-73 -66.5t-27 -91.5q0 -76 58.5 -129.5t141.5 -53.5t142 53.5t59 129z" />
    <glyph glyph-name="A.alt1" unicode="&#xf002;" horiz-adv-x="712" 
d="M382 743q68 0 131 -35.5t101.5 -94.5t38.5 -122v-305h-127v146l-340 -1v-145h-127v305q0 63 38.5 122t101.5 94.5t131 35.5h52zM526 395v101q0 73 -50.5 128t-117.5 55h-4q-67 0 -117.5 -55t-50.5 -128v-101h340zM653 8h-594v64h594v-64z" />
    <glyph glyph-name="U.alt1" unicode="&#xf003;" horiz-adv-x="702" 
d="M645 8h-589v64h589v-64zM519 743h126v-320q0 -94 -81 -165.5t-189 -71.5h-48q-108 0 -189.5 71.5t-81.5 165.5v320h127v-325q0 -70 49 -119t118.5 -49t119 49t49.5 119v325z" />
    <glyph glyph-name="E.alt1" unicode="&#xf004;" horiz-adv-x="651" 
d="M610 249l-46 -63h-498v549h544l-45 -64h-372v-187h417l-46 -63h-371v-172h417zM601 8h-535v64h535v-64z" />
    <glyph glyph-name="O.alt1" unicode="&#xf005;" horiz-adv-x="682" 
d="M341 199q-80 0 -148.5 37t-109 100.5t-40.5 136.5t40.5 136.5t109 100.5t148.5 37q121 0 209 -81t88 -192.5t-88 -193t-209 -81.5zM409 281q73 28 101.5 105t-2.5 156q-32 81 -102 116q-38 20 -79 20q-32 0 -63 -12q-70 -28 -95.5 -104t7.5 -158q32 -81 97 -116
q66 -36 136 -7zM613 8h-545v64h545v-64z" />
    <glyph glyph-name="ampersand.alt1" unicode="&#xf006;" horiz-adv-x="1599" 
d="M1403 627q64 -16 104.5 -63.5t40.5 -107.5q0 -34 -13.5 -64t-36.5 -51t-51.5 -35t-58.5 -19q-115 -19 -224 20q15 -39 19 -75q3 -22 3 -45q0 -117 -72 -220q-75 -106 -207.5 -167.5t-285.5 -61.5q-115 0 -219.5 35.5t-180 96t-120.5 143.5t-45 174q0 126 81.5 233
t220.5 165q-44 31 -75.5 70t-48 83.5t-16.5 90.5q0 74 42 141q2 4 8 14q-55 -24 -90 -38.5t-87 -33t-96.5 -27.5t-83.5 -9q-71 0 -125 15.5t-84 42t-44.5 56.5t-14.5 63q0 45 23.5 84.5t63 63t85.5 23.5q36 0 68 -13l10 -3l-38 -96l-9 4q-18 6 -38 6q-45 -2 -63 -23
q-15 -17 -13 -47q4 -44 49 -69t121 -25q42 0 94 12.5t87 25t101 38.5q39 15 53 20q39 15 60 23t58 21t63.5 20.5t60 15.5t64.5 13q48 9 97 9h7l3 -10v10h5q112 -3 206 -47.5t147.5 -118.5t53.5 -161v-3q0 -82 -63 -142t-152 -62q-99 -2 -167 64q-59 58 -59 136q0 66 40 101
l5 5l78 -57l-8 -8q-6 -6 -13.5 -25.5t-7.5 -33.5q0 -51 32.5 -84t83.5 -34q39 -1 69 28q42 41 42 111v4q0 70 -37.5 125t-104 86.5t-152.5 33.5q-45 -1 -94 -9q-101 -20 -158 -82.5t-57 -153.5q0 -158 141 -215q44 -17 119 -23q14 -2 23 -2h10l-2 -82h-9q-40 0 -99 11
q-80 15 -150 -18q-91 -43 -134.5 -119.5t-43.5 -193.5q0 -107 54 -190.5t151.5 -130t221.5 -46.5q260 0 375 186q52 84 52 181q0 18 -2 36q-3 20 -8.5 38.5t-17 44.5t-27 45.5t-41 34t-56.5 16.5q-69 0 -118.5 -30.5t-86.5 -94.5l-4 -9l-86 46l5 9q43 70 119.5 111t165.5 41
h17q25 -2 50 -7q71 -12 174 -58l17 -7q47 -21 73.5 -31t69.5 -19t78 -4q44 6 73.5 34.5t27.5 64.5q-2 30 -31 55.5t-66 34.5l-11 3l32 88z" />
    <glyph glyph-name="ampersand.alt2" unicode="&#xf007;" horiz-adv-x="1136" 
d="M1058 463q21 -30 26.5 -66.5t-11 -77.5t-57.5 -73q-63 -52 -203 -64q7 -9 13 -17q39 -54 39 -124q0 -48 -17.5 -94.5t-52.5 -88t-83.5 -73t-114.5 -49.5t-140 -18q-90 0 -166.5 31t-126.5 83t-79.5 115t-33.5 130q-3 48 7 96.5t39 98.5t73.5 91.5t115.5 74t160 48.5
q-3 5 -14 16q-6 7 -9 10q-61 72 -52 165q4 43 30.5 85t69 75.5t105 54.5t132.5 21q72 0 126.5 -16t85.5 -43t46 -58t15 -66q0 -65 -64.5 -117.5t-146.5 -53.5h-10v10v79h9q27 1 45.5 10.5t25.5 24.5t9.5 25.5t2.5 20.5q0 15 -5 29.5t-18 32.5t-44.5 29t-76.5 11
q-47 0 -84.5 -14t-60 -38t-34.5 -51.5t-15 -58.5q-3 -12 -1 -29t5 -35.5t14.5 -38t27 -36.5t44 -30t65.5 -19l9 -2l-8 -67h-12l-3.5 0.5t-8.5 0.5t-12 0.5t-15.5 1t-18 0.5h-20h-21.5t-22.5 -1t-21.5 -2q-66 -7 -118.5 -25.5t-86 -42.5t-58 -55t-37 -59t-19 -59t-7.5 -51
t0 -39q2 -34 12 -68.5t27.5 -65.5t42.5 -58t55 -47t67.5 -31t78.5 -11q62 0 112.5 23.5t80.5 60.5t46 78t16 79q0 49 -31.5 89t-71.5 43q-71 6 -115 -28q-18 -14 -24.5 -31.5t-2 -34.5t9 -28t11.5 -20l6 -9l-87 -44l-5 7q-21 31 -26.5 67.5t11 77t57.5 72.5q25 19 63 29
t66 12t82 3q43 0 65 2q59 3 90.5 5.5t72 12.5t61.5 26t30.5 41t6.5 47.5t-13 38.5l-6 8l76 44z" />
    </font>
</defs>
</svg>
